<svg width="145" height="30" viewBox="0 0 145 30" fill="none" xmlns="http://www.w3.org/2000/svg">
<g id="raking-logos-bestcss" clip-path="url(#clip0_1938_1530)">
<g id="Group">
<path id="Vector" d="M0 0.649414H5.57446C7.81706 0.649414 9.54706 0.909154 10.7004 1.42863C11.9178 1.94812 12.8789 2.79227 13.5197 3.89617C14.2245 5.00006 14.5449 6.23383 14.5449 7.59747C14.5449 8.89617 14.2245 10.0001 13.6478 11.039C13.0711 12.078 12.11 12.9221 10.9567 13.5715C12.4304 14.091 13.5197 14.6754 14.3526 15.3247C15.1215 15.9741 15.7623 16.8182 16.2108 17.7923C16.6593 18.7663 16.8515 19.8053 16.8515 20.9092C16.8515 23.1819 16.0186 25.1299 14.3526 26.7533C12.6867 28.3767 10.5082 29.1559 7.68891 29.1559H0V0.649414ZM2.75519 3.44162V12.5975H4.35705C6.34335 12.5975 7.75298 12.4027 8.65002 12.013C9.54706 11.6234 10.316 11.039 10.8285 10.2598C11.3411 9.48058 11.6615 8.57149 11.6615 7.59747C11.6615 6.29876 11.213 5.2598 10.316 4.54552C9.41891 3.83123 8.00928 3.44162 6.02298 3.44162H2.75519ZM2.75519 15.5195V26.4286H6.27928C8.32965 26.4286 9.86743 26.2338 10.8285 25.8442C11.7897 25.4546 12.5585 24.8053 13.1352 23.9611C13.7119 23.1169 14.0323 22.1429 14.0323 21.1689C14.0323 19.8702 13.6478 18.7663 12.8148 17.8572C11.9819 16.9481 10.8926 16.2338 9.41891 15.9092C8.4578 15.6494 6.79187 15.5845 4.42112 15.5845L2.75519 15.5195Z" fill="black"/>
<path id="Vector_2" d="M22.4258 0.649414H38.5725V3.44162H25.245V12.4027H38.4443V15.1949H25.245V26.4286H38.4443V29.2208H22.4258V0.649414Z" fill="black"/>
<path id="Vector_3" d="M40.5586 23.8961L42.9293 22.4675C44.5953 25.5844 46.5816 27.2078 48.7601 27.2078C49.7212 27.2078 50.6183 27.013 51.4512 26.5584C52.2842 26.1039 52.9249 25.5195 53.3734 24.7403C53.822 23.961 54.0142 23.1818 54.0142 22.3377C54.0142 21.3636 53.6938 20.4545 53.0531 19.5455C52.156 18.2468 50.5542 16.7532 48.2475 14.9351C45.8768 13.1169 44.4671 11.8182 43.8905 11.039C42.8653 9.67532 42.4167 8.24675 42.4167 6.68831C42.4167 5.45455 42.7371 4.28571 43.3138 3.31169C43.8905 2.27273 44.7234 1.49351 45.8127 0.909091C46.9019 0.324675 48.0553 0 49.2727 0C50.6182 0 51.8357 0.324675 52.989 0.974026C54.1423 1.62338 55.3597 2.85714 56.6412 4.67532L54.3346 6.42857C53.1812 5 52.2842 4.02597 51.5794 3.57143C50.8105 3.11688 50.0416 2.92208 49.1445 2.92208C47.9912 2.92208 47.0942 3.24675 46.3894 3.96104C45.6845 4.67532 45.3001 5.51948 45.3001 6.55844C45.3001 7.20779 45.4282 7.79221 45.6845 8.37662C45.9408 8.96104 46.3893 9.61039 47.0942 10.2597C47.4786 10.6494 48.696 11.5584 50.7464 13.1169C53.1812 14.9351 54.8471 16.5584 55.7442 17.987C56.6412 19.4156 57.0897 20.8442 57.0897 22.2727C57.0897 24.3506 56.3209 26.1688 54.7831 27.6623C53.2453 29.2208 51.3231 29.9351 49.1445 29.9351C47.4145 29.9351 45.8768 29.4805 44.4671 28.5714C43.0575 27.6623 41.7119 26.1039 40.5586 23.8961Z" fill="black"/>
<path id="Vector_4" d="M60.2305 3.44162V0.649414H75.6724V3.44162H69.3931V29.2208H66.5097V3.44162H60.2305Z" fill="black"/>
</g>
<g id="Group_2">
<path id="Vector_5" d="M106.169 5.97403L103.927 7.72727C102.709 6.1039 101.235 4.87013 99.5054 4.02597C97.7754 3.18182 95.9172 2.79221 93.8669 2.79221C91.6243 2.79221 89.5098 3.31169 87.6517 4.41558C85.7294 5.51948 84.2557 6.94805 83.1665 8.83117C82.1413 10.6494 81.5646 12.7273 81.5646 15.0649C81.5646 18.5714 82.7179 21.4286 85.0887 23.7662C87.4594 26.1039 90.4068 27.2727 93.995 27.2727C97.9676 27.2727 101.235 25.7143 103.927 22.5974L106.169 24.2857C104.759 26.1039 103.029 27.4675 100.915 28.5065C98.8006 29.5455 96.4939 30 93.8669 30C88.9331 30 85.0246 28.3117 82.2053 25C79.8346 22.2078 78.6172 18.8312 78.6172 14.8052C78.6172 10.6494 80.0909 7.07792 82.9742 4.28571C85.8576 1.49351 89.5098 0 93.8669 0C96.4939 0 98.8647 0.519481 100.979 1.55844C103.094 2.5974 104.824 4.09091 106.169 5.97403Z" fill="black"/>
<path id="Vector_6" d="M108.926 23.8961L111.297 22.4675C112.962 25.5844 114.949 27.2078 117.127 27.2078C118.088 27.2078 118.985 27.013 119.818 26.5584C120.651 26.1039 121.292 25.5195 121.741 24.7403C122.189 23.961 122.381 23.1818 122.381 22.3377C122.381 21.3636 122.061 20.4545 121.42 19.5455C120.523 18.2468 118.921 16.7532 116.615 14.9351C114.244 13.1169 112.834 11.8182 112.258 11.039C111.232 9.67532 110.784 8.24675 110.784 6.68831C110.784 5.45455 111.104 4.28571 111.681 3.31169C112.258 2.27273 113.091 1.49351 114.18 0.909091C115.269 0.324675 116.422 0 117.64 0C118.985 0 120.203 0.324675 121.356 0.974026C122.51 1.62338 123.727 2.85714 125.008 4.67532L122.702 6.42857C121.612 5 120.715 4.09091 120.011 3.63636C119.242 3.18182 118.473 2.98701 117.576 2.98701C116.422 2.98701 115.525 3.31169 114.757 4.02597C114.052 4.74026 113.667 5.58442 113.667 6.62338C113.667 7.27273 113.795 7.85714 114.052 8.44156C114.308 9.02597 114.757 9.67532 115.461 10.3247C115.846 10.7143 117.063 11.6234 119.114 13.1818C121.548 15 123.214 16.6234 124.111 18.0519C125.008 19.4805 125.457 20.9091 125.457 22.3377C125.457 24.4156 124.688 26.2338 123.15 27.7273C121.612 29.2857 119.69 30 117.512 30C115.782 30 114.244 29.5455 112.834 28.6364C111.361 27.6623 110.079 26.1039 108.926 23.8961Z" fill="black"/>
<path id="Vector_7" d="M128.469 23.8961L130.839 22.4675C132.505 25.5844 134.492 27.2078 136.67 27.2078C137.631 27.2078 138.528 27.013 139.361 26.5584C140.194 26.1039 140.835 25.5195 141.284 24.7403C141.732 23.961 141.924 23.1818 141.924 22.3377C141.924 21.3636 141.604 20.4545 140.963 19.5455C140.066 18.2468 138.464 16.7532 136.158 14.9351C133.787 13.1169 132.377 11.8182 131.801 11.039C130.775 9.67532 130.327 8.24675 130.327 6.68831C130.327 5.45455 130.647 4.28571 131.224 3.31169C131.801 2.27273 132.634 1.49351 133.723 0.909091C134.812 0.324675 135.965 0 137.183 0C138.528 0 139.746 0.324675 140.899 0.974026C142.052 1.62338 143.27 2.85714 144.551 4.67532L142.245 6.42857C141.155 5 140.258 4.09091 139.554 3.63636C138.785 3.18182 138.016 2.98701 137.119 2.98701C135.965 2.98701 135.068 3.31169 134.3 4.02597C133.595 4.74026 133.21 5.58442 133.21 6.62338C133.21 7.27273 133.338 7.85714 133.595 8.44156C133.851 9.02597 134.3 9.67532 135.004 10.3247C135.389 10.7143 136.606 11.6234 138.657 13.1818C141.091 15 142.757 16.6234 143.654 18.0519C144.551 19.4805 145 20.9091 145 22.3377C145 24.4156 144.231 26.2338 142.693 27.7273C141.155 29.2857 139.233 30 137.055 30C135.325 30 133.787 29.5455 132.377 28.6364C130.968 27.7273 129.622 26.1039 128.469 23.8961Z" fill="black"/>
</g>
</g>
<defs>
<clipPath id="clip0_1938_1530">
<rect width="145" height="30" fill="white"/>
</clipPath>
</defs>
</svg>
