<svg width="196" height="82" viewBox="0 0 196 82" fill="none" xmlns="http://www.w3.org/2000/svg">
<g id="Clutch 5 Star 1">
<g id="Group">
<path id="Vector" d="M41.1892 81.2171C52.0098 81.2171 62.1301 77.3983 69.803 70.4572L72.5967 67.6792L59.3364 54.4934L56.5428 57.9601C52.3561 61.7789 47.1228 63.8605 41.1892 63.8605C27.9289 63.8605 18.1549 54.4934 18.1549 40.6111C18.1549 26.7289 27.5749 17.7062 41.1892 17.7062C47.1228 17.7062 52.3561 19.4434 56.5428 23.6065L59.3364 26.0325L71.8964 13.543L69.1027 10.765C61.0757 4.16829 51.6558 0.00513716 41.1815 0.00513716C17.4546 -0.339241 0 16.6654 0 40.6035C0.00769603 63.1717 17.8086 81.2171 41.1892 81.2171Z" fill="#010202"/>
<path id="Vector_2" d="M26.5352 40.6112C26.5352 48.2487 32.8151 54.1414 40.1417 54.1414C47.8224 54.1414 53.7483 47.8967 53.7483 40.6112C53.7483 32.9736 47.4684 27.0809 40.1417 27.0809C32.8151 27.0809 26.5352 32.9813 26.5352 40.6112Z" fill="#E52421"/>
</g>
<path id="Vector_3" d="M103.027 54.9936H99.9032V57.788H95.9979L102.245 49.093H98.8115L91.9375 58.2538V60.4284H99.7483V63.5345H103.027V60.4284H105.369V57.788H103.027V54.9936Z" fill="#010202"/>
<path id="Vector_4" d="M108.65 59.6511C108.026 59.6511 107.558 59.8052 107.244 60.271C106.931 60.5826 106.621 61.0484 106.621 61.6682C106.621 62.2881 106.776 62.7538 107.244 63.0654C107.558 63.3771 108.181 63.6853 108.65 63.6853C109.273 63.6853 109.741 63.5312 110.055 63.0654C110.368 62.7538 110.678 62.1339 110.678 61.6682C110.678 61.0484 110.523 60.5826 110.055 60.271C109.745 59.8087 109.276 59.6511 108.65 59.6511Z" fill="#010202"/>
<path id="Vector_5" d="M122.08 50.6439C120.988 49.4007 119.27 48.7809 117.238 48.7809C116.146 48.7809 115.364 48.935 114.427 49.4007C113.646 49.8665 112.867 50.3322 112.399 51.1096C111.931 51.887 111.617 52.6609 111.617 53.5958C111.617 54.5273 111.772 55.3047 112.241 55.9246C112.709 56.5444 113.332 57.1677 114.114 57.4759C114.896 57.7875 115.674 58.0957 116.614 58.0957C118.174 58.0957 119.425 57.63 120.206 56.8526C120.206 58.2498 119.738 59.1813 119.115 59.9587C118.333 60.7361 117.396 61.0443 116.146 61.0443C115.054 61.0443 114.117 60.7327 113.491 60.2669L112.241 62.7532C112.709 63.0648 113.332 63.373 114.114 63.5305C114.896 63.6846 115.519 63.8422 116.301 63.8422C117.706 63.8422 119.111 63.5305 120.206 62.9107C121.298 62.2908 122.235 61.3594 122.862 60.2703C123.485 59.0272 123.798 57.63 123.798 56.0787C123.798 53.5958 123.171 51.887 122.08 50.6439ZM119.425 54.9931C118.956 55.4588 118.333 55.6129 117.706 55.6129C116.924 55.6129 116.301 55.4588 115.988 54.9931C115.519 54.5273 115.364 54.0616 115.364 53.4417C115.364 52.8219 115.519 52.1986 115.988 51.8904C116.456 51.5788 117.079 51.2706 117.706 51.2706C118.488 51.2706 119.111 51.4247 119.579 51.8904C120.048 52.3561 120.203 52.8219 120.203 53.4417C120.051 54.0616 119.893 54.5273 119.425 54.9931Z" fill="#010202"/>
<path id="Vector_6" d="M130.355 46.1407L123.484 65.5547H126.453L133.169 46.1407H130.355Z" fill="#010202"/>
<path id="Vector_7" d="M138.166 54.5278H136.916L137.071 51.7334H143.16V49.093H134.258L133.476 57.1682H137.223C138.473 57.1682 139.41 57.3223 139.878 57.6339C140.346 57.9455 140.66 58.4113 140.66 59.0311C140.66 59.651 140.346 60.1167 139.878 60.4284C139.41 60.74 138.786 60.8941 137.85 60.8941C137.068 60.8941 136.289 60.74 135.663 60.5825C134.881 60.4284 134.258 59.9626 133.789 59.651L132.539 62.1372C133.162 62.603 134.099 63.0687 135.039 63.2228C135.976 63.5345 137.068 63.6886 138.008 63.6886C139.258 63.6886 140.508 63.5344 141.287 63.0687C142.223 62.603 142.847 62.1372 143.315 61.3598C143.783 60.5825 143.938 59.8085 143.938 59.0311C143.938 57.6339 143.47 56.5449 142.533 55.7709C141.6 54.8395 140.195 54.5278 138.166 54.5278Z" fill="#010202"/>
<path id="Vector_8" d="M147.376 59.6511C146.753 59.6511 146.284 59.8052 145.971 60.271C145.658 60.5826 145.348 61.0484 145.348 61.6682C145.348 62.2881 145.503 62.7538 145.971 63.0654C146.284 63.3771 146.908 63.6853 147.376 63.6853C147.999 63.6853 148.468 63.5312 148.781 63.0654C149.095 62.7538 149.405 62.1339 149.405 61.6682C149.405 61.0484 149.25 60.5826 148.781 60.271C148.468 59.8087 147.999 59.6511 147.376 59.6511Z" fill="#010202"/>
<path id="Vector_9" d="M160.026 49.7124C159.089 49.0925 157.997 48.7809 156.747 48.7809C155.497 48.7809 154.405 49.0925 153.469 49.7124C152.532 50.3322 151.75 51.1096 151.282 52.3527C150.813 53.4383 150.5 54.839 150.5 56.3903C150.5 57.9416 150.813 59.3423 151.282 60.4279C151.75 61.5135 152.532 62.4449 153.469 63.0682C154.405 63.6915 155.497 63.9997 156.747 63.9997C157.997 63.9997 159.089 63.6881 160.026 63.0682C160.963 62.4484 161.744 61.671 162.213 60.4279C162.681 59.3423 162.994 57.9416 162.994 56.3903C162.994 54.839 162.681 53.4383 162.213 52.3527C161.744 51.1096 160.963 50.3356 160.026 49.7124ZM158.934 59.808C158.466 60.5854 157.684 60.8936 156.906 60.8936C155.969 60.8936 155.346 60.582 154.877 59.808C154.409 59.0306 154.095 57.9451 154.095 56.2362C154.095 54.5273 154.409 53.4417 154.877 52.6644C155.346 51.887 156.127 51.5788 156.906 51.5788C157.842 51.5788 158.466 51.8904 158.934 52.6644C159.402 53.4383 159.716 54.5273 159.716 56.2362C159.712 57.9451 159.402 59.0306 158.934 59.808Z" fill="#010202"/>
<path id="Vector_10" d="M109.669 22.9221H103.109C102.954 22.9221 102.64 22.768 102.64 22.6104L100.612 16.3983C100.457 15.9325 99.6752 15.9325 99.5202 16.3983L97.4917 22.6104C97.4917 22.7645 97.1783 22.9221 97.0234 22.9221H90.4627C89.9944 22.9221 89.681 23.5419 90.1493 23.8536L95.4598 27.737C95.6148 27.8911 95.7732 28.0487 95.6148 28.3569L93.5864 34.5691C93.4314 35.0348 94.0547 35.5005 94.3681 35.1889L99.6786 31.3054C99.8336 31.1513 100.147 31.1513 100.302 31.3054L105.612 35.1889C106.081 35.5005 106.549 35.0348 106.394 34.5691L104.366 28.3569C104.366 28.2028 104.366 27.8911 104.521 27.737L109.831 23.8536C110.451 23.5453 110.293 22.9221 109.669 22.9221Z" fill="#E52421"/>
<path id="Vector_11" d="M130.751 22.9221H124.191C124.036 22.9221 123.722 22.768 123.722 22.6104L121.694 16.3983C121.539 15.9325 120.757 15.9325 120.602 16.3983L118.574 22.6104C118.574 22.7645 118.26 22.9221 118.105 22.9221H111.545C111.076 22.9221 110.763 23.5419 111.231 23.8536L116.542 27.737C116.697 27.8911 116.855 28.0487 116.697 28.3569L114.668 34.5691C114.513 35.0348 115.137 35.5005 115.45 35.1889L120.761 31.3054C120.916 31.1513 121.229 31.1513 121.384 31.3054L126.694 35.1889C127.163 35.5005 127.631 35.0348 127.476 34.5691L125.448 28.3569C125.448 28.2028 125.448 27.8911 125.603 27.737L130.913 23.8536C131.375 23.5453 131.22 22.9221 130.751 22.9221Z" fill="#E52421"/>
<path id="Vector_12" d="M152.302 22.9221H145.742C145.587 22.9221 145.273 22.768 145.273 22.6104L143.245 16.3983C143.09 15.9325 142.308 15.9325 142.153 16.3983L140.125 22.6104C140.125 22.7645 139.811 22.9221 139.656 22.9221H133.096C132.627 22.9221 132.314 23.5419 132.782 23.8536L138.093 27.737C138.248 27.8911 138.406 28.0487 138.248 28.3569L136.219 34.5691C136.064 35.0348 136.688 35.5005 137.001 35.1889L142.311 31.3054C142.466 31.1513 142.78 31.1513 142.935 31.3054L148.245 35.1889C148.714 35.5005 149.182 35.0348 149.027 34.5691L146.999 28.3569C146.999 28.2028 146.999 27.8911 147.154 27.737L152.464 23.8536C152.929 23.5453 152.771 22.9221 152.302 22.9221Z" fill="#E52421"/>
<path id="Vector_13" d="M173.697 22.9221H167.136C166.981 22.9221 166.668 22.768 166.668 22.6104L164.639 16.3983C164.484 15.9325 163.703 15.9325 163.548 16.3983L161.519 22.6104C161.519 22.7645 161.206 22.9221 161.051 22.9221H154.49C154.022 22.9221 153.708 23.5419 154.177 23.8536L159.487 27.737C159.642 27.8911 159.801 28.0487 159.642 28.3569L157.614 34.5691C157.459 35.0348 158.082 35.5005 158.395 35.1889L163.706 31.3054C163.861 31.1513 164.174 31.1513 164.329 31.3054L169.64 35.1889C170.108 35.5005 170.577 35.0348 170.422 34.5691L168.393 28.3569C168.393 28.2028 168.393 27.8911 168.548 27.737L173.859 23.8536C174.32 23.5453 174.165 22.9221 173.697 22.9221Z" fill="#E52421"/>
<path id="Vector_14" d="M194.936 23.8565C195.404 23.5448 195.091 22.925 194.623 22.925H188.062C187.907 22.925 187.593 22.7709 187.593 22.6134L185.565 16.4012C185.41 15.9354 184.628 15.9354 184.473 16.4012L182.445 22.6134C182.445 22.7675 182.131 22.925 181.976 22.925H175.416C174.947 22.925 174.634 23.5448 175.102 23.8565L180.413 27.74C180.568 27.8941 180.726 28.0516 180.568 28.3598L178.539 34.572C178.384 35.0377 179.008 35.5035 179.321 35.1918L184.632 31.3084C184.787 31.1543 185.1 31.1543 185.255 31.3084L190.566 35.1918C191.034 35.5035 191.502 35.0377 191.347 34.572L189.319 28.3598C189.319 28.2057 189.319 27.8941 189.474 27.74L194.936 23.8565Z" fill="#E52421"/>
</g>
</svg>
