<svg width="147" height="42" viewBox="0 0 147 42" fill="none" xmlns="http://www.w3.org/2000/svg">
<g id="Logo Clutch">
<path id="Vector" d="M38.0391 0H44.7685V41.547H38.0391V0Z" fill="black"/>
<path id="Vector_2" d="M68.1711 28.3796C68.1711 34.8164 62.9046 35.4016 61.1491 35.4016C57.0529 35.4016 56.4677 31.598 56.4677 29.5499V13.4578H49.7383V29.2573C49.7383 33.0609 50.9086 36.5719 53.2493 38.62C55.2974 40.6681 57.9306 41.5458 61.1491 41.5458C63.4897 41.5458 66.4156 40.9607 68.1711 39.2052V41.5458H74.9005V13.4578H68.1711V28.3796Z" fill="black"/>
<path id="Vector_3" d="M88.0706 3.21851H81.3411V13.459H76.3672V19.8958H81.3411V41.547H88.0706V19.8958H93.0445V13.459H88.0706V3.21851Z" fill="black"/>
<path id="Vector_4" d="M114.107 33.0623C112.644 34.2327 110.596 35.1104 108.548 35.1104C103.866 35.1104 100.648 31.5994 100.648 26.9181C100.648 22.2367 103.866 19.0183 108.548 19.0183C110.596 19.0183 112.644 19.6035 114.107 21.0664L114.984 21.9441L119.666 17.5554L118.495 16.6776C115.862 14.3369 112.351 12.874 108.548 12.874C100.355 12.874 94.2109 19.0183 94.2109 27.2106C94.2109 35.403 100.355 41.5473 108.548 41.5473C112.351 41.5473 115.862 40.0844 118.495 37.7437L119.666 36.8659L114.984 32.1846L114.107 33.0623Z" fill="black"/>
<path id="Vector_5" d="M143.368 15.7996C141.32 13.7515 139.271 12.8737 136.053 12.8737C133.712 12.8737 131.372 13.4589 129.616 15.2144V0H122.887V41.547H129.616V26.04C129.616 19.6031 134.005 19.018 135.76 19.018C139.857 19.018 139.564 22.8216 139.564 24.8697V41.2544H146.293V25.1622C146.293 21.3587 145.416 17.8476 143.368 15.7996Z" fill="black"/>
<path id="Vector_6" d="M108.256 31.8922C110.841 31.8922 112.937 29.7963 112.937 27.2109C112.937 24.6255 110.841 22.5295 108.256 22.5295C105.67 22.5295 103.574 24.6255 103.574 27.2109C103.574 29.7963 105.67 31.8922 108.256 31.8922Z" fill="#FF8B8B"/>
<path id="Vector_7" d="M28.6733 31.3058C26.3326 33.6465 22.8216 35.1094 19.018 35.1094C11.7034 35.1094 6.43685 29.2577 6.43685 21.3579C6.43685 13.4581 11.7034 7.60646 19.3106 7.60646C22.8216 7.60646 26.3326 9.06938 28.9658 11.7026L29.8436 12.5804L34.2324 8.19162L33.3546 7.31387C29.551 3.51027 24.5771 1.46218 19.3106 1.46218C8.19236 1.1696 0 9.94713 0 21.3579C0 32.7687 8.19236 41.5462 19.018 41.5462C24.2845 41.5462 29.551 39.4981 33.062 35.6945L33.9398 34.8168L29.551 30.428L28.6733 31.3058Z" fill="black"/>
</g>
</svg>
