<svg width="224" height="28" viewBox="0 0 224 28" fill="none" xmlns="http://www.w3.org/2000/svg">
<g id="raking-logos-csswinner" clip-path="url(#clip0_1938_1560)">
<path id="Vector" d="M13.4889 0C11.4255 0 9.55305 0.38674 7.90993 1.12155C6.2668 1.85635 4.81474 2.90055 3.66837 4.1768C2.52201 5.49171 1.60491 7.03867 0.955305 8.77901C0.305698 10.558 0 12.4917 0 14.5028C0 16.4365 0.305698 18.2541 0.878881 19.8785C1.45206 21.5414 2.33094 22.9724 3.40089 24.1713C4.47083 25.3702 5.80826 26.2983 7.37496 26.9945C8.90345 27.6519 10.6612 28 12.5336 28C15.1702 28 17.5394 27.4972 19.6029 26.5304L19.7557 26.453V23.4751L19.4118 23.6685C17.5012 24.7514 15.2849 25.2928 12.8011 25.2928C11.1962 25.2928 9.74411 24.9834 8.55954 24.442C7.33674 23.8619 6.30502 23.0884 5.50256 22.0829C4.7001 21.0773 4.05049 19.9171 3.63016 18.6022C3.20983 17.2873 3.01876 15.8564 3.01876 14.3481C3.01876 12.6851 3.24804 11.0994 3.70658 9.70718C4.16513 8.31492 4.85295 7.07735 5.73183 6.03315C6.61071 4.98895 7.71887 4.1768 8.97987 3.59669C10.2791 3.01657 11.7694 2.74586 13.4125 2.74586C15.5142 2.74586 17.5012 3.20994 19.3354 4.13812L19.6793 4.29282V1.12155L19.5264 1.0442C17.8069 0.348066 15.7434 0 13.4889 0Z" fill="black"/>
<path id="Vector_2" d="M38.2503 16.3204C37.7153 15.7017 36.9893 15.0829 36.1486 14.5028C35.3079 13.9227 34.3526 13.3425 33.2445 12.7624C32.2128 12.1823 31.2957 11.6796 30.5696 11.2541C29.8818 10.8287 29.2704 10.4033 28.8501 9.9779C28.4297 9.55249 28.124 9.12707 27.933 8.62431C27.7419 8.16022 27.6655 7.58011 27.6655 6.92265C27.6655 6.22652 27.8183 5.64641 28.0858 5.10497C28.3533 4.60221 28.7737 4.13812 29.2322 3.79006C29.729 3.44199 30.3021 3.17127 30.99 2.9779C31.6778 2.8232 32.4038 2.70718 33.1681 2.70718C35.1933 2.70718 37.0275 3.17127 38.5178 4.0221L38.8617 4.21547V0.966851L38.7088 0.889503C37.295 0.309392 35.5372 0 33.4355 0C32.251 0 31.1046 0.154696 30.0347 0.502762C28.9647 0.812155 28.0476 1.31492 27.2452 1.9337C26.4427 2.55249 25.8313 3.32597 25.3346 4.1768C24.876 5.0663 24.6467 6.07182 24.6467 7.19337C24.6467 8.08287 24.7614 8.85635 25.0289 9.55249C25.2581 10.2486 25.6785 10.9061 26.1752 11.4862C26.7102 12.0663 27.3598 12.6464 28.2005 13.2265C29.0029 13.768 29.9964 14.3867 31.1046 15.0055C32.0981 15.5856 33.0152 16.0884 33.7412 16.5525C34.4673 16.9779 35.0787 17.442 35.5372 17.8674C35.9958 18.2928 36.3397 18.7569 36.5689 19.2597C36.7982 19.7624 36.9129 20.3425 36.9129 21C36.9129 22.3923 36.4543 23.4365 35.499 24.1713C34.5437 24.9061 33.0916 25.2928 31.181 25.2928C30.6843 25.2928 30.1493 25.2541 29.6143 25.1381C29.0794 25.0608 28.5062 24.9061 27.9712 24.7514C27.4362 24.558 26.9013 24.3646 26.3663 24.0939C25.8313 23.8232 25.3728 23.5525 24.9524 23.2044L24.5703 22.9337V26.453L24.6849 26.5304C25.0289 26.7624 25.4874 26.9558 26.0224 27.1492C26.5573 27.3425 27.1305 27.4972 27.7419 27.6133C28.3151 27.7293 28.9265 27.8453 29.4997 27.9227C30.0729 28 30.6078 28.0387 31.0282 28.0387C32.3274 28.0387 33.512 27.884 34.5819 27.5746C35.6519 27.2652 36.6072 26.8011 37.4096 26.221C38.2121 25.6022 38.8235 24.8674 39.282 23.9392C39.7406 23.011 39.9316 21.9669 39.9316 20.768C39.9316 19.9171 39.7788 19.105 39.5113 18.3702C39.2438 17.6354 38.8235 16.9392 38.2503 16.3204Z" fill="black"/>
<path id="Vector_3" d="M59.5746 18.3315C59.3072 17.6354 58.8868 16.9392 58.3136 16.3204C57.7787 15.7017 57.0526 15.0829 56.212 14.5028C55.3713 13.9227 54.416 13.3425 53.3078 12.7624C52.2761 12.1823 51.359 11.6796 50.633 11.2541C49.9452 10.8287 49.3338 10.4033 48.9134 9.9779C48.4931 9.55249 48.1874 9.12707 47.9963 8.62431C47.8053 8.16022 47.7289 7.58011 47.7289 6.92265C47.7289 6.22652 47.8817 5.64641 48.1492 5.10497C48.4167 4.60221 48.837 4.13812 49.2956 3.79006C49.7923 3.44199 50.3655 3.17127 51.0533 2.9779C51.7411 2.78453 52.429 2.70718 53.1932 2.70718C55.2184 2.70718 57.0526 3.17127 58.5429 4.0221L58.8868 4.21547V0.966851L58.734 0.889503C57.3583 0.309392 55.6006 0 53.4989 0C52.3143 0 51.168 0.154696 50.098 0.502762C49.0281 0.812155 48.111 1.31492 47.3085 1.9337C46.5061 2.55249 45.8947 3.32597 45.3979 4.1768C44.9394 5.0663 44.7101 6.07182 44.7101 7.19337C44.7101 8.08287 44.8247 8.85635 45.0922 9.55249C45.3215 10.2486 45.7418 10.9061 46.2386 11.4862C46.7735 12.0663 47.4232 12.6464 48.2638 13.2265C49.0663 13.768 50.0598 14.3867 51.1679 15.0055C52.1615 15.5856 53.0786 16.0884 53.8046 16.5525C54.5306 16.9779 55.142 17.442 55.6006 17.9061C56.0591 18.3315 56.403 18.7956 56.6323 19.2983C56.8616 19.8011 56.9762 20.3812 56.9762 21.0387C56.9762 22.4309 56.5177 23.4751 55.6006 24.2099C54.6453 24.9447 53.1932 25.3315 51.2826 25.3315C50.7858 25.3315 50.2509 25.2928 49.7159 25.1768C49.1809 25.0994 48.6077 24.9447 48.0728 24.7901C47.5378 24.5967 47.0028 24.4033 46.4678 24.1326C45.9329 23.8619 45.4743 23.5912 45.054 23.2431L44.6719 22.9724V26.4917L44.7865 26.5691C45.1304 26.8011 45.589 26.9945 46.1239 27.1878C46.6589 27.3812 47.2321 27.5359 47.8435 27.6519C48.4167 27.768 49.0281 27.884 49.6013 27.9613C50.1744 28.0387 50.7094 28.0773 51.1297 28.0773C52.429 28.0773 53.6135 27.9227 54.6835 27.6133C55.7534 27.3039 56.7087 26.8398 57.5112 26.2597C58.3136 25.6409 58.925 24.9061 59.3836 23.9779C59.8421 23.0497 60.0332 22.0055 60.0332 20.8066C59.995 19.8398 59.8803 19.0663 59.5746 18.3315Z" fill="black"/>
<path id="Vector_4" d="M114.791 0.464111H111.887V27.5746H114.791V0.464111Z" fill="black"/>
<path id="Vector_5" d="M171.918 22.6242C171.88 22.5855 154.952 0.425293 154.952 0.425293H151.895V27.5358H154.799C154.799 27.5358 154.799 5.56894 154.76 5.1822L171.918 27.5358H174.822V0.463967H171.88C171.918 0.463967 171.918 22.4695 171.918 22.6242Z" fill="black"/>
<path id="Vector_6" d="M141.922 22.6243C141.883 22.5857 124.955 0.464111 124.955 0.464111H121.898V27.5746H124.803C124.803 27.5746 124.803 5.60776 124.764 5.22102L141.922 27.5746H144.826V0.464111H141.883C141.883 0.464111 141.883 22.4696 141.922 22.6243Z" fill="black"/>
<path id="Vector_7" d="M184.872 15.1989H196.068V12.4917H184.872V3.20997H198.361V0.464111H181.93V27.5746H198.934V24.8288H184.872V15.1989Z" fill="black"/>
<path id="Vector_8" d="M219.376 18.9503C219.07 18.4089 218.803 17.9061 218.535 17.442C218.268 17.0166 218 16.5912 217.694 16.2818C217.427 15.9337 217.121 15.6243 216.816 15.3923C216.663 15.2376 216.472 15.1216 216.281 15.0442C217.007 14.8509 217.694 14.5415 218.306 14.1934C219.07 13.768 219.72 13.2265 220.255 12.5691C220.79 11.9503 221.21 11.2155 221.516 10.4033C221.821 9.59118 221.936 8.70168 221.936 7.73483C221.936 6.53593 221.707 5.45306 221.248 4.56356C220.79 3.67406 220.178 2.90058 219.452 2.28179C218.726 1.70168 217.847 1.23759 216.892 0.9282C215.937 0.618807 214.943 0.464111 213.95 0.464111H204.664V27.5746H207.568V15.9724H211.733C212.268 15.9724 212.727 16.0497 213.147 16.1658C213.568 16.2818 213.95 16.4752 214.332 16.7846C214.714 17.0553 215.058 17.4807 215.44 17.9448C215.784 18.4475 216.166 19.0663 216.548 19.8011L220.522 27.4199L220.599 27.5359H223.999L219.376 18.9503ZM207.606 3.20997H213.415C215.211 3.20997 216.586 3.63538 217.542 4.48621C218.459 5.33704 218.955 6.49726 218.955 7.96687C218.955 8.77903 218.803 9.51383 218.535 10.1713C218.268 10.8288 217.886 11.3702 217.389 11.8343C216.892 12.2984 216.281 12.6464 215.593 12.9172C214.905 13.1492 214.102 13.3039 213.262 13.3039H207.645L207.606 3.20997Z" fill="black"/>
<path id="Vector_9" d="M64.2344 0.464111L82.2323 27.5746L83.7608 25.2542L67.3296 0.464111H64.2344Z" fill="black"/>
<path id="Vector_10" d="M104.012 0.464111L89.1475 22.8951L78.4099 6.53593H75.2383L89.1857 27.5746L107.145 0.464111H104.012Z" fill="black"/>
<path id="Vector_11" d="M100.154 0.464111H97.0204L87.582 14.7348L89.1487 17.0939L100.154 0.464111Z" fill="black"/>
</g>
<defs>
<clipPath id="clip0_1938_1560">
<rect width="224" height="28" fill="white"/>
</clipPath>
</defs>
</svg>
