<svg xmlns="http://www.w3.org/2000/svg" width="87" height="60"><g><path d="M 28 60 C 12.536 60 0 60 0 60 L 0 0 C 0 0 12.536 0 28 0 L 59 0 C 74.464 0 87 0 87 0 L 87 60 C 87 60 74.464 60 59 60 Z" fill="rgb(6,74,147)"></path></g><path d="M 68.978 25.024 C 69.035 24.925 68.975 24.853 68.85 24.853 C 68.194 24.853 67.333 24.854 66.65 24.854 C 66.487 24.854 66.403 24.874 66.326 25.024 C 66.074 25.505 63 30.086 62.427 30.976 C 62.331 31.112 62.213 31.093 62.2 30.939 C 62.142 30.41 61.683 29.803 60.96 29.512 C 60.409 29.29 59.87 29.25 59.31 29.323 C 58.299 29.459 57.398 29.989 56.606 30.587 C 55.413 31.49 54.383 32.659 53.054 33.523 C 52.328 33.994 51.334 34.404 50.669 33.792 C 50.068 33.237 50.135 32.004 51.056 31.051 C 51.153 30.951 51.269 31.035 51.251 31.125 C 51.164 31.556 51.271 31.985 51.6 32.285 C 52.002 32.643 52.577 32.684 53.069 32.445 C 53.649 32.159 53.99 31.606 54.09 30.979 C 54.244 30.006 53.491 29.148 52.549 29.08 C 51.784 29.026 51.05 29.291 50.334 29.878 C 49.976 30.174 49.772 30.392 49.462 30.831 C 49.387 30.939 49.271 30.95 49.274 30.79 C 49.31 29.545 48.792 28.844 47.757 28.821 C 46.953 28.802 46.094 29.236 45.425 29.766 C 44.692 30.352 44.05 31.129 43.363 31.858 C 43.277 31.948 43.203 31.944 43.179 31.77 C 43.158 30.944 42.949 30.145 42.565 29.578 C 42.429 29.38 42.144 29.282 41.903 29.416 C 41.792 29.476 41.406 29.653 41.125 29.878 C 40.986 29.992 40.932 30.157 40.993 30.369 C 41.364 31.602 41.282 33.004 40.779 34.188 C 40.318 35.272 39.42 36.25 38.365 36.581 C 37.67 36.8 36.948 36.692 36.501 36.08 C 35.887 35.234 36.135 33.764 37.05 32.542 C 37.858 31.468 39.026 30.785 40.191 30.345 C 40.328 30.292 40.356 30.205 40.318 30.089 C 40.254 29.898 40.153 29.639 40.112 29.52 C 40.005 29.238 39.706 29.191 39.34 29.231 C 38.494 29.329 37.73 29.618 36.976 30.019 C 35 31.071 34.01 33.108 33.575 34.197 C 33.366 34.72 33.188 35.047 32.957 35.336 C 32.645 35.725 32.254 36.08 31.539 36.704 C 31.475 36.761 31.427 36.881 31.481 36.992 C 31.554 37.142 31.926 37.664 32.03 37.711 C 32.147 37.768 32.282 37.688 32.336 37.649 C 32.836 37.312 33.435 36.778 33.728 36.415 C 33.83 36.291 33.936 36.343 33.99 36.532 C 34.264 37.502 34.98 38.294 35.969 38.625 C 37.781 39.232 39.66 38.353 41.078 36.822 C 41.979 35.849 42.305 35.223 42.65 34.798 C 43.235 34.076 44.39 32.462 45.766 31.426 C 46.27 31.044 46.867 30.753 47.167 30.946 C 47.408 31.101 47.486 31.462 47.1 32.161 C 45.697 34.708 43.633 37.701 43.255 38.426 C 43.186 38.552 43.246 38.651 43.379 38.651 C 44.112 38.648 44.84 38.65 45.506 38.65 C 45.617 38.644 45.667 38.594 45.722 38.516 C 46.799 36.841 47.812 35.246 48.897 33.597 C 48.958 33.5 49.014 33.575 49.017 33.618 C 49.039 34 49.133 34.524 49.362 34.867 C 49.772 35.502 50.354 35.775 50.999 35.779 C 51.512 35.785 51.772 35.708 52.325 35.502 C 52.775 35.336 53.137 35.118 53.414 34.921 C 53.576 34.809 53.605 34.996 53.601 35.025 C 53.352 36.355 53.659 37.931 54.989 38.585 C 56.579 39.364 58.327 38.268 59.333 37.279 C 59.431 37.183 59.537 37.193 59.547 37.399 C 59.568 37.777 59.74 38.225 60.054 38.539 C 60.897 39.38 62.597 39.047 64.304 37.733 C 65.399 36.892 66.546 35.704 67.582 34.445 C 67.62 34.397 67.649 34.318 67.575 34.239 C 67.417 34.075 67.188 33.887 67.032 33.743 C 66.961 33.682 66.856 33.7 66.796 33.745 C 65.735 34.749 64.779 35.894 63.398 36.841 C 62.932 37.164 62.19 37.425 61.857 36.976 C 61.727 36.802 61.742 36.561 61.87 36.245 C 62.273 35.246 68.647 25.594 68.978 25.024 Z M 60.552 33.119 C 60.565 33.193 60.662 33.264 60.756 33.298 C 60.79 33.31 60.808 33.334 60.771 33.412 C 60.499 33.99 60.25 34.323 59.911 34.825 C 59.598 35.288 59.246 35.65 58.82 35.998 C 58.177 36.527 57.284 37.104 56.546 36.716 C 56.218 36.547 56.076 36.091 56.083 35.721 C 56.1 34.682 56.563 33.616 57.421 32.568 C 58.467 31.287 59.624 30.623 60.383 30.986 C 61.168 31.358 60.917 32.262 60.566 32.972 C 60.54 33.027 60.538 33.074 60.552 33.119 Z" fill="rgb(255,255,255)"></path><path d="M 22.737 38.613 C 20.36 38.63 18.266 37.169 18.025 34.64 C 17.892 33.239 18.29 31.99 19.087 30.961 C 19.795 30.044 20.992 29.282 22.006 29.096 C 22.336 29.036 22.779 29.075 22.962 29.291 C 23.249 29.624 23.166 29.989 22.88 30.135 C 22.106 30.528 21.176 31.2 20.716 32.117 C 20.342 32.866 20.267 33.769 20.837 34.629 C 21.792 36.063 24.452 36.102 26.926 33.816 C 27.539 33.257 28.087 32.719 28.645 32.083 C 29.734 30.844 30.097 30.392 31.545 28.394 C 31.563 28.371 31.567 28.341 31.56 28.326 C 31.548 28.3 31.527 28.293 31.485 28.291 C 30.518 28.317 29.675 28.604 28.856 29.213 C 28.62 29.384 28.281 29.36 28.132 29.135 C 27.967 28.88 28.085 28.548 28.358 28.361 C 29.675 27.45 31.116 27.284 32.586 27.038 C 32.585 27.038 32.688 27.042 32.772 26.931 C 33.376 26.161 33.832 25.466 34.475 24.687 C 35.123 23.896 35.961 23.17 36.601 22.625 C 37.494 21.861 38.067 21.604 38.649 21.289 C 38.803 21.21 38.629 21.114 38.583 21.114 C 35.333 20.507 31.954 19.721 28.726 20.909 C 26.491 21.739 25.511 23.502 25.983 24.68 C 26.317 25.515 27.423 25.651 28.457 25.148 C 29.317 24.729 30.112 24.054 30.676 23.185 C 30.991 22.703 31.656 23.051 31.297 23.889 C 30.352 26.097 28.548 27.848 26.349 27.922 C 24.479 27.982 23.272 26.614 23.276 24.925 C 23.283 21.595 27.012 19.401 30.929 19.073 C 35.648 18.686 40.117 19.935 44.801 20.5 C 48.391 20.933 51.832 20.942 55.44 20.117 C 55.866 20.025 56.166 20.296 56.138 20.724 C 56.102 21.344 55.62 21.94 54.432 22.584 C 53.081 23.322 51.667 23.545 50.191 23.557 C 46.62 23.587 43.294 22.203 39.853 21.459 C 39.858 21.609 39.897 21.788 39.77 21.882 C 37.864 23.28 36.141 24.7 34.987 26.695 C 34.948 26.741 34.969 26.785 35.036 26.78 C 36.038 26.727 36.939 26.701 37.875 26.627 C 38.038 26.613 38.044 26.573 38.03 26.454 C 37.947 25.767 38.149 24.983 38.757 24.444 C 39.379 23.889 40.159 23.825 40.675 24.225 C 41.263 24.68 41.211 25.499 40.889 26.113 C 40.562 26.736 40.023 27.069 39.504 27.23 C 39.504 27.23 39.395 27.254 39.411 27.352 C 39.432 27.51 40.138 27.899 40.199 28.002 C 40.257 28.101 40.227 28.254 40.119 28.371 C 40.044 28.456 39.928 28.536 39.778 28.533 C 39.656 28.531 39.583 28.489 39.428 28.406 C 39.111 28.235 38.715 27.954 38.451 27.624 C 38.361 27.512 38.315 27.509 38.09 27.521 C 37.078 27.58 35.499 27.731 34.43 27.864 C 34.171 27.896 34.133 27.944 34.079 28.034 C 32.374 30.83 30.554 33.845 28.555 35.864 C 26.411 38.029 24.628 38.599 22.737 38.613 Z M 38.985 26.189 C 39.012 26.332 39.068 26.36 39.133 26.348 C 39.458 26.283 39.814 26.017 40.024 25.71 C 40.216 25.431 40.306 25.027 40.115 24.866 C 39.945 24.721 39.669 24.762 39.464 24.942 C 39.056 25.3 38.932 25.809 38.985 26.189 Z" fill="rgb(255,255,255)"></path></svg>