<svg width="27" height="11" viewBox="0 0 27 11" fill="none" xmlns="http://www.w3.org/2000/svg">
<path fill-rule="evenodd" clip-rule="evenodd" d="M0 11V0H7.01002L7.22594 3.00854H3.30029V4.44237H6.49874V7.4447H3.27748V11H0ZM27 10.9674L23.4923 5.26038L26.679 0H23.1685L21.7129 2.36787L20.2817 0H16.6502L19.8971 5.29686L16.4579 10.974L19.9859 10.9724L21.6697 8.19247L23.3713 10.9674H27Z" fill="white"/>
<path fill-rule="evenodd" clip-rule="evenodd" d="M13.6802 7.71051V3.31548C13.6802 2.81529 13.219 2.36554 12.6984 2.36554C12.1802 2.36554 11.7597 2.81567 11.7597 3.31548L11.7577 7.69654C11.7577 8.19829 12.1802 8.60458 12.6988 8.60458C13.219 8.60458 13.6806 8.21226 13.6806 7.70974L13.6802 7.71051ZM7.13664 5.51338C7.13664 2.56189 9.6193 0.166082 12.6821 0.166082C15.7477 0.166082 18.2312 2.56189 18.2312 5.51338C18.2312 8.46915 15.7477 10.863 12.6821 10.863C9.6193 10.863 7.13664 8.46915 7.13664 5.51338Z" fill="white"/>
</svg>
