<svg width="26" height="20" viewBox="0 0 26 20" fill="none" xmlns="http://www.w3.org/2000/svg">
<path d="M11.1944 15.4138C11.2225 15.3903 11.231 15.351 11.2162 15.3173C9.26872 11.1044 6.84096 7.13458 3.98205 3.48805C3.98205 3.48805 1.70945 5.66122 1.87055 7.84223C1.94794 8.85852 2.42174 9.80246 3.18819 10.4673C5.17049 12.4153 9.97097 14.874 11.0878 15.4303C11.1228 15.4499 11.1672 15.4428 11.1952 15.4146M10.4527 17.0809C10.4453 17.0594 10.4314 17.0408 10.413 17.0276C10.3946 17.0144 10.3726 17.0072 10.35 17.0072V17.0056L2.35698 17.2865C3.22322 18.8446 4.69184 20.0543 6.20406 19.6833C7.25319 19.4189 9.63163 17.747 10.4068 17.1829V17.1806C10.4667 17.1257 10.4457 17.0817 10.4457 17.0817M10.5734 16.3568C10.6123 16.2941 10.5422 16.2391 10.5422 16.2391L10.543 16.236C7.04072 13.851 0.229147 10.1849 0.229147 10.1849C-0.139073 11.3338 -0.0613483 12.5808 0.446643 13.6742C0.954635 14.7677 1.85509 15.6262 2.96638 16.0767C3.45453 16.2717 3.97067 16.3862 4.49494 16.4157C4.61479 16.4392 9.24872 16.418 10.4893 16.4125C10.5243 16.4086 10.5555 16.3874 10.5718 16.356M11.1042 0.00941526C10.7555 0.0407967 9.81687 0.255759 9.81687 0.255759C8.57706 0.574281 7.58863 1.51494 7.20026 2.74274C6.98091 3.58063 6.98467 4.46202 7.21116 5.29798C7.91707 8.45653 11.3937 13.6486 12.1393 14.7375C12.1922 14.7909 12.2358 14.7713 12.2358 14.7713C12.2809 14.7603 12.3121 14.7179 12.3097 14.6708H12.3113C13.46 3.08088 11.1049 0 11.1049 0M13.7488 14.7681C13.7924 14.7862 13.8422 14.7673 13.864 14.725C14.6313 13.6062 18.0869 8.44319 18.789 5.29798C18.9991 4.46009 19.0038 3.58298 18.8022 2.74274C18.6086 2.13568 18.2643 1.58857 17.802 1.15331C17.3397 0.718059 16.7747 0.409101 16.1607 0.255759C16.1607 0.255759 15.5497 0.100422 14.9022 0.00863115C14.9022 0.00863115 12.5331 3.08245 13.685 14.6795H13.6865C13.6873 14.7187 13.7114 14.7548 13.7488 14.7681ZM15.64 17.0143C15.64 17.0143 15.5622 17.0237 15.5497 17.0755C15.5404 17.1147 15.5521 17.157 15.5809 17.1853C16.3436 17.7384 18.6629 19.382 19.7836 19.6903C19.7836 19.6903 21.85 20.3995 23.6439 17.2928L15.6416 17.0103L15.64 17.0143ZM25.7733 10.1668C25.7733 10.1668 18.9789 13.8416 15.4649 16.2313C15.4473 16.2446 15.434 16.2629 15.4269 16.2839C15.4199 16.3049 15.4193 16.3276 15.4252 16.349C15.4252 16.349 15.4587 16.4094 15.5077 16.4094V16.411L21.6453 16.3953C22.1171 16.3578 22.5809 16.25 23.0213 16.0752C24.1693 15.6217 25.0931 14.7305 25.5943 13.5945C26.0647 12.5114 26.1283 11.2929 25.7733 10.166M14.8228 15.4224C14.8539 15.446 14.8967 15.4491 14.9318 15.4303C16.0759 14.8544 20.8413 12.4122 22.8143 10.4744C23.5804 9.80442 24.0536 8.85694 24.1311 7.83753C24.2751 5.58198 22.0297 3.49511 22.0297 3.49511C19.1766 7.13213 16.7528 11.0914 14.8072 15.293H14.8096C14.7886 15.3361 14.7971 15.3871 14.8314 15.4216" fill="white"/>
</svg>
