<svg width="30" height="28" viewBox="0 0 30 28" fill="none" xmlns="http://www.w3.org/2000/svg">
<path fill-rule="evenodd" clip-rule="evenodd" d="M6.8773 28V9.10748H0.383856V28H6.8773ZM3.63055 6.52802C5.89495 6.52802 7.30435 5.07729 7.30435 3.26429C7.26215 1.41048 5.89495 1.90735e-06 3.67351 1.90735e-06C1.45229 1.90735e-06 0 1.41048 0 3.26429C0 5.07729 1.4091 6.52802 3.58823 6.52802H3.63055Z" fill="white"/>
<path fill-rule="evenodd" clip-rule="evenodd" d="M9.73828 28H16.1193V17.3719C16.1193 16.8031 16.1608 16.2349 16.3293 15.8283C16.7906 14.6918 17.8405 13.5148 19.6033 13.5148C21.9123 13.5148 22.836 15.26 22.836 17.8185V28H29.2165V17.0875C29.2165 11.2418 26.0685 8.52174 21.8702 8.52174C18.4278 8.52174 16.9165 10.4292 16.0769 11.7284H16.1195V8.96833H9.73845C9.82219 10.7541 9.73828 28 9.73828 28Z" fill="white"/>
</svg>
