<svg width="1015" height="1015" viewBox="0 0 1015 1015" fill="none" xmlns="http://www.w3.org/2000/svg">
<g clip-path="url(#clip0_885_2)">
<path d="M350 0H385V35H350V0ZM490 0H525V35H490V0ZM525 0H560V35H525V0ZM630 0H665V35H630V0ZM665 0H700V35H665V0ZM315 35H350V70H315V35ZM350 35H385V70H350V35ZM385 35H420V70H385V35ZM420 35H455V70H420V35ZM525 35H560V70H525V35ZM560 35H595V70H560V35ZM385 70H420V105H385V70ZM490 70H525V105H490V70ZM595 70H630V105H595V70ZM665 70H700V105H665V70ZM700 70H735V105H700V70ZM315 105H350V140H315V105ZM350 105H385V140H350V105ZM385 105H420V140H385V105ZM490 105H525V140H490V105ZM630 105H665V140H630V105ZM455 140H490V175H455V140ZM490 140H525V175H490V140ZM525 140H560V175H525V140ZM560 140H595V175H560V140ZM595 140H630V175H595V140ZM630 140H665V175H630V140ZM700 140H735V175H700V140ZM280 175H315V210H280V175ZM315 175H350V210H315V175ZM350 175H385V210H350V175ZM385 175H420V210H385V175ZM420 175H455V210H420V175ZM490 175H525V210H490V175ZM525 175H560V210H525V175ZM595 175H630V210H595V175ZM630 175H665V210H630V175ZM665 175H700V210H665V175ZM280 210H315V245H280V210ZM350 210H385V245H350V210ZM420 210H455V245H420V210ZM490 210H525V245H490V210ZM560 210H595V245H560V210ZM630 210H665V245H630V210ZM700 210H735V245H700V210ZM385 245H420V280H385V245ZM420 245H455V280H420V245ZM595 245H630V280H595V245ZM630 245H665V280H630V245ZM700 245H735V280H700V245ZM0 280H35V315H0V280ZM105 280H140V315H105V280ZM175 280H210V315H175V280ZM210 280H245V315H210V280ZM280 280H315V315H280V280ZM315 280H350V315H315V280ZM385 280H420V315H385V280ZM455 280H490V315H455V280ZM525 280H560V315H525V280ZM560 280H595V315H560V280ZM665 280H700V315H665V280ZM735 280H770V315H735V280ZM805 280H840V315H805V280ZM0 315H35V350H0V315ZM70 315H105V350H70V315ZM140 315H175V350H140V315ZM175 315H210V350H175V315ZM245 315H280V350H245V315ZM280 315H315V350H280V315ZM315 315H350V350H315V315ZM385 315H420V350H385V315ZM420 315H455V350H420V315ZM560 315H595V350H560V315ZM700 315H735V350H700V315ZM735 315H770V350H735V315ZM770 315H805V350H770V315ZM875 315H910V350H875V315ZM980 315H1015V350H980V315ZM175 350H210V385H175V350ZM210 350H245V385H210V350ZM245 350H280V385H245V350ZM280 350H315V385H280V350ZM315 350H350V385H315V350ZM350 350H385V385H350V350ZM420 350H455V385H420V350ZM560 350H595V385H560V350ZM665 350H700V385H665V350ZM770 350H805V385H770V350ZM875 350H910V385H875V350ZM910 350H945V385H910V350ZM945 350H980V385H945V350ZM0 385H35V420H0V385ZM35 385H70V420H35V385ZM70 385H105V420H70V385ZM105 385H140V420H105V385ZM140 385H175V420H140V385ZM245 385H280V420H245V385ZM350 385H385V420H350V385ZM385 385H420V420H385V385ZM420 385H455V420H420V385ZM455 385H490V420H455V385ZM560 385H595V420H560V385ZM630 385H665V420H630V385ZM665 385H700V420H665V385ZM700 385H735V420H700V385ZM805 385H840V420H805V385ZM840 385H875V420H840V385ZM910 385H945V420H910V385ZM945 385H980V420H945V385ZM140 420H175V455H140V420ZM175 420H210V455H175V420ZM210 420H245V455H210V420ZM245 420H280V455H245V420ZM280 420H315V455H280V420ZM350 420H385V455H350V420ZM490 420H525V455H490V420ZM560 420H595V455H560V420ZM595 420H630V455H595V420ZM630 420H665V455H630V420ZM700 420H735V455H700V420ZM735 420H770V455H735V420ZM770 420H805V455H770V420ZM875 420H910V455H875V420ZM945 420H980V455H945V420ZM980 420H1015V455H980V420ZM0 455H35V490H0V455ZM35 455H70V490H35V455ZM105 455H140V490H105V455ZM245 455H280V490H245V455ZM280 455H315V490H280V455ZM315 455H350V490H315V455ZM455 455H490V490H455V455ZM665 455H700V490H665V455ZM700 455H735V490H700V455ZM735 455H770V490H735V455ZM805 455H840V490H805V455ZM35 490H70V525H35V490ZM105 490H140V525H105V490ZM175 490H210V525H175V490ZM210 490H245V525H210V490ZM245 490H280V525H245V490ZM315 490H350V525H315V490ZM385 490H420V525H385V490ZM420 490H455V525H420V490ZM455 490H490V525H455V490ZM490 490H525V525H490V490ZM735 490H770V525H735V490ZM875 490H910V525H875V490ZM910 490H945V525H910V490ZM945 490H980V525H945V490ZM980 490H1015V525H980V490ZM0 525H35V560H0V525ZM70 525H105V560H70V525ZM105 525H140V560H105V525ZM245 525H280V560H245V525ZM420 525H455V560H420V525ZM525 525H560V560H525V525ZM595 525H630V560H595V525ZM630 525H665V560H630V525ZM735 525H770V560H735V525ZM770 525H805V560H770V525ZM875 525H910V560H875V525ZM945 525H980V560H945V525ZM0 560H35V595H0V560ZM35 560H70V595H35V560ZM105 560H140V595H105V560ZM140 560H175V595H140V560ZM175 560H210V595H175V560ZM210 560H245V595H210V560ZM245 560H280V595H245V560ZM315 560H350V595H315V560ZM350 560H385V595H350V560ZM420 560H455V595H420V560ZM455 560H490V595H455V560ZM525 560H560V595H525V560ZM595 560H630V595H595V560ZM665 560H700V595H665V560ZM735 560H770V595H735V560ZM805 560H840V595H805V560ZM945 560H980V595H945V560ZM35 595H70V630H35V595ZM140 595H175V630H140V595ZM245 595H280V630H245V595ZM315 595H350V630H315V595ZM385 595H420V630H385V595ZM420 595H455V630H420V595ZM455 595H490V630H455V595ZM490 595H525V630H490V595ZM560 595H595V630H560V595ZM630 595H665V630H630V595ZM770 595H805V630H770V595ZM805 595H840V630H805V595ZM875 595H910V630H875V595ZM980 595H1015V630H980V595ZM0 630H35V665H0V630ZM210 630H245V665H210V630ZM315 630H350V665H315V630ZM350 630H385V665H350V630ZM490 630H525V665H490V630ZM595 630H630V665H595V630ZM630 630H665V665H630V630ZM770 630H805V665H770V630ZM805 630H840V665H805V630ZM945 630H980V665H945V630ZM980 630H1015V665H980V630ZM70 665H105V700H70V665ZM140 665H175V700H140V665ZM175 665H210V700H175V665ZM245 665H280V700H245V665ZM420 665H455V700H420V665ZM490 665H525V700H490V665ZM560 665H595V700H560V665ZM595 665H630V700H595V665ZM665 665H700V700H665V665ZM700 665H735V700H700V665ZM945 665H980V700H945V665ZM980 665H1015V700H980V665ZM0 700H35V735H0V700ZM70 700H105V735H70V700ZM105 700H140V735H105V700ZM175 700H210V735H175V700ZM210 700H245V735H210V700ZM280 700H315V735H280V700ZM315 700H350V735H315V700ZM385 700H420V735H385V700ZM700 700H735V735H700V700ZM735 700H770V735H735V700ZM770 700H805V735H770V700ZM805 700H840V735H805V700ZM840 700H875V735H840V700ZM910 700H945V735H910V700ZM280 735H315V770H280V735ZM315 735H350V770H315V735ZM350 735H385V770H350V735ZM490 735H525V770H490V735ZM560 735H595V770H560V735ZM665 735H700V770H665V735ZM700 735H735V770H700V735ZM840 735H875V770H840V735ZM910 735H945V770H910V735ZM945 735H980V770H945V735ZM980 735H1015V770H980V735ZM315 770H350V805H315V770ZM350 770H385V805H350V770ZM560 770H595V805H560V770ZM595 770H630V805H595V770ZM700 770H735V805H700V770ZM770 770H805V805H770V770ZM840 770H875V805H840V770ZM945 770H980V805H945V770ZM280 805H315V840H280V805ZM350 805H385V840H350V805ZM385 805H420V840H385V805ZM490 805H525V840H490V805ZM525 805H560V840H525V805ZM560 805H595V840H560V805ZM630 805H665V840H630V805ZM700 805H735V840H700V805ZM840 805H875V840H840V805ZM875 805H910V840H875V805ZM910 805H945V840H910V805ZM980 805H1015V840H980V805ZM350 840H385V875H350V840ZM385 840H420V875H385V840ZM560 840H595V875H560V840ZM595 840H630V875H595V840ZM700 840H735V875H700V840ZM735 840H770V875H735V840ZM770 840H805V875H770V840ZM805 840H840V875H805V840ZM840 840H875V875H840V840ZM945 840H980V875H945V840ZM980 840H1015V875H980V840ZM280 875H315V910H280V875ZM350 875H385V910H350V875ZM385 875H420V910H385V875ZM420 875H455V910H420V875ZM455 875H490V910H455V875ZM665 875H700V910H665V875ZM770 875H805V910H770V875ZM840 875H875V910H840V875ZM875 875H910V910H875V875ZM910 875H945V910H910V875ZM945 875H980V910H945V875ZM490 910H525V945H490V910ZM560 910H595V945H560V910ZM735 910H770V945H735V910ZM840 910H875V945H840V910ZM875 910H910V945H875V910ZM910 910H945V945H910V910ZM980 910H1015V945H980V910ZM315 945H350V980H315V945ZM350 945H385V980H350V945ZM385 945H420V980H385V945ZM525 945H560V980H525V945ZM560 945H595V980H560V945ZM595 945H630V980H595V945ZM665 945H700V980H665V945ZM700 945H735V980H700V945ZM840 945H875V980H840V945ZM945 945H980V980H945V945ZM280 980H315V1015H280V980ZM315 980H350V1015H315V980ZM490 980H525V1015H490V980ZM595 980H630V1015H595V980ZM700 980H735V1015H700V980ZM805 980H840V1015H805V980ZM840 980H875V1015H840V980ZM945 980H980V1015H945V980Z" fill="black"/>
<path d="M208.25 0H0V245H245V0H208.25ZM208.25 208.25H36.75V36.75H208.25V208.25Z" fill="black"/>
<path d="M978.25 0H770V245H1015V0H978.25ZM978.25 208.25H806.75V36.75H978.25V208.25Z" fill="black"/>
<path d="M208.25 770H0V1015H245V770H208.25ZM208.25 978.25H36.75V806.75H208.25V978.25ZM70 70H175V175H70V70ZM840 70H945V175H840V70Z" fill="black"/>
<path d="M70 840H175V945H70V840Z" fill="black"/>
</g>
<defs>
<clipPath id="clip0_885_2">
<rect width="1015" height="1015" fill="white"/>
</clipPath>
</defs>
</svg>
