<svg width="352" height="352" viewBox="0 0 352 352" fill="none" xmlns="http://www.w3.org/2000/svg">
<path d="M85.3605 248.16C86.0293 248.266 89.6901 248.442 89.6901 247.808C89.6901 247.438 89.0213 247.456 89.0213 247.456C89.1093 244.64 92.6821 243.936 95.2341 245.414C95.9375 245.819 96.5877 246.309 97.1701 246.875C93.5621 247.069 88.7749 249.533 89.0917 253.106C89.2735 254.037 89.6642 254.916 90.2341 255.675C90.8044 256.433 91.5388 257.054 92.3829 257.488C93.438 258.277 94.6396 258.849 95.9176 259.169C97.1957 259.49 98.525 259.551 99.8277 259.354C102.148 258.763 104.189 257.381 105.601 255.446C108.791 255.548 111.912 254.505 114.401 252.507C114.505 252.423 114.593 252.319 114.656 252.202C114.72 252.083 114.758 251.954 114.77 251.821C114.77 251.205 114.77 251.24 111.25 247.333C111.15 247.221 111.025 247.136 110.886 247.084C110.746 247.031 110.596 247.012 110.448 247.029C110.299 247.045 110.157 247.098 110.033 247.182C109.91 247.265 109.808 247.378 109.737 247.509C109.676 247.585 109.623 247.668 109.578 247.755C109.298 248.28 108.847 248.692 108.298 248.924C107.75 249.154 107.139 249.189 106.569 249.022C104.809 248.512 102.538 243.848 98.4021 241.067C94.7941 238.638 89.9541 237.917 86.5397 240.803C85.07 242.064 84.0252 243.748 83.5477 245.626C83.3576 246.205 83.3954 246.834 83.6533 247.386C84.1157 247.833 84.7189 248.107 85.3605 248.16ZM91.9781 254.69C91.4956 254.345 91.1605 253.831 91.0399 253.251C90.9192 252.67 91.0216 252.066 91.3269 251.557C92.1074 250.477 93.1919 249.657 94.4421 249.198C93.4335 250.908 92.6076 252.718 91.9781 254.602V254.69ZM108.557 251.909C108.98 250.642 108.557 251.082 109.261 250.765C109.794 250.499 110.277 250.141 110.687 249.709L112.289 251.61C110.962 252.45 109.496 253.047 107.959 253.37C108.135 252.912 108.417 252.208 108.557 251.821V251.909ZM102.186 247.421C103.858 249.515 105.249 251.381 107.801 251.17C107.436 251.928 107.142 252.717 106.921 253.528C105.636 253.616 105.46 253.317 104.949 253.528C103.946 253.915 102.292 257.523 98.2789 257.506C98.5285 256.947 98.6888 256.353 98.7541 255.746C99.8895 255.517 100.953 255.015 101.852 254.285C102.237 253.95 102.487 253.488 102.556 252.982C102.556 252.366 102.345 251.574 101.042 250.536C101.527 249.508 101.91 248.436 102.186 247.333V247.421ZM96.2725 254.074C94.7237 253.246 97.3637 251.786 99.0709 251.838C99.4629 251.841 99.8466 251.956 100.177 252.167C100.507 252.378 100.77 252.68 100.937 253.035C100.701 253.413 100.391 253.74 100.025 253.994C99.6597 254.25 99.246 254.427 98.8092 254.515C98.3727 254.604 97.9224 254.603 97.4863 254.512C97.0498 254.421 96.637 254.242 96.2725 253.986V254.074ZM98.3493 243.302C99.5442 244.319 100.63 245.457 101.588 246.699C101.031 247.714 100.605 248.796 100.321 249.92C99.5807 249.707 98.8053 249.65 98.0424 249.75C97.2796 249.85 96.5452 250.105 95.8853 250.501C92.6645 252.261 93.4213 256.115 97.8917 255.675C97.629 256.181 97.4335 256.719 97.3109 257.277C95.526 256.92 93.8572 256.128 92.4533 254.971C93.7007 253.032 94.6722 250.929 95.3397 248.723C96.0239 248.409 96.764 248.235 97.5167 248.21C98.2693 248.186 99.0191 248.312 99.7221 248.582L100.092 247.192L99.7045 247.016C98.8773 246.453 98.5077 246.013 97.5573 245.256C97.91 244.613 98.1762 243.927 98.3493 243.214V243.302ZM91.5205 240.486C93.7231 240.526 95.8556 241.267 97.6101 242.598C97.2949 243.316 97.0588 244.065 96.9061 244.834C96.0626 244.172 95.0671 243.729 94.0101 243.549C92.9532 243.367 91.8677 243.452 90.8517 243.795C91.2229 242.727 91.4479 241.614 91.5205 240.486ZM87.4901 241.859C88.4658 241.1 89.6383 240.636 90.8693 240.522C90.3231 241.705 89.9839 242.972 89.8661 244.27C89.3416 244.584 88.9125 245.036 88.6242 245.576C88.3359 246.114 88.1992 246.721 88.2293 247.333C86.996 247.4 85.7621 247.215 84.6037 246.787C84.8655 244.832 85.8904 243.06 87.4549 241.859H87.4901ZM61.1957 238.92C58.0277 237.547 50.9877 241.613 49.7029 243.795C49.517 244.276 49.517 244.81 49.7029 245.291C50.8117 249.498 61.1605 264.352 63.0789 266.658C63.4133 267.08 63.8709 266.499 63.5717 266.006C62.6565 264.493 62.7621 267.538 67.4437 252.384C67.8773 252.214 68.2812 251.976 68.6405 251.68C68.8037 251.498 68.894 251.263 68.894 251.02C68.894 250.776 68.8037 250.54 68.6405 250.36C68.4805 250.162 68.2975 249.984 68.0949 249.832L69.2037 245.731L73.6037 248.16C72.7138 250.383 72.0648 252.696 71.6677 255.059C69.893 255.699 68.23 256.614 66.7397 257.77C65.7013 258.914 67.3381 261.026 68.3589 262.293C69.3797 263.56 70.2421 264.422 70.4357 264.616C70.6293 264.81 71.2453 264.616 71.1925 264.299C71.0808 264.044 70.9324 263.808 70.7525 263.595C69.7986 262.111 68.98 260.544 68.3061 258.914C69.6738 258.095 71.118 257.412 72.6181 256.872C73.1637 256.678 74.8533 256.15 75.3109 256.432C77.5688 257.621 79.924 258.616 82.3509 259.406C82.4488 259.453 82.5615 259.459 82.6636 259.422C82.766 259.386 82.8498 259.311 82.8965 259.213C82.9432 259.115 82.949 259.002 82.9125 258.9C82.8764 258.798 82.8008 258.714 82.7029 258.667L79.6581 256.819C80.3061 255.349 80.7218 253.788 80.8901 252.19L88.4053 256.256C88.8629 256.52 89.2149 255.798 88.8805 255.605C88.5461 255.411 65.7365 240.909 61.1957 238.92ZM58.5205 240.786C59.1346 240.601 59.7893 240.601 60.4037 240.786C60.8085 240.962 61.7941 241.49 63.1317 242.229C62.6805 243.474 62.3733 244.767 62.2165 246.083C61.0373 245.414 60.3333 244.904 59.4005 245.062C58.892 245.177 58.4162 245.405 58.0101 245.731C58.1861 244.358 58.3445 243.302 58.5205 240.786ZM51.4805 244.658C53.3058 242.916 55.5202 241.638 57.9397 240.926C57.0002 245.078 56.3416 249.288 55.9685 253.528C54.1938 250.718 52.6965 247.74 51.4981 244.64L51.4805 244.658ZM59.4709 259.459C58.5029 257.858 57.4469 256.08 56.4437 254.338C57.0421 251.821 57.2357 250.659 57.6053 248.283C58.5682 249.954 59.6815 251.532 60.9317 253C60.222 255.096 59.7381 257.26 59.4885 259.459H59.4709ZM62.5509 264.528C61.9173 263.525 61.1077 262.17 60.0517 260.427C60.7199 258.218 61.1621 255.948 61.3717 253.651C61.7589 254.584 65.2085 253.246 66.1413 252.894C65.4549 255.059 63.0613 262.592 62.5685 264.528H62.5509ZM62.0229 253.106C60.932 251.218 59.9679 249.26 59.1365 247.245L59.6821 246.946C59.9285 247.086 65.9477 250.642 66.3877 250.923C65.0159 251.796 63.5596 252.526 62.0405 253.106H62.0229ZM67.3029 249.234C65.9829 248.354 64.1877 247.28 62.8149 246.488C63.2844 245.241 63.5922 243.94 63.7301 242.616L68.7285 245.432C68.6405 246.101 68.0421 247.474 67.4085 249.234H67.3029ZM78.9541 256.274L76.2437 254.637C75.0392 254.162 73.6991 254.162 72.4949 254.637C73.1772 252.579 73.6719 250.464 73.9733 248.318L80.3445 251.838C79.6936 253.274 79.2604 254.798 79.0597 256.362L78.9541 256.274Z" fill="black"/>
<path d="M342.058 262.539C339.206 235.998 314.635 195.184 299.957 172.885C308.153 173.54 316.379 173.746 324.595 173.501C326.938 173.501 333.062 173.078 334.243 172.85C334.928 172.709 335.034 172.058 333.997 172.022C332.957 171.987 325.565 171.635 324.563 171.618H306.662C303.917 171.723 299.622 171.97 299.376 171.97C294.096 163.926 290.418 158.893 290.382 158.875C290.343 158.834 290.293 158.802 290.24 158.781C290.186 158.761 290.129 158.752 290.07 158.755C290.013 158.759 289.957 158.774 289.906 158.802C289.854 158.828 289.811 158.865 289.775 158.91C289.74 158.956 289.715 159.009 289.701 159.064C289.687 159.122 289.686 159.179 289.698 159.236C289.708 159.292 289.731 159.346 289.764 159.393C289.797 159.44 289.84 159.48 289.89 159.509C290.699 160.16 326.269 212.133 337.146 247.931C341.459 262.134 344.01 279.963 330.106 284.891C297.088 296.683 38.4913 300.52 14.0451 286.651C10.6483 284.733 9.85628 280.738 10.5251 275.352C11.5635 267.872 15.5938 257.752 20.4514 246.418C25.925 251.698 71.3329 293.392 78.6897 291.826C86.0465 290.259 127.424 271.04 129.131 267.362C130.123 264.807 130.648 262.093 130.68 259.354C130.889 259.066 130.986 258.714 130.953 258.361C130.921 258.009 130.761 257.679 130.504 257.435C127.776 254.725 73.6561 211.816 70.1713 211.939C67.7425 212.045 63.3425 214.544 61.2481 215.776C60.569 214.664 59.5582 213.796 58.3582 213.29C57.1578 212.784 55.8295 212.67 54.5601 212.96C53.3636 213.443 52.2919 214.192 51.4263 215.148C50.5604 216.106 49.923 217.247 49.5617 218.486C49.5815 218.582 49.6337 218.667 49.7089 218.728C49.7841 218.79 49.8785 218.822 49.9754 218.822C50.0727 218.822 50.1668 218.79 50.242 218.728C50.3175 218.667 50.3694 218.582 50.3889 218.486C51.4478 216.696 53.1259 215.356 55.1057 214.72C55.9294 214.594 56.7713 214.704 57.5348 215.037C58.298 215.37 58.9511 215.914 59.4177 216.603L39.8465 224.963C38.8074 223.896 37.5102 223.112 36.0801 222.693C32.7361 221.813 30.4834 224.013 29.1458 227.234C29.1165 227.326 29.1199 227.426 29.1555 227.517C29.1912 227.608 29.257 227.683 29.3418 227.729C29.4266 227.778 29.5251 227.794 29.6209 227.778C29.7167 227.762 29.8038 227.712 29.8675 227.638C32.1201 224.382 34.7249 223.274 37.8401 225.878C34.0737 227.55 28.8114 229.926 25.1154 231.757C25.3794 231.334 63.3601 162.554 63.3601 162.378C65.0321 159.28 68.3937 153.736 71.8609 153.014C73.4282 152.673 75.027 152.495 76.6305 152.486C74.1841 156.534 54.3313 189.446 54.2961 194.093C54.2961 199.373 55.2113 198.546 58.0273 199.373C60.8433 200.2 218.416 199.232 218.698 199.232C221.426 199.232 232.091 198.88 233.077 198.158C236.139 195.906 235.453 192.544 234.115 189.006C233.798 188.162 232.197 184.659 230.05 179.978C239.29 177.197 246.242 180.734 246.875 195.818C247.509 208.859 242.37 212.837 232.531 212.274C224.629 211.816 219.173 209.493 217.448 212.573C215.512 216.005 220.862 223.714 223.186 226.917C222.851 226.917 208.12 226.618 204.406 226.459C199.174 226.257 193.934 226.321 188.707 226.653C185.108 226.732 181.529 227.222 178.042 228.114C176.722 228.765 175.014 232.162 174.293 233.587C172.867 236.386 166.373 253.95 164.578 259.019C163.522 261.941 159.949 271.621 162.342 273.328C162.254 275.211 162.554 277.728 164.208 278.608C165.862 279.488 188.602 280.122 190.344 280.157C193.424 280.245 224.558 280.65 244.429 279.77C264.299 278.89 272.976 276.989 272.466 277.042C272.97 276.893 273.423 276.608 273.775 276.214C274.126 275.823 274.362 275.342 274.454 274.824C274.726 273.523 274.641 272.174 274.208 270.917C276.426 266.605 259.653 230.806 255.006 228.29C254.732 228.136 254.424 228.051 254.109 228.043C253.176 228.043 232.302 227.163 224.189 226.899C222.429 224.418 216.709 215.072 218.909 213.083C222.253 210.162 250.184 224.805 248.688 195.659C247.914 182.477 241.842 174.75 229.522 179.221C228.448 176.898 219.437 157.643 217.026 152.522C226.367 153.081 235.737 152.875 245.045 151.906C245.178 153.549 245.651 155.146 246.432 156.596C247.214 158.047 248.288 159.321 249.586 160.336C256.626 165.616 284.645 164.824 289.731 158.365C291.157 156.416 292.142 154.18 292.619 151.813C293.096 149.446 293.053 147.004 292.494 144.654C292.962 144.356 293.326 143.92 293.533 143.405C293.814 142.859 293.533 142.173 292.318 141.926C290.752 141.692 289.168 141.597 287.584 141.645C287.584 140.202 287.672 137.509 287.584 134.446C287.742 134.341 288.886 132.968 289.01 132.81C290.412 131.171 291.521 129.301 292.283 127.283C292.864 125.646 293.093 123.763 291.562 122.848C289.203 121.563 287.549 123.922 286.757 126.562C286.018 122.496 284.31 116.53 280.227 117.128C273.293 118.184 278.08 134.992 280.333 141.645C278.354 141.366 276.345 141.366 274.366 141.645C276.566 136.118 277.693 128.973 272.043 127.899C271.187 127.71 270.294 127.776 269.474 128.088C268.655 128.401 267.945 128.947 267.432 129.659C267.319 129.261 267.107 128.898 266.814 128.604C266.524 128.31 266.162 128.095 265.765 127.979C265.367 127.863 264.946 127.849 264.543 127.94C264.139 128.031 263.764 128.223 263.454 128.498C260.867 130.363 262.346 134.64 265.355 136.048C265.197 137.857 265.197 139.677 265.355 141.486C263.482 141.26 261.586 141.301 259.723 141.61C259.619 137.312 259.148 133.032 258.315 128.814C259.384 128.053 260.285 127.078 260.957 125.951C261.63 124.824 262.061 123.57 262.222 122.267C262.469 119.926 261.642 117.973 259.688 117.462C257.242 116.829 255.798 118.536 255.376 120.982C253.211 117.99 248.97 116.917 246.91 120.349C240.31 113.485 237.125 117.322 238.797 120.349C240.046 122.672 243.302 123.974 245.837 124.696C245.837 128.638 247.597 131.965 249.779 135.362C251.24 137.65 252.877 139.85 254.144 141.469C251.406 141.381 248.665 141.558 245.96 141.997C244.306 142.437 244.042 143.634 245.573 144.496C245.089 146.559 244.911 148.682 245.045 150.797C235.591 150.294 226.112 150.517 216.691 151.466C216.093 150.181 214.315 146.432 214.104 145.992C213.893 145.552 215.582 140.448 217.958 92.9984C228.87 92.0832 277.939 93.1744 282.445 91.432C282.703 91.3392 282.932 91.1795 283.109 90.9693C283.285 90.7591 283.403 90.5056 283.448 90.2352C284.944 85.3248 285.965 43.12 283.448 39.1952C282.832 38.2272 280.632 37.928 279.418 37.752C263.736 35.464 198.299 36.4496 194.938 38.2272C191.576 40.0048 193.002 57.3584 193.635 60.808C159.65 59.7168 81.1713 61.8464 73.7793 64.6096C72.0193 65.2432 71.3681 67.6544 71.0161 69.4672C68.0945 84.5504 76.2961 133.091 79.0417 148.086C78.8657 148.086 79.0417 148.086 76.8945 151.43C75.0772 151.296 73.25 151.391 71.4561 151.712C67.4433 152.328 63.7473 157.872 61.7057 161.322C61.6177 161.498 56.4257 170.122 55.6513 171.53C51.2337 170.843 30.6946 171.107 28.0898 171.248C25.485 171.389 22.8098 171.582 20.4514 171.758C20.029 171.758 19.9938 172.568 20.4514 172.586C25.3794 172.885 27.1922 172.99 31.0114 173.043C40.3569 173.184 54.1377 173.571 54.5777 173.518C53.6625 175.12 40.1105 199.232 38.2977 202.646C30.4131 217.43 24.2178 230.965 23.8482 232.109C21.8024 233.039 19.8808 234.222 18.1282 235.629C17.563 237.179 17.2251 238.804 17.1251 240.451C17.0371 243.285 18.0578 243.971 19.6242 245.555C15.4212 254.561 11.9659 263.897 9.29308 273.469C8.42054 277.341 8.38451 281.355 9.18748 285.243C9.90611 289.13 11.2494 292.874 13.1651 296.331C14.0256 297.205 15.1408 297.785 16.3506 297.986C20.9794 299.288 35.3233 300.96 40.1281 301.506C39.7662 303.656 39.6657 305.843 39.8289 308.018C39.834 310.259 40.1598 312.487 40.7969 314.635C40.803 314.688 40.819 314.74 40.8446 314.786C40.8705 314.833 40.9051 314.874 40.9467 314.908C40.9886 314.942 41.0363 314.967 41.0874 314.981C41.139 314.997 41.1927 315.002 41.2458 314.996C41.299 314.99 41.3505 314.974 41.3975 314.948C41.4446 314.923 41.4859 314.888 41.5191 314.846C41.5527 314.804 41.5777 314.757 41.5927 314.706C41.6078 314.654 41.6126 314.6 41.6065 314.547C41.8881 312.353 41.9649 310.139 41.8353 307.93C41.8238 305.803 41.5818 303.685 41.1137 301.611C43.5425 301.822 45.8833 301.998 47.9249 302.069C47.6004 304.122 47.5118 306.208 47.6609 308.282C47.667 310.523 47.993 312.751 48.6289 314.899C48.6289 315.006 48.6718 315.109 48.7476 315.185C48.8234 315.261 48.9265 315.304 49.0337 315.304C49.1412 315.304 49.2443 315.261 49.3201 315.185C49.3963 315.109 49.4385 315.006 49.4385 314.899C49.7297 312.707 49.8122 310.491 49.6849 308.282C49.673 306.227 49.4369 304.178 48.9809 302.174C52.9057 302.262 110.669 307.454 210.426 305.483C237.16 304.955 269.298 303.723 295.768 300.819C295.419 302.941 295.318 305.098 295.469 307.243C295.478 309.478 295.809 311.702 296.454 313.843C296.443 313.902 296.443 313.964 296.457 314.022C296.47 314.081 296.498 314.135 296.537 314.182C296.575 314.229 296.622 314.267 296.676 314.292C296.73 314.318 296.79 314.332 296.85 314.332C296.91 314.332 296.971 314.318 297.025 314.292C297.079 314.267 297.128 314.229 297.166 314.182C297.202 314.135 297.23 314.081 297.244 314.022C297.258 313.964 297.26 313.902 297.246 313.843C297.555 311.652 297.637 309.435 297.493 307.226C297.474 305.052 297.22 302.886 296.736 300.766C298.69 300.555 303.213 299.992 303.6 299.939C303.254 302.05 303.158 304.194 303.318 306.328C303.32 308.569 303.646 310.798 304.286 312.946C304.298 313.053 304.352 313.151 304.436 313.219C304.521 313.286 304.628 313.318 304.735 313.307C304.842 313.295 304.941 313.241 305.008 313.157C305.077 313.072 305.108 312.965 305.096 312.858C305.387 310.669 305.463 308.459 305.325 306.258C305.313 304.089 305.059 301.928 304.568 299.816C312.506 298.742 336.774 295.469 340.083 288.693C343.99 280.966 343.677 270.917 342.058 262.539ZM181.896 234.203C182.09 233.728 187.986 232.443 194.427 234.203C194.486 234.19 194.548 234.192 194.606 234.206C194.665 234.22 194.719 234.247 194.766 234.284C194.813 234.322 194.851 234.371 194.876 234.425C194.902 234.479 194.916 234.539 194.916 234.599C194.916 234.66 194.902 234.72 194.876 234.774C194.851 234.828 194.813 234.876 194.766 234.913C194.719 234.951 194.665 234.979 194.606 234.992C194.548 235.007 194.486 235.007 194.427 234.995C191.22 235.564 187.945 235.648 184.712 235.242C183.198 234.995 181.28 234.978 181.843 234.203H181.896ZM272.378 276.056C256.098 279.154 166.162 278.45 164.806 277.816C163.451 277.182 163.328 275.141 163.293 273.803C173.043 276.971 268.312 274.525 273.61 271.726C273.891 273.275 273.962 275.757 272.325 276.056H272.378ZM238.216 234.397C238.216 233.798 242.088 233.464 242.264 233.446C244.567 233.269 246.878 233.269 249.181 233.446C250.466 233.587 252.243 233.763 252.102 234.309C251.962 234.854 249.304 235.083 248.846 235.154C247.126 235.312 245.4 235.382 243.672 235.365C242.51 235.33 238.093 235.118 238.163 234.397H238.216ZM260.832 240.258C265.235 248.647 268.933 257.39 271.885 266.394C272.26 267.53 272.469 268.717 272.501 269.914C264.563 272.378 173.078 274.912 163.821 272.254C163.381 272.131 163.258 272.254 163.152 271.515C162.483 266.728 170.315 247.702 172.128 243.267C205.427 242.158 260.48 240.451 260.779 240.258H260.832ZM246.013 123.904C244.089 122.847 242.342 121.493 240.838 119.891C240.152 118.853 240.31 118.131 242.334 119.117C243.602 119.698 245.379 120.736 246.576 121.458C246.268 122.241 246.079 123.065 246.013 123.904ZM288.253 127.054C289.661 124.52 291.051 123.798 290.91 125.294C290.154 127.972 289.078 130.548 287.707 132.968C287.602 131.208 287.478 130.029 287.338 128.867C287.408 128.621 287.76 127.882 288.2 127.054H288.253ZM280.773 142.366C281.125 143.37 281.354 143.968 281.371 144.003C281.39 144.053 281.42 144.099 281.458 144.137C281.494 144.176 281.539 144.206 281.588 144.228C281.637 144.249 281.69 144.26 281.744 144.261C281.797 144.262 281.849 144.252 281.899 144.232C282.674 143.933 281.53 143.211 279.699 132.598C279.154 129.43 277.534 119.662 280.738 119.205C283.342 118.818 284.75 125.277 285.243 127.829C286.157 132.748 286.745 137.722 287.003 142.718C287.002 142.816 287.036 142.91 287.099 142.985C287.162 143.059 287.25 143.108 287.347 143.124C287.442 143.139 287.542 143.118 287.624 143.067C287.706 143.015 287.767 142.935 287.795 142.842C287.801 142.742 287.801 142.642 287.795 142.542C289.387 142.589 290.968 142.808 292.512 143.194C292.316 143.423 292.069 143.604 291.79 143.722C288.094 145.622 276.918 145.253 273.064 145.182C273.592 144.126 273.962 143.317 274.366 142.349C276.47 142.694 278.615 142.7 280.72 142.366H280.773ZM267.045 138.512C267.45 134.992 268.347 129.378 271.902 130.046C275.458 130.715 274.56 135.872 273.786 139.322C273.309 141.3 272.721 143.251 272.026 145.165H266.746C266.703 142.944 266.785 140.723 266.992 138.512H267.045ZM264.81 130.24C264.892 130.162 264.989 130.102 265.096 130.064C265.201 130.026 265.316 130.01 265.427 130.019C265.54 130.027 265.65 130.059 265.75 130.112C265.85 130.165 265.938 130.239 266.006 130.328C266.286 130.609 266.54 130.915 266.763 131.243C266.263 132.365 265.914 133.549 265.725 134.763C264.81 133.496 263.63 131.19 264.81 130.24ZM259.266 119.539C261.554 120.261 259.758 126.28 258.227 128.11C257.805 126.216 257.173 124.374 256.344 122.619C256.854 121.07 257.717 119.046 259.266 119.522V119.539ZM254.936 142.56C255.798 143.651 256.362 144.32 256.362 144.32C256.432 144.389 256.525 144.43 256.623 144.436C256.721 144.442 256.818 144.412 256.894 144.351C256.972 144.291 257.025 144.205 257.044 144.108C257.063 144.012 257.045 143.912 256.995 143.827C256.995 143.827 253.88 139.392 251.31 134.798C249.374 131.278 247.526 127.758 248.037 123.869C248.442 120.806 250.061 119.504 252.789 121.282C256.731 123.816 258.526 139.445 259.09 144.162C259.095 144.285 259.14 144.404 259.214 144.501C259.291 144.599 259.395 144.671 259.512 144.707C259.987 144.707 259.917 144.197 259.899 143.95C259.882 143.704 259.899 142.472 259.899 142.349C261.769 142.585 263.661 142.585 265.531 142.349C265.637 143.634 265.76 144.637 265.848 145.165C259.6 145.165 252.05 145.587 246.875 143.563C249.534 143.037 252.229 142.702 254.936 142.56ZM246.506 145.147C249.08 146.145 251.793 146.739 254.549 146.907C257.664 147.189 278.872 147.224 281.283 147.101C284.919 147.041 288.52 146.369 291.931 145.112C292.258 147.272 292.135 149.478 291.569 151.59C291.003 153.701 290.006 155.672 288.64 157.379C284.363 162.395 257.312 163.539 250.818 158.963C246.541 156.024 245.766 150.146 246.506 145.13V145.147ZM232.32 196.821C232.69 198 64.8737 198.053 64.6977 198.035C57.6577 198.035 59.4177 198.035 57.0593 197.454C56.4257 197.314 56.3025 197.314 56.1793 196.698C56.0302 195.731 55.9889 194.751 56.0561 193.776C56.0932 193.848 56.1527 193.907 56.226 193.942C56.299 193.976 56.3815 193.986 56.4609 193.97C56.4609 193.97 232.267 191.576 233.411 191.541C233.886 193.6 233.957 195.518 232.32 196.821ZM281.829 90.0064C281.829 90.0064 281.934 89.8304 281.97 89.8832C282.005 89.936 281.829 89.9888 281.741 90.0064H281.829ZM194.304 45.6192C194.304 44.4752 194.762 40.1456 195.782 39.6176C198.106 38.456 271.938 37.4704 282.022 40.6208C283.783 44.3168 283.219 85.8352 281.741 90.0064C273.082 91.3616 229.504 91.256 218.17 92.4176C218.856 78.5664 219.155 66.8976 218.592 64.6272C218.484 64.3312 218.308 64.0643 218.079 63.8474C217.85 63.6304 217.574 63.4698 217.272 63.3776C213.418 61.7056 198.915 61.2304 194.691 61.0896C194.143 55.9517 194.014 50.7779 194.304 45.6192ZM72.6001 89.936C72.3361 86.24 71.0337 67.584 74.5537 66.2816C76.3137 65.6656 82.5089 65.0496 91.5025 64.5216C108.733 63.448 135.89 62.5856 160.6 62.4096C166.091 62.4096 212.485 62.0048 217.026 65.12C218.363 71.2096 214.086 138.864 213.136 145.394C171.547 146.749 122.267 148.79 80.3265 147.77C79.6225 143.739 74.2369 112.64 72.6001 89.936ZM79.7809 148.949C79.7844 148.908 79.7844 148.867 79.7809 148.826C109.437 149.741 202.242 146.696 213.541 146.626C214.79 149.53 232.338 188.461 233.077 190.626C232.883 190.626 56.3201 193.019 56.0913 193.195C58.3089 185.768 76.6481 154.37 79.7809 148.949ZM128.163 266.869C126.861 269.403 87.4017 287.038 79.2881 289.485C79.4455 288.674 79.5047 287.847 79.4641 287.021C91.4497 282.867 117.462 271.902 129.131 264.141C128.909 265.088 128.584 266.009 128.163 266.886V266.869ZM129.378 262.979C125.858 265.056 122.496 266.499 79.4465 286.07C79.4484 285.274 79.3419 284.481 79.1297 283.712C84.7617 281.072 122.954 266.27 129.765 260.374C129.677 261.131 129.554 262.046 129.378 262.997V262.979ZM38.7201 226.864C39.5665 227.861 40.0903 229.092 40.2225 230.393C40.3543 231.694 40.0884 233.004 39.4593 234.15C39.1777 234.59 39.8465 235.048 40.1281 234.59C41.1908 233.432 41.819 231.942 41.9057 230.372C41.9921 228.803 41.5322 227.253 40.6033 225.984C49.1569 222.059 57.5697 218.363 59.8753 217.36C60.4523 218.532 60.761 219.817 60.7793 221.124C60.7975 222.429 60.5249 223.723 59.9809 224.91C59.7697 225.474 60.4033 225.685 60.7025 225.315C61.6705 224.085 62.273 222.608 62.4414 221.052C62.6094 219.496 62.3361 217.923 61.6529 216.515C63.5537 215.442 67.9889 212.995 70.1537 212.995C72.8641 212.995 127.864 257.734 128.885 258.755C124.291 263.49 81.6465 280.368 78.0561 282.093C70.4881 280.333 24.3058 240.61 19.9762 236.526C22.669 234.291 35.6929 228.272 38.7201 226.864ZM18.6386 237.336C24.1298 242.704 69.9425 282.691 77.6161 283.958C77.4625 284.621 77.3914 285.302 77.4049 285.982C65.0849 279.963 29.885 249.48 18.2338 239.677C18.2866 239.677 18.5506 237.952 18.6914 237.336H18.6386ZM18.9027 243.373C18.4062 242.618 18.1599 241.724 18.1986 240.821C29.709 252.437 62.1985 281.002 77.3873 286.95C77.3562 287.892 77.451 288.832 77.6689 289.749C68.6401 287.725 20.0995 244.816 18.9555 243.373H18.9027ZM339.223 288.112C327.853 310.675 19.325 304.779 14.3267 295.979C12.208 292.297 10.7767 288.259 10.1027 284.064C10.7816 285.551 11.9157 286.783 13.3411 287.584C39.2481 302.667 297 298.725 330.65 286.634C337.779 284.064 341.37 278.52 342.179 270.794C342.656 276.726 341.629 282.684 339.187 288.112H339.223Z" fill="black"/>
<path d="M75.6795 168.414C200.129 170.174 212.009 169.101 215.494 168.555C216.321 168.432 216.849 168.15 216.814 167.182C216.814 164.63 210.83 152.926 209.246 152.117C208.542 151.747 82.5259 153.525 82.0859 153.666C82.004 153.685 81.9272 153.723 81.8603 153.774C81.7938 153.826 81.7384 153.89 81.6987 153.965C80.5019 155.918 74.6587 165.563 74.9227 167.746C74.9512 167.927 75.0427 168.095 75.1806 168.216C75.3189 168.338 75.4952 168.409 75.6795 168.414ZM82.5963 154.88C83.8635 154.722 207.838 153.49 208.595 153.56C209.909 155.451 211.086 157.432 212.115 159.491C209.229 159.491 80.2203 160.178 79.5515 160.195C80.3259 158.646 81.3467 156.886 82.5963 154.88ZM79.0763 161.04C79.7627 161.04 210.302 160.371 212.537 160.318C213.696 162.475 214.611 164.754 215.265 167.112C209 168.115 151.905 167.622 76.3131 167.112C77.0194 164.98 77.933 162.923 79.0411 160.97L79.0763 161.04ZM172.814 174.398C172.464 173.621 171.89 172.965 171.166 172.515C170.443 172.063 169.601 171.838 168.749 171.864C164.278 171.864 126.737 170.826 123.358 172.198C121.2 174.812 119.531 177.794 118.43 180.998C118.324 181.773 118.712 182.125 119.187 182.178C129.747 183.322 164.753 184.413 173.835 182.741C174.961 182.53 175.102 181.333 174.873 180.189C174.329 178.212 173.64 176.276 172.814 174.398ZM119.68 180.998C120.69 178.143 122.063 175.428 123.763 172.92C126.438 172.04 161.233 173.87 168.801 173.853C169.252 173.837 169.697 173.951 170.085 174.182C170.472 174.413 170.784 174.75 170.984 175.155C171.839 176.983 172.506 178.894 172.973 180.858C164.049 182.248 126.156 181.456 119.68 180.998ZM295.046 176.651C292.565 173.237 280.121 173.395 275.95 173.518C272.43 173.518 259.635 174.099 259.635 177.549C259.65 177.828 259.73 178.101 259.871 178.342C260.012 178.584 260.208 178.788 260.445 178.939C260.779 179.203 258.473 202.4 261.641 214.843C262.68 218.962 264.017 221.003 267.942 222.71C275.475 225.984 287.971 225.262 292.987 218.275C293.99 216.234 293.779 210.285 293.867 208.472C301.664 210.021 308.053 206.853 309.707 198.458C310.745 193.054 309.408 189.517 307.102 187.37C305.562 186.116 303.741 185.252 301.796 184.854C299.849 184.455 297.836 184.533 295.926 185.082C295.86 185.104 295.788 185.111 295.72 185.099C295.649 185.089 295.583 185.063 295.527 185.02C295.47 184.979 295.423 184.925 295.393 184.862C295.36 184.799 295.344 184.73 295.345 184.659C295.345 183.726 295.68 177.408 295.046 176.651ZM261.606 177.021C266.358 174.24 285.718 174.029 291.966 176.862C292.177 176.968 292.969 177.373 292.969 177.549C292.969 177.725 292.16 178.147 291.966 178.235C287.249 180.365 270.406 181.333 261.553 178.094C260.937 177.76 261.553 177.091 261.553 177.021H261.606ZM296.419 186.877C298.019 186.416 299.706 186.35 301.337 186.683C302.968 187.018 304.493 187.742 305.782 188.795C307.683 190.555 308.633 193.582 307.753 198.07C307.579 199.631 307.038 201.127 306.175 202.44C305.313 203.751 304.153 204.842 302.79 205.621C299.904 206.92 296.654 207.168 293.603 206.325C293.454 206.271 293.294 206.247 293.135 206.257C292.975 206.268 292.82 206.31 292.678 206.382C292.535 206.455 292.411 206.557 292.31 206.68C292.208 206.803 292.133 206.945 292.089 207.099C291.614 208.437 292.283 213.84 291.315 217.254C286.862 223.291 275.475 223.837 268.734 221.003C265.32 219.542 264.369 218.029 263.454 214.386C261.096 205.744 260.955 188.144 261.483 179.485C267.027 182.107 286.229 182.864 293.779 178.992C293.779 184.448 293.11 185.363 294.483 186.472C294.749 186.673 295.055 186.812 295.381 186.883C295.705 186.952 296.042 186.95 296.366 186.877H296.419ZM125.452 224.171C120.83 220.251 115.858 216.763 110.598 213.752C108.572 212.557 106.416 211.595 104.174 210.883C102.291 210.39 101.499 211.358 101.886 212.643C102.679 214.488 103.728 216.212 105.001 217.765C109.051 222.891 113.708 227.507 118.87 231.51C126.72 238.075 136.892 246.03 144.32 251.68C144.698 251.957 145.128 252.155 145.584 252.262C146.04 252.371 146.513 252.387 146.976 252.311C147.438 252.233 147.88 252.064 148.277 251.814C148.673 251.564 149.015 251.237 149.283 250.853C150.585 249.427 151.395 246.928 149.934 245.573C148.245 244.059 137.913 234.326 125.452 224.171ZM108.592 220.264L106.18 216.374C107.039 216.018 107.765 215.402 108.257 214.614L112.076 216.163C111.118 216.354 110.252 216.861 109.619 217.606C108.987 218.351 108.624 219.287 108.592 220.264ZM113.995 224.752C112.723 223.681 111.545 222.504 110.475 221.232C110.598 219.102 111.267 218.152 113.396 218.082C114.815 218.759 116.155 219.592 117.392 220.563C116.445 220.794 115.6 221.329 114.987 222.084C114.373 222.841 114.025 223.778 113.995 224.752ZM144.091 250.36C142.137 248.723 116.16 226.688 114.558 225.28C114.692 224.294 115.123 223.373 115.792 222.639C116.461 221.902 117.338 221.388 118.307 221.162C124.379 225.667 133.108 233.13 148.333 245.802C147.74 245.771 147.148 245.872 146.598 246.095C146.048 246.318 145.553 246.658 145.149 247.093C144.745 247.526 144.441 248.044 144.258 248.609C144.075 249.173 144.018 249.771 144.091 250.36ZM283.553 269.861C285.753 271.357 287.285 270.67 288.71 268.594C292.23 263.595 304.55 241.472 304.55 241.296C304.55 241.12 304.691 241.454 304.11 234.344C304.085 234.077 303.989 233.821 303.83 233.604C303.673 233.386 303.459 233.216 303.213 233.111C302.966 233.004 302.695 232.965 302.429 233.001C302.162 233.034 301.91 233.14 301.699 233.306L295.68 237.688C295.68 237.688 282.321 265.302 282.181 265.549C281.939 266.322 281.942 267.15 282.186 267.922C282.433 268.693 282.91 269.37 283.553 269.861ZM302.192 235.453C302.297 236.738 302.438 238.445 302.544 239.624C301.237 238.998 299.869 238.51 298.461 238.163L302.192 235.453ZM297.158 239.36C298.684 240.441 300.447 241.142 302.297 241.402C302.033 241.859 288.587 266.394 288.446 266.64C288.037 265.808 287.365 265.135 286.535 264.725C285.705 264.314 284.762 264.189 283.853 264.37C285.225 261.818 296.665 240.24 297.158 239.36Z" fill="black"/>
<path d="M289.063 204.459C288.873 204.192 288.633 203.966 288.354 203.795C288.075 203.623 287.766 203.507 287.443 203.456C286.402 203.177 285.344 202.966 284.275 202.822C284.874 207.011 285.226 211.622 285.208 212.027C285.182 212.296 285.05 212.542 284.843 212.714C284.635 212.884 284.368 212.967 284.099 212.942C283.831 212.912 283.583 212.777 283.413 212.565C283.241 212.356 283.159 212.086 283.184 211.816C283.184 211.517 283.079 210.302 282.991 202.646C279.471 202.206 262.522 200.886 263.191 204.266C263.191 204.442 261.8 213.066 267.186 217.202C272.571 221.338 283.343 220.528 287.109 216.322C288.178 215.041 288.884 213.497 289.151 211.851C289.567 209.402 289.536 206.898 289.063 204.459ZM293.287 188.531C293.287 189.323 292.231 195.378 291.527 203.509L292.371 203.685C295.469 204.342 298.694 203.99 301.576 202.682C302.582 202.123 303.414 201.3 303.982 200.3C304.551 199.299 304.832 198.164 304.797 197.014C304.917 195.586 304.668 194.15 304.075 192.845C303.483 191.539 302.566 190.407 301.412 189.558C300.258 188.707 298.905 188.166 297.483 187.986C296.06 187.807 294.617 187.994 293.287 188.531ZM294.079 189.13C295.202 188.952 296.351 189.017 297.446 189.32C298.543 189.624 299.561 190.159 300.432 190.89C301.27 191.657 301.918 192.607 302.327 193.667C302.736 194.726 302.895 195.866 302.791 196.997C302.632 201.52 297.986 202.382 293.533 201.925C293.744 198.722 293.92 195.043 294.079 189.13ZM275.229 85.8172C275.224 86.1308 275.282 86.4422 275.398 86.7334C275.515 87.0246 275.687 87.2899 275.907 87.5142C276.125 87.7382 276.388 87.9167 276.675 88.0393C276.964 88.1619 277.273 88.2265 277.587 88.2287C278.067 88.239 278.538 88.1068 278.941 87.8483C279.344 87.5897 279.663 87.2169 279.852 86.7772C280.042 86.3379 280.098 85.8515 280.012 85.3804C279.925 84.9091 279.699 84.4745 279.363 84.1321C279.029 83.7897 278.6 83.5545 278.13 83.4572C277.662 83.3599 277.174 83.4044 276.731 83.5852C276.287 83.766 275.907 84.0748 275.64 84.4726C275.373 84.87 275.229 85.3385 275.229 85.8172ZM82.5973 143.88C83.0021 144.672 83.5301 144.76 83.8645 144.514C84.1989 144.267 195.659 143.299 203.949 142.859C205.732 142.886 207.51 142.661 209.229 142.19C213.189 138.67 214.738 72.8636 213.189 69.8188C209.229 61.9164 85.2901 67.0031 77.6693 69.3087C71.5973 71.1391 79.7989 138.265 82.5973 143.88ZM77.3349 72.1596C77.3349 71.8428 77.7221 70.6108 78.0213 70.5228C86.4517 67.9884 208.859 63.8175 212.186 70.4351C212.47 71.759 212.599 73.1116 212.573 74.4655C212.872 82.1391 212.573 98.5772 211.781 113.308C211.623 116.124 210.373 139.198 208.543 141.292C201.239 142.841 88.6869 143.193 83.6885 143.387C80.8373 136.769 74.6773 83.7756 77.3349 72.1596ZM277.816 47.0092C278.294 47.0198 278.765 46.8879 279.168 46.63C279.572 46.3724 279.888 46.0006 280.079 45.5622C280.272 45.1235 280.327 44.6383 280.242 44.1676C280.155 43.6969 279.933 43.2623 279.6 42.919C279.265 42.5759 278.839 42.3398 278.37 42.2403C277.903 42.1411 277.416 42.183 276.971 42.3612C276.527 42.5391 276.147 42.8454 275.877 43.2406C275.607 43.6358 275.462 44.1023 275.458 44.5804C275.45 44.8956 275.506 45.2089 275.622 45.502C275.736 45.7951 275.91 46.0627 276.129 46.2886C276.348 46.5148 276.611 46.6947 276.901 46.8185C277.19 46.9423 277.501 47.0073 277.816 47.0092Z" fill="black"/>
<path d="M111.778 116.512H132.687C135.106 116.502 137.423 115.533 139.13 113.818C140.835 112.102 141.791 109.78 141.786 107.36V90.3933C141.786 87.9687 140.832 85.6413 139.129 83.9152C137.425 82.1895 135.111 81.2036 132.687 81.1709H111.778C110.566 81.1664 109.364 81.4016 108.243 81.8637C107.122 82.3255 106.104 83.0045 105.246 83.8618C104.389 84.7191 103.71 85.7376 103.248 86.8586C102.786 87.9799 102.551 89.1812 102.556 90.3933V107.36C102.56 108.566 102.802 109.76 103.268 110.873C103.734 111.986 104.415 112.996 105.271 113.846C106.128 114.696 107.143 115.369 108.259 115.826C109.376 116.284 110.572 116.517 111.778 116.512ZM104.052 90.3933C104.084 88.3591 104.91 86.4179 106.353 84.9844C107.797 83.5504 109.744 82.7379 111.778 82.7197H132.687C133.714 82.7082 134.734 82.9002 135.687 83.2848C136.64 83.6695 137.507 84.2391 138.238 84.9607C138.97 85.6826 139.551 86.5418 139.948 87.4893C140.346 88.4368 140.552 89.4538 140.554 90.4813V107.36C140.549 108.389 140.342 109.406 139.945 110.354C139.546 111.303 138.966 112.164 138.235 112.888C137.505 113.612 136.639 114.185 135.687 114.574C134.735 114.963 133.715 115.161 132.687 115.157H111.778C110.759 115.152 109.75 114.947 108.81 114.552C107.871 114.158 107.017 113.582 106.3 112.859C105.583 112.134 105.015 111.276 104.629 110.333C104.243 109.389 104.047 108.379 104.052 107.36V90.3933ZM168.309 129.078C168.661 130.117 169.541 129.888 169.787 129.237C170.121 128.304 172.075 121.598 172.321 120.437C173.677 120.014 169.857 121.334 181.667 117.04C181.79 116.992 181.894 116.909 181.969 116.801C182.044 116.692 182.084 116.564 182.084 116.433C182.084 116.301 182.044 116.173 181.969 116.065C181.894 115.956 181.79 115.873 181.667 115.825L163.574 108.592C163.463 108.539 163.34 108.517 163.218 108.526C163.095 108.536 162.977 108.578 162.876 108.647C162.775 108.717 162.693 108.812 162.64 108.922C162.586 109.033 162.562 109.156 162.571 109.278C162.571 109.278 167.341 126.28 168.309 129.078ZM164.384 110.475L179.625 116.477C177.584 117.233 174.134 118.536 172.48 119.205C171.741 119.486 171.441 119.609 171.265 119.838C171.09 120.067 171.705 118.694 169.118 126.667L164.384 110.475ZM205.92 58.8717C205.94 58.9773 205.998 59.0723 206.081 59.1399C206.165 59.2077 206.27 59.2436 206.377 59.2413C206.747 59.2413 218.134 60.3325 220.457 59.7165C221.953 59.3117 222.217 56.6717 222.358 55.1229C222.534 52.7821 222.358 47.0445 221.373 45.0909C220.035 42.4509 210.161 43.3309 207.293 43.8413C206.531 43.9485 205.804 44.2253 205.163 44.6509C204.791 45.0839 204.573 45.6292 204.547 46.1997C204.53 50.4618 204.99 54.7124 205.92 58.8717ZM206.43 46.0061C209.211 45.1437 217.131 44.8093 219.648 46.0061C220.51 48.2941 220.968 56.1613 219.929 57.9917C218.293 58.4141 208.296 58.4141 206.624 58.4317C206.571 57.0589 205.761 49.6493 206.43 46.0061ZM229.539 58.8013C229.562 58.9053 229.621 58.9984 229.703 59.0656C229.787 59.1325 229.889 59.1696 229.997 59.1709C230.366 59.1709 241.753 60.2621 244.077 59.6461C245.573 59.2413 245.837 56.6013 245.995 55.0525C246.153 52.7117 245.995 46.9741 244.992 45.0205C243.654 42.3629 233.781 43.2605 230.912 43.7709C230.152 43.8855 229.426 44.1616 228.782 44.5805C228.417 45.0183 228.201 45.5607 228.166 46.1293C228.15 50.3914 228.611 54.642 229.539 58.8013ZM230.05 45.9357C232.83 45.0557 240.75 44.7389 243.267 45.9357C244.13 48.2237 244.587 56.0909 243.549 57.9037C241.912 58.3437 231.915 58.3437 230.243 58.3613C230.19 56.9885 229.381 49.5789 230.05 45.9357ZM254.249 59.5757C254.27 59.6813 254.327 59.7764 254.411 59.8439C254.494 59.9117 254.6 59.9476 254.707 59.9453C255.077 59.9453 266.464 61.0365 268.787 60.4205C270.283 60.0157 270.547 57.3757 270.688 55.8269C270.864 53.4861 270.688 47.7485 269.702 45.7949C268.365 43.1549 258.491 44.0349 255.622 44.5453C254.863 44.657 254.135 44.9335 253.493 45.3549C253.12 45.7879 252.903 46.3332 252.877 46.9037C252.859 51.1658 253.32 55.4164 254.249 59.5757ZM254.76 46.7101C257.541 45.8477 265.461 45.5133 267.977 46.7101C268.84 48.9981 269.298 56.8653 268.259 58.6957C266.622 59.1181 256.625 59.1181 254.953 59.1357C254.901 57.7629 254.091 50.3533 254.76 46.7101ZM229.698 85.8701C229.821 86.2221 230.102 86.2573 230.155 86.2397C230.542 86.2397 241.912 87.3309 244.235 86.7149C245.731 86.3101 245.995 83.6701 246.153 82.1213C246.312 79.7805 246.153 74.0429 245.168 72.1069C243.813 69.4493 233.939 70.3469 231.088 70.8397C230.321 70.9488 229.589 71.2253 228.941 71.6493C228.573 72.0916 228.355 72.641 228.325 73.2157C228.309 77.472 228.769 81.7165 229.698 85.8701ZM230.226 73.0045C233.006 72.1421 240.909 71.8077 243.426 73.0045C244.288 75.2925 244.745 83.1597 243.707 84.9901C242.07 85.4125 232.091 85.4125 230.419 85.4301C230.349 84.0573 229.539 76.6477 230.226 73.0045ZM270.846 71.3853C273.662 67.2317 276.126 63.4829 276.214 63.3069C276.302 63.1309 275.017 61.5469 274.261 62.6733C268.875 70.9629 269.614 70.1709 269.227 70.0301C266.129 68.9037 256.133 69.2909 254.566 70.7517C253.51 71.7373 253.915 75.3101 254.038 76.8413C252.912 76.2077 252.049 75.7501 251.733 75.6269C250.923 75.3101 250.976 76.1021 251.416 76.3837L254.161 78.1437C254.385 80.4567 254.742 82.7546 255.235 85.0253C255.253 85.1325 255.308 85.2298 255.393 85.298C255.477 85.3661 255.584 85.4007 255.693 85.3949C256.062 85.3949 267.449 86.4861 269.773 85.8701C272.8 85.0253 271.867 73.9197 270.846 71.3853ZM255.745 72.1069C259.886 71.1651 264.176 71.0871 268.347 71.8781L262.24 81.5053C261.624 81.1533 258.333 79.2173 255.587 77.6685C255.471 75.8314 255.524 73.9876 255.745 72.1597V72.1069ZM269.245 84.0749C267.59 84.5149 257.611 84.5149 255.939 84.5325C255.939 83.8285 255.675 81.5229 255.552 78.9709L262.24 83.1245C262.409 83.1431 262.58 83.1133 262.733 83.0384C262.885 82.9639 263.013 82.8471 263.102 82.7021C263.665 81.9805 266.499 77.8621 269.385 73.6205C269.931 76.7885 270.107 82.5613 269.28 84.0749H269.245ZM199.267 46.4285C199.745 46.4356 200.213 46.3005 200.615 46.0407C201.015 45.7808 201.329 45.4077 201.518 44.969C201.706 44.53 201.761 44.0452 201.673 43.5754C201.585 43.106 201.36 42.673 201.025 42.3316C200.691 41.9901 200.265 41.7556 199.797 41.6576C199.329 41.5597 198.843 41.6029 198.4 41.7818C197.957 41.9604 197.577 42.2666 197.309 42.6615C197.041 43.0564 196.894 43.5223 196.891 43.9997C196.891 44.6349 197.139 45.2448 197.583 45.6989C198.028 46.153 198.632 46.4148 199.267 46.4285Z" fill="black"/>
</svg>
