<svg width="354" height="354" viewBox="0 0 354 354" fill="none" xmlns="http://www.w3.org/2000/svg">
<path fill-rule="evenodd" clip-rule="evenodd" d="M205.656 331.714C209.55 327.946 222.524 314.016 226.719 310.759C226.848 310.622 227.022 310.533 227.209 310.511C227.395 310.489 227.584 310.535 227.741 310.638C227.898 310.742 228.013 310.899 228.066 311.079C228.119 311.26 228.106 311.454 228.029 311.626C225.94 315.396 207.727 332.512 206.665 333.519C205.94 334.424 202.824 338.176 201.975 338.955C202.001 339.66 201.817 340.355 201.445 340.953C201.072 341.555 200.529 342.028 199.886 342.318C197.606 343.094 195.373 343.998 193.195 345.024C192.877 345.308 192.505 345.024 192.594 344.725C193.685 343.357 194.601 341.858 195.319 340.265C195.474 339.209 196.01 338.247 196.826 337.558C197.64 336.873 198.678 336.506 199.744 336.528C199.868 336.3 204.559 332.441 205.656 331.714ZM199.691 336.812C198.736 336.866 197.83 337.265 197.143 337.932C196.454 338.598 196.026 339.486 195.939 340.442C195.541 341.642 194.942 342.769 194.169 343.769C198.647 341.909 200.169 342.176 201.143 340.67C201.451 340.171 201.644 339.608 201.709 339.026C200.47 338.688 199.603 336.599 199.691 336.812ZM205.302 332.371C203.922 333.626 202.488 334.971 200.382 336.796C200.691 337.41 201.155 337.935 201.727 338.318L206.347 333.378C205.94 333.117 205.59 332.773 205.32 332.371H205.302ZM197.426 311.52C199.444 310.192 226.826 292.174 227.091 293.059C227.357 293.944 200.222 314.476 199.992 314.617C198.842 315.927 191.142 324.229 190.133 324.583C188.85 324.534 187.633 323.997 186.735 323.076C185.505 321.821 184.593 320.284 184.08 318.6C183.744 317.396 196.328 311.98 197.426 311.52ZM184.947 319.396C185.296 320.519 185.927 321.532 186.779 322.339C187.63 323.15 188.676 323.727 189.815 324.016C188.54 322.813 185.85 320.246 184.947 319.396ZM190.257 315.308C188.315 316.234 186.449 317.318 184.682 318.547C184.912 319.308 184.682 318.547 186.452 320.016C187.888 321.143 189.148 322.478 190.186 323.981C191.071 323.324 194.665 319.75 194.452 319.945C193.126 318.32 191.707 316.771 190.204 315.308H190.257ZM197.497 311.768C194.576 313.131 192.629 314.086 190.417 315.166C192.172 316.287 193.597 317.858 194.541 319.715C195.603 318.653 199.213 314.989 199.744 314.405C199.231 313.909 197.886 312.37 197.444 311.803L197.497 311.768ZM240.384 291.537C241.286 283.607 242.614 273.748 243.694 273.695C244.773 273.642 243.605 283.607 242.49 291.59C246.03 291.891 250.243 293.838 249.57 297.201C249.603 297.8 249.524 298.4 249.34 298.971C251.11 310.989 249.535 313.467 249.658 313.272C248.627 314.514 247.338 315.514 245.879 316.206C244.421 316.896 242.829 317.261 241.216 317.272C239.596 317.281 237.993 316.944 236.512 316.286C235.033 315.626 233.709 314.659 232.631 313.449C231.162 311.237 232.1 301.891 232.383 299.289C232.227 298.742 232.137 298.177 232.118 297.608C231.904 296.677 232.025 295.701 232.459 294.849C232.892 293.998 233.61 293.327 234.49 292.953C236.299 291.982 238.331 291.494 240.384 291.537ZM249.004 307.077C247.605 309.945 243.694 310.847 240.543 310.847C240.5 311.695 240.406 312.541 240.26 313.378C240.118 314.051 239.959 314.635 239.269 314.617C238.273 314.415 237.395 313.831 236.826 312.989C236.366 312.299 236.472 311.945 237.056 310.423C236.289 310.222 235.575 309.857 234.965 309.353C234.352 308.849 233.858 308.217 233.516 307.502C233.523 309.083 233.684 310.66 233.994 312.21C234.367 312.914 234.901 313.52 235.552 313.98C239.552 317.237 244.402 316.317 248.455 312.83C248.632 311.52 248.88 308.953 249.004 307.077ZM232.755 299.997C232.631 302.139 232.153 311.184 233.357 312.954C234.283 314.03 235.454 314.868 236.773 315.396C235.391 314.722 234.267 313.616 233.569 312.246C233.265 310.35 233.164 308.428 233.268 306.511C233.156 305.974 233.177 305.418 233.329 304.89C233.479 304.363 233.756 303.881 234.136 303.484C235.392 302.033 235.693 302.865 234.543 302.068C233.79 301.561 233.175 300.873 232.755 300.068V299.997ZM237.516 310.44C237.302 311.014 237.142 311.607 237.038 312.21C237.038 312.812 238.631 314.157 239.339 314.086C239.587 314.086 239.658 313.715 239.746 313.272C239.904 312.471 240.01 311.662 240.065 310.847C239.205 310.83 238.351 310.717 237.516 310.511V310.44ZM249.127 299.572C248.52 300.693 247.589 301.606 246.455 302.192C248.49 302.829 249.835 304.192 249.287 306.263C249.287 307.378 249.287 308.476 249.181 309.467C249.004 313.166 248.88 313.007 249.057 312.741C249.889 309.591 249.464 302.971 249.127 299.643V299.572ZM246.154 302.351C244.499 303.152 242.683 303.57 240.844 303.573C240.847 304.63 240.71 305.683 240.437 306.706C240.509 307.884 240.509 309.067 240.437 310.246C242.654 310.321 244.846 309.762 246.756 308.635C249.57 306.865 250.013 303.661 246.154 302.422V302.351ZM238.844 306.776C238.738 307.024 237.853 309.484 237.693 309.927C238.487 310.12 239.301 310.22 240.118 310.228C240.118 309.361 240.295 307.697 240.277 306.829C239.805 306.933 239.319 306.939 238.844 306.847V306.776ZM235.534 302.67C232.135 305.006 233.569 308.723 237.304 309.856C237.676 308.918 238.26 307.608 238.685 306.706C238.733 305.648 238.851 304.596 239.038 303.555C237.829 303.462 236.643 303.163 235.534 302.67ZM239.198 303.573L239.038 306.44C239.339 306.44 240.313 306.582 240.207 306.44C240.101 306.298 240.437 304.776 240.561 303.608C240.101 303.643 239.64 303.626 239.198 303.59V303.573ZM248.827 298.882C245.676 302.829 236.153 302.882 232.897 298.882C233.24 299.768 233.808 300.553 234.543 301.156C235.277 301.761 236.155 302.167 237.092 302.334C241.127 303.431 247.198 302.546 248.827 298.9V298.882ZM242.225 293.431C241.694 297.094 241.233 300.068 241.074 301.042C243.747 301.042 247.322 300.068 248.561 297.909C248.172 295.147 245.021 293.714 242.225 293.448V293.431ZM240.171 293.431C238.71 293.503 237.295 293.966 236.074 294.773C234.854 295.58 233.873 296.699 233.233 298.015C234.366 299.785 237.215 300.758 239.41 300.971C239.499 299.997 239.782 297.059 240.171 293.448V293.431ZM240.348 291.873C238.419 291.944 236.538 292.497 234.879 293.484C233.304 294.493 232.242 296.05 233.109 297.732C233.712 296.338 234.698 295.142 235.95 294.28C237.202 293.419 238.671 292.929 240.189 292.864L240.348 291.873ZM242.49 292.05C242.49 292.351 242.402 292.652 242.348 292.953C245.269 293.218 248.331 294.723 248.809 297.555C249.446 295.944 248.384 294.493 246.897 293.554C245.554 292.742 244.05 292.228 242.49 292.05ZM259.447 299.236C258.615 295.112 251.889 264.385 254.137 262.597C254.935 262.158 255.803 261.858 256.703 261.712C259.181 261.181 274.987 259.057 275.713 261.199C276.439 263.341 272.173 295.962 271.854 297.714C271.854 298.9 271.412 302.21 271.412 302.21C270.953 303.17 270.272 304.006 269.426 304.652C268.58 305.298 267.593 305.733 266.546 305.924C265.5 306.114 264.422 306.052 263.404 305.745C262.385 305.439 261.452 304.894 260.686 304.157C260.094 302.567 259.68 300.916 259.447 299.236ZM274.81 265.128C268.033 265.218 261.27 265.81 254.579 266.898C255.128 274.332 258.349 291.678 259.747 299.077C261.59 300.084 263.69 300.522 265.782 300.336C267.875 300.15 269.865 299.35 271.5 298.033C271.695 296.528 274.669 267.111 274.81 265.128ZM273.217 275.394C273.217 275.394 273.323 274.191 271.837 274.492C270.35 274.792 267.642 277.341 264.314 277.058C260.986 276.775 257.818 274.916 256.827 276.155C255.836 277.394 260.031 281.306 265.465 280.386C271.695 279.341 273.341 276.775 273.217 275.394ZM255.694 262.827C255.429 262.827 254.703 263.11 254.632 263.341C254.482 264.463 254.482 265.599 254.632 266.721L256.402 266.385C256.002 265.237 255.763 264.04 255.694 262.827ZM258.756 262.172C257.854 262.332 256.792 262.526 255.924 262.756C256.187 263.925 256.383 265.106 256.508 266.296C257.181 266.173 259.057 265.854 259.606 265.801C259.553 265.677 259.128 264.208 258.756 262.172ZM262.137 261.73C261.022 261.854 259.96 261.995 258.986 262.137C259.42 263.321 259.682 264.56 259.765 265.819L262.739 265.447C262.633 264.863 262.261 263.022 262.137 261.73ZM265.447 261.411C264.845 261.411 263.571 261.553 262.367 261.694C262.74 262.904 262.924 264.163 262.916 265.429L266.102 265.128C266.049 264.827 265.677 263.234 265.5 261.411H265.447ZM268.987 261.181L265.677 261.394C266.059 262.596 266.261 263.848 266.279 265.111C267.305 265.111 268.438 264.969 269.447 264.934C269.447 264.898 269.04 261.411 269.04 261.181H268.987ZM273.27 261.181C273.207 262.421 273.071 263.656 272.863 264.88H274.828C274.828 264.438 275.129 261.464 274.828 261.34C274.315 261.239 273.794 261.191 273.27 261.199V261.181ZM273.04 261.181H269.235C269.577 262.401 269.708 263.669 269.624 264.934H272.704C272.651 263.674 272.764 262.411 273.04 261.181ZM139.83 285.554C142.148 285.554 144.042 286.404 144.042 287.483C144.042 288.563 142.148 289.413 139.83 289.413C137.511 289.413 135.635 288.545 135.635 287.483C135.635 286.421 137.44 285.554 139.83 285.554ZM95.0841 275.359C95.0841 275.748 94.3584 276.102 93.438 276.138C92.5176 276.173 91.668 275.872 91.668 275.465C91.7034 274.527 95.0487 274.35 95.0841 275.359Z" fill="black"/>
<path d="M111.846 320.034C112.98 320.034 113.899 319.487 113.899 318.812C113.899 318.138 112.98 317.591 111.846 317.591C110.712 317.591 109.793 318.138 109.793 318.812C109.793 319.487 110.712 320.034 111.846 320.034Z" fill="black"/>
<path fill-rule="evenodd" clip-rule="evenodd" d="M200.24 260.19C202.01 260.19 203.532 260.703 203.532 261.323C203.532 261.942 202.063 262.473 200.24 262.473C198.417 262.473 196.966 261.96 196.966 261.323C196.966 260.686 198.435 260.19 200.24 260.19ZM87.5445 215.002C87.5445 215.444 87.279 218.79 87.4206 223.675C87.4206 224.33 87.5445 226.56 87.5445 226.56C87.5445 226.56 87.7569 226.684 87.7569 226.56C87.7569 226.436 87.8631 224.33 87.8808 223.675C87.987 219.604 87.7569 214.825 87.7569 215.002C87.7569 214.974 87.7459 214.947 87.7256 214.927C87.7057 214.908 87.6786 214.896 87.6507 214.896C87.6223 214.896 87.5956 214.908 87.5757 214.927C87.5557 214.947 87.5445 214.974 87.5445 215.002ZM161.265 21.594C163.477 22.1958 167.389 23.4525 168.805 25.2756C168.856 25.3424 168.884 25.424 168.884 25.5081C168.884 25.5921 168.86 25.6742 168.809 25.7418C168.759 25.8095 168.688 25.8594 168.609 25.8837C168.527 25.9082 168.442 25.906 168.362 25.8774C161.282 22.9923 150.007 26.6739 142.857 29.6475C140.025 30.8334 157.017 11.6643 169.23 14.6733C169.314 14.6987 169.386 14.7503 169.439 14.8204C169.491 14.8906 169.519 14.9754 169.519 15.0627C169.519 15.1499 169.491 15.2348 169.439 15.3049C169.386 15.3751 169.314 15.4266 169.23 15.4521C166.454 16.1032 163.728 16.9489 161.07 17.9832C163.105 18.0717 167.796 18.3726 169.371 19.7532C169.435 19.8072 169.479 19.8781 169.503 19.9576C169.525 20.037 169.525 20.1212 169.5 20.2001C169.475 20.2789 169.429 20.3489 169.365 20.4016C169.3 20.4543 169.224 20.4873 169.141 20.4966C166.499 20.7263 163.869 21.0925 161.265 21.594ZM167.141 15.1689C163.664 15.1562 160.245 16.0596 157.229 17.7885C151.832 20.6521 147.027 24.5141 143.069 29.1696C149.848 26.2314 159.495 22.9038 166.734 24.5676C164.451 23.4012 162.023 22.5441 159.512 22.0188C159.421 21.9995 159.34 21.9493 159.281 21.8768C159.222 21.8043 159.189 21.7138 159.189 21.6205C159.189 21.5272 159.222 21.4368 159.281 21.3642C159.34 21.2918 159.421 21.2416 159.512 21.2223C162.21 20.4956 164.962 19.9982 167.743 19.7355C165.029 19.0954 162.248 18.7745 159.459 18.7797C159.369 18.7822 159.279 18.7543 159.207 18.7005C159.133 18.6465 159.08 18.5697 159.055 18.4822C159.032 18.3946 159.037 18.3014 159.071 18.2174C159.107 18.1333 159.169 18.0634 159.247 18.0186C161.763 16.776 164.412 15.8201 167.141 15.1689ZM47.6133 163.229C45.8529 163.459 44.0784 163.567 42.3033 163.548C42.2131 163.551 42.1243 163.524 42.0526 163.47C41.9808 163.415 41.9299 163.337 41.909 163.249C41.8881 163.161 41.8984 163.069 41.938 162.988C41.9776 162.906 42.0442 162.842 42.1263 162.805C44.3211 161.619 49.4895 160.45 52.1445 158.61L58.7112 154.22C58.7243 154.205 58.7408 154.194 58.7591 154.185C58.7774 154.176 58.7974 154.171 58.8174 154.171C58.8376 154.171 58.8573 154.176 58.8756 154.185C58.8939 154.194 58.9104 154.205 58.9236 154.22C59.1183 154.45 58.7112 154.468 56.4987 157.388C55.0299 159.197 53.8369 161.213 52.9587 163.371C52.0096 165.628 51.1764 167.932 50.463 170.274C50.463 170.805 49.1886 171.194 49.5426 168.292C49.6893 167.209 49.8898 166.134 50.1444 165.07C48.3081 166.396 46.3733 167.579 44.3565 168.61C44.2837 168.652 44.2 168.671 44.1167 168.663C44.0333 168.655 43.9542 168.622 43.8905 168.567C43.8264 168.513 43.781 168.441 43.7598 168.359C43.7386 168.278 43.7431 168.193 43.7724 168.115C44.6776 166.224 45.989 164.556 47.6133 163.229ZM57.6315 155.388C48.9585 161.495 52.8348 159.282 44.1795 162.734C45.8358 162.729 47.4823 162.48 49.0647 161.99L49.2593 161.831C49.6487 161.53 50.3391 162.132 49.578 162.628C47.8768 163.965 46.3746 165.539 45.1176 167.3C47.0777 166.298 48.9134 165.067 50.5869 163.636C50.6493 163.564 50.7349 163.515 50.8292 163.501C50.9235 163.485 51.02 163.502 51.1024 163.551C51.1845 163.6 51.2472 163.676 51.2791 163.766C51.3109 163.856 51.3106 163.954 51.2772 164.044C50.9109 165.378 50.6158 166.731 50.3922 168.097C51.7914 163.358 54.2691 159.008 57.6315 155.388ZM58.8351 147.122C61.8367 142.259 66.1249 138.32 71.225 135.741C78.0927 132.502 80.6061 135.954 77.4909 142.149C74.8381 147.098 71.0461 151.344 66.4284 154.539C66.9484 156.354 67.1576 158.245 67.0479 160.132C66.5877 161.902 57.9324 164.875 56.7465 164.734C56.6567 164.729 56.5694 164.701 56.4948 164.651C56.4201 164.601 56.3603 164.532 56.3217 164.451C56.1447 164.044 56.5518 163.672 56.9412 163.371C59.1022 161.793 61.3668 160.362 63.7203 159.088L63.5964 156.149L62.5874 156.645C62.5218 156.663 62.4523 156.663 62.3866 156.644C62.3213 156.626 62.2621 156.589 62.2157 156.539L56.6403 151.105C56.6142 151.076 56.5997 151.039 56.5997 150.999C56.5997 150.959 56.6142 150.922 56.6403 150.892C56.6403 150.892 56.8172 150.521 57.1889 149.866H54.0915C53.6313 150.822 50.5515 157.052 49.5603 157.477C49.4891 157.511 49.4106 157.529 49.3318 157.525C49.2526 157.524 49.175 157.504 49.1058 157.465C49.0363 157.427 48.9774 157.372 48.9334 157.307C48.8893 157.241 48.8613 157.166 48.8523 157.087C48.6399 155.76 51.2595 147.105 52.9941 146.591C54.9201 146.414 56.862 146.546 58.7466 146.981C58.7746 146.992 58.798 147.012 58.8138 147.037C58.8299 147.062 58.8373 147.092 58.8351 147.122ZM66.0389 154.663C65.3364 155.132 64.6098 155.562 63.8619 155.955L64.2336 159.3C64.2336 159.565 64.2336 159.406 60.6936 161.743C59.6139 162.433 58.5165 163.159 57.7731 163.707C60.4589 162.967 63.0489 161.915 65.4902 160.574C65.6849 160.45 66.1983 160.096 66.2691 159.866C66.456 158.13 66.3785 156.375 66.0389 154.663ZM58.2333 148.875C57.543 149.901 57.1182 150.645 56.9589 150.946L62.4459 156.025C63.0831 155.707 63.7734 155.317 64.4991 154.875C62.2129 153.092 60.1136 151.081 58.2333 148.875ZM58.6757 147.37C56.8501 147.111 54.9967 147.111 53.1711 147.37C52.5516 147.583 51.4896 150.397 51.2949 150.91C50.6699 152.577 50.1672 154.286 49.7903 156.025C50.8524 154.45 53.7552 149.299 53.6313 149.547C53.6554 149.497 53.693 149.456 53.7403 149.428C53.7873 149.4 53.8417 149.387 53.8968 149.388L57.3483 149.565C57.7023 148.892 58.127 148.202 58.6757 147.37ZM68.4285 138.184C64.4163 140.907 61.0067 144.425 58.4103 148.521C60.7605 150.325 62.9089 152.378 64.8177 154.645C68.8565 151.982 72.3231 148.541 75.0129 144.52L68.4285 138.184ZM65.2602 142.627C64.9197 142.983 64.6529 143.404 64.4746 143.864C64.2966 144.323 64.211 144.814 64.2226 145.307C64.2339 145.8 64.3423 146.286 64.5419 146.737C64.7411 147.189 65.0272 147.596 65.3841 147.937C65.7409 148.277 66.1612 148.544 66.6211 148.723C67.0813 148.9 67.5715 148.985 68.0648 148.975C68.5578 148.963 69.0438 148.854 69.495 148.655C69.9461 148.456 70.3536 148.17 70.6941 147.813C71.3818 147.092 71.7551 146.128 71.7319 145.132C71.7087 144.136 71.2907 143.19 70.5702 142.503C69.8496 141.815 68.8854 141.442 67.8894 141.465C66.8937 141.488 65.9479 141.906 65.2602 142.627ZM70.1985 142.91C70.7681 143.495 71.087 144.279 71.087 145.096C71.087 145.912 70.7681 146.697 70.1985 147.282C69.6398 147.799 68.9044 148.086 68.1427 148.08C67.3806 148.074 66.6494 147.779 66.0985 147.252C65.5472 146.726 65.2177 146.009 65.1771 145.248C65.1366 144.487 65.3876 143.739 65.8797 143.158C66.4274 142.565 67.1837 142.208 67.9892 142.162C68.7947 142.115 69.5867 142.384 70.1985 142.91ZM69.225 143.919C69.466 144.169 69.6282 144.484 69.6913 144.826C69.754 145.167 69.7154 145.52 69.5796 145.839C69.4438 146.159 69.2169 146.432 68.9273 146.623C68.6373 146.815 68.2978 146.917 67.9506 146.917C67.6033 146.917 67.2635 146.815 66.9738 146.623C66.6845 146.432 66.4576 146.159 66.3218 145.839C66.1857 145.52 66.1468 145.167 66.2102 144.826C66.2729 144.484 66.4351 144.169 66.6761 143.919C66.8412 143.747 67.0392 143.611 67.2583 143.518C67.4772 143.425 67.7127 143.377 67.9506 143.377C68.1884 143.377 68.4239 143.425 68.6428 143.518C68.8619 143.611 69.0599 143.747 69.225 143.919Z" fill="black"/>
<path fill-rule="evenodd" clip-rule="evenodd" d="M125.263 23.7005C125.101 23.5631 124.974 23.3894 124.892 23.1937C124.811 22.9978 124.776 22.7854 124.792 22.5739C124.808 22.3622 124.874 22.1573 124.984 21.9761C125.094 21.7946 125.246 21.642 125.427 21.5304C125.607 21.4188 125.811 21.3515 126.023 21.3341C126.234 21.3167 126.447 21.3495 126.644 21.43C126.84 21.5104 127.014 21.6361 127.153 21.797C127.291 21.9578 127.39 22.1491 127.44 22.3553C127.453 22.578 127.413 22.8006 127.323 23.005C127.234 23.2093 127.097 23.3897 126.924 23.5312C126.752 23.6726 126.548 23.7713 126.331 23.8192C126.112 23.8672 125.886 23.8627 125.67 23.8067C125.67 23.9837 125.405 25.9484 124.874 28.2494C127.333 28.2587 129.707 29.1506 131.565 30.7628C131.591 30.7134 131.635 30.6756 131.688 30.6566C145.494 28.7096 146.928 33.2761 142.485 36.94C137.494 41.0641 122.166 45.79 113.705 44.6749C111.492 44.4094 108.059 43.3828 108.023 41.2942C108.023 38.6038 115.227 35.6125 115.511 35.4709C116.664 32.5488 118.894 30.1797 121.741 28.8512C120.484 27.4883 119.175 25.5059 118.874 25.1696C117.369 25.9838 115.953 24.0545 117.104 23.0633C117.357 22.841 117.687 22.7267 118.024 22.7447C118.305 22.6877 118.596 22.7271 118.852 22.8563C119.107 22.9855 119.312 23.197 119.432 23.4568C119.553 23.7164 119.583 24.0092 119.517 24.2878C119.451 24.5664 119.293 24.8147 119.068 24.9926C119.664 25.4215 120.194 25.9342 120.644 26.5148C123.192 29.5946 121.033 28.5326 124.184 28.2848C124.277 26.7059 124.642 25.1551 125.263 23.7005ZM115.209 35.9665C113.616 36.7453 108.483 39.5065 108.554 41.2765C108.554 41.8606 109.068 42.4447 110.006 42.958C116.59 46.498 136.184 40.9402 141.866 36.3205C145.105 33.7186 144.768 31.223 138.609 30.7805C136.247 30.6734 133.88 30.7443 131.529 30.9929C131.086 32.0195 126.821 40.0906 115.209 35.9665ZM113.439 40.1791C113.363 40.3429 113.321 40.5212 113.317 40.7021C113.313 40.8829 113.347 41.0628 113.417 41.2295C113.488 41.3962 113.592 41.5465 113.724 41.6707C113.856 41.7946 114.012 41.8896 114.183 41.9491C114.353 41.9913 114.529 41.9996 114.702 41.9736C114.875 41.9475 115.041 41.8876 115.19 41.7972C115.34 41.7068 115.47 41.5874 115.574 41.4464C115.678 41.3055 115.752 41.1455 115.794 40.9756C115.899 40.6634 115.877 40.322 115.73 40.0266C115.584 39.7311 115.327 39.5059 115.015 39.4003C114.703 39.2947 114.361 39.3173 114.066 39.4634C113.771 39.6095 113.545 39.8669 113.439 40.1791ZM114.891 39.6835C115.67 40.0375 115.139 41.4535 114.395 41.2411C113.652 41.0287 114.042 39.5242 114.891 39.6835ZM127.104 38.6746C126.979 38.5813 126.834 38.5176 126.681 38.4873C126.528 38.4574 126.37 38.4619 126.219 38.5011C126.068 38.5401 125.927 38.6125 125.808 38.7129C125.688 38.8136 125.593 38.9395 125.529 39.0817C125.393 39.399 125.379 39.7553 125.49 40.0822C125.601 40.4089 125.829 40.6831 126.131 40.8517C126.274 40.9408 126.436 40.9965 126.604 41.0149C126.772 41.0332 126.942 41.0136 127.102 40.9573C127.262 40.9013 127.407 40.8102 127.526 40.6911C127.646 40.5717 127.738 40.4269 127.794 40.2676C127.894 39.9635 127.878 39.6336 127.751 39.3404C127.624 39.0469 127.394 38.8101 127.104 38.6746ZM126.963 38.9224C127.671 39.4534 127.21 40.6924 126.467 40.2676C125.724 39.8428 126.113 38.5684 126.963 38.9401V38.9224ZM136.432 33.8602C136.329 33.764 136.206 33.6919 136.071 33.6501C135.937 33.6079 135.795 33.5966 135.655 33.6169C135.516 33.6375 135.383 33.689 135.266 33.7678C135.149 33.8467 135.051 33.9509 134.981 34.0726C134.844 34.3561 134.815 34.6795 134.9 34.9827C134.984 35.2859 135.177 35.5475 135.441 35.7187C135.559 35.8149 135.696 35.8835 135.844 35.9198C135.992 35.9562 136.146 35.9591 136.295 35.9288C136.444 35.8983 136.584 35.8349 136.706 35.7435C136.828 35.6521 136.928 35.5349 136.998 35.4001C137.063 35.262 137.1 35.1124 137.107 34.9599C137.114 34.8073 137.09 34.6548 137.038 34.5116C136.985 34.368 136.904 34.2367 136.801 34.1247C136.696 34.0131 136.571 33.923 136.432 33.8602ZM136.29 34.0903C136.821 34.5859 136.45 35.5771 135.83 35.1523C135.211 34.7275 135.564 33.7363 136.29 34.0903ZM118.024 23.0102C118.253 23.0186 118.47 23.1121 118.634 23.2726C118.798 23.4329 118.896 23.6486 118.909 23.8775C118.9 24.0825 118.812 24.276 118.663 24.4179C118.515 24.5597 118.318 24.6387 118.113 24.6386C118.006 24.6443 117.899 24.629 117.798 24.5934C117.696 24.5579 117.603 24.5029 117.524 24.4313C117.363 24.2869 117.266 24.0846 117.254 23.8686C117.242 23.6527 117.317 23.4409 117.461 23.2798C117.605 23.1189 117.808 23.0218 118.024 23.0102ZM125.865 21.5057C126.094 21.5141 126.312 21.6076 126.475 21.7681C126.639 21.9284 126.737 22.1441 126.75 22.373C126.741 22.578 126.653 22.7715 126.504 22.9134C126.356 23.0552 126.159 23.1342 125.954 23.1341C125.839 23.1562 125.722 23.1537 125.609 23.1266C125.495 23.0996 125.39 23.0485 125.298 22.977C125.206 22.9054 125.13 22.8152 125.077 22.7121C125.023 22.609 124.992 22.4955 124.985 22.3795C124.979 22.2632 124.997 22.1471 125.04 22.0388C125.082 21.9305 125.147 21.8324 125.23 21.7513C125.314 21.6701 125.413 21.6077 125.523 21.5685C125.632 21.5291 125.749 21.5138 125.865 21.5234V21.5057ZM213.215 109.386C214.045 107.847 215.407 106.663 217.047 106.054C218.686 105.445 220.491 105.454 222.125 106.077C223.758 106.702 225.109 107.899 225.925 109.445C226.742 110.992 226.968 112.783 226.56 114.484C229.164 115.75 231.651 117.243 233.994 118.944C235.021 119.864 234.879 120.714 233.056 120.59C229.891 120.308 226.76 119.715 223.711 118.82C222.734 119.533 221.596 119.989 220.398 120.146C219.2 120.303 217.982 120.156 216.855 119.719C215.728 119.282 214.729 118.568 213.952 117.644C213.173 116.72 212.64 115.615 212.4 114.431C210.63 113.581 204.489 110.413 204.117 108.625C203.993 107.97 204.63 107.669 205.303 107.598C208.023 107.741 210.697 108.346 213.215 109.386ZM226.419 114.855C226.074 116.058 225.42 117.15 224.525 118.024C227.532 118.891 230.614 119.483 233.729 119.794C232.72 118.484 227.87 115.687 226.419 114.855ZM213.038 114.696C213.325 115.692 213.837 116.608 214.536 117.374C215.235 118.14 216.101 118.734 217.066 119.11C218.032 119.487 219.072 119.636 220.104 119.546C221.137 119.455 222.134 119.128 223.02 118.59C219.601 117.541 216.264 116.24 213.038 114.696ZM223.976 117.864C225.22 116.756 226.012 115.228 226.202 113.573C226.391 111.918 225.964 110.251 225.003 108.89C224.499 108.147 223.848 107.515 223.091 107.032C222.333 106.549 221.486 106.226 220.6 106.081C219.713 105.937 218.806 105.975 217.936 106.194C217.065 106.412 216.247 106.806 215.533 107.351C214.572 108.058 213.814 109.007 213.336 110.1C212.856 111.194 212.675 112.394 212.808 113.581C216.41 115.307 220.144 116.74 223.976 117.864ZM213.038 109.74C211.728 109.315 205.958 107.651 204.913 108.466C205.32 109.74 211.073 112.731 212.4 113.28C212.3 112.065 212.519 110.844 213.038 109.74ZM84.7124 218.825C86.8495 220.23 89.0991 221.455 91.4384 222.489C91.4612 222.497 91.4857 222.495 91.5079 222.488C91.5301 222.479 91.5487 222.463 91.561 222.442C91.5732 222.421 91.5783 222.398 91.5754 222.374C91.5725 222.35 91.5616 222.329 91.5445 222.312C89.4051 220.911 87.1559 219.687 84.8186 218.648C84.796 218.641 84.7716 218.642 84.7494 218.65C84.7268 218.659 84.7082 218.675 84.6959 218.696C84.6837 218.714 84.6786 218.74 84.6818 218.763C84.6847 218.787 84.6953 218.809 84.7124 218.825ZM46.3388 63.4192C46.3388 59.1358 46.5866 55.1002 46.5866 55.2772C46.5981 55.2418 46.6207 55.2109 46.6509 55.189C46.6812 55.1671 46.7175 55.1556 46.7549 55.1556C46.7922 55.1556 46.8282 55.1671 46.8585 55.189C46.8887 55.2109 46.9113 55.2418 46.9229 55.2772C46.9229 56.5693 47.153 57.7198 47.1707 63.7024C48.4788 62.8512 49.8318 62.0711 51.224 61.366C51.2426 61.3544 51.2632 61.3467 51.2848 61.3428C51.3067 61.3393 51.3289 61.3399 51.3501 61.3448C51.3713 61.3499 51.3916 61.3589 51.4096 61.3718C51.4273 61.3843 51.4425 61.4004 51.4541 61.4191C51.4656 61.4378 51.4737 61.4584 51.4772 61.4802C51.4811 61.5015 51.4801 61.5237 51.4753 61.5453C51.4705 61.5665 51.4611 61.5868 51.4486 61.6045C51.4357 61.6225 51.4196 61.6376 51.401 61.6492C50.2682 62.5786 49.0861 63.4472 47.861 64.2511C50.4097 65.6494 50.9231 66.0211 52.1444 66.7645C53.3657 67.5079 53.3834 67.5079 53.2949 67.6849C53.2064 67.8619 53.1179 67.7911 51.8966 67.2247C50.6753 66.6583 49.8434 66.3043 47.1707 64.8352C47.1707 71.6143 46.9052 74.7118 46.9052 74.5348C46.8936 74.5702 46.871 74.6011 46.8408 74.623C46.8105 74.6449 46.7745 74.6564 46.7372 74.6564C46.6998 74.6564 46.6635 74.6449 46.6332 74.623C46.603 74.6011 46.5804 74.5702 46.5689 74.5348C46.5689 73.2604 46.3211 72.1453 46.3211 65.2423C44.9401 66.1572 43.5103 66.9962 42.0377 67.7557C42.019 67.7673 41.9984 67.7753 41.9768 67.7789C41.9553 67.7824 41.9331 67.7818 41.9118 67.7769C41.8903 67.7718 41.87 67.7628 41.8523 67.7499C41.8346 67.7374 41.8191 67.7213 41.8076 67.7026C41.796 67.6839 41.7882 67.6633 41.7847 67.6418C41.7808 67.6202 41.7815 67.598 41.7866 67.5765C41.7915 67.5552 41.8005 67.5349 41.8133 67.5172C41.8259 67.4992 41.842 67.4841 41.8607 67.4725C43.2544 66.3313 44.7142 65.2732 46.2326 64.3042C44.7989 63.5077 44.3387 63.2245 43.2059 62.5342C42.0731 61.8439 41.7014 61.6315 41.7899 61.4368C41.8233 61.4123 41.8635 61.3991 41.9051 61.3991C41.9463 61.3991 41.9868 61.4123 42.02 61.4368C44.2502 62.2687 45.5777 63.0298 46.3388 63.4192Z" fill="black"/>
<path fill-rule="evenodd" clip-rule="evenodd" d="M84.8191 222.489C86.8019 221.449 88.6806 220.222 90.43 218.825C90.5539 218.825 90.43 218.577 90.3238 218.648C88.3424 219.69 86.4636 220.917 84.7129 222.312C84.6067 222.383 84.7129 222.56 84.8191 222.489ZM139.689 115.758C139.689 120.731 139.866 121.528 139.866 122.431C139.858 122.45 139.856 122.47 139.858 122.49C139.86 122.51 139.867 122.529 139.878 122.546C139.89 122.563 139.905 122.577 139.923 122.586C139.941 122.596 139.961 122.601 139.981 122.601C140.001 122.601 140.021 122.596 140.039 122.586C140.057 122.577 140.072 122.563 140.084 122.546C140.095 122.529 140.102 122.51 140.104 122.49C140.107 122.47 140.104 122.45 140.096 122.431C140.096 122.608 140.291 119.74 140.291 115.457C141.663 116.233 143.075 116.936 144.521 117.563C144.663 117.563 144.787 117.422 144.645 117.351C143.399 116.519 142.111 115.75 140.787 115.05C141.663 114.509 142.508 113.918 143.318 113.28C143.341 113.262 143.358 113.235 143.364 113.205C143.37 113.176 143.365 113.145 143.349 113.119C143.334 113.093 143.31 113.073 143.281 113.064C143.253 113.054 143.221 113.056 143.194 113.067C143.194 113.067 141.742 113.811 140.291 114.749C140.291 110.342 140.114 109.439 140.114 108.695C140.114 108.663 140.101 108.631 140.078 108.608C140.054 108.585 140.023 108.572 139.99 108.572C139.957 108.572 139.926 108.585 139.903 108.608C139.879 108.631 139.866 108.663 139.866 108.695C139.866 108.518 139.707 111.545 139.689 114.554C139.176 114.289 138.149 113.74 136.592 113.067C136.45 113.067 136.326 113.209 136.468 113.28C136.609 113.351 137.778 114.182 139.618 115.191C138.528 115.851 137.476 116.573 136.468 117.351C136.326 117.351 136.468 117.652 136.592 117.563C136.415 117.652 137.742 116.997 139.689 115.758ZM184.187 240.826C182.257 240.03 161.902 238.773 161.725 238.755C161.177 238.755 157.212 239.552 156.946 239.623C156.681 239.693 156.946 239.623 156.946 239.711C158.494 240.418 160.091 241.009 161.725 241.481C163.495 241.853 167.035 241.888 183.815 243.694C184.134 243.694 184.806 242.596 184.417 241.003C184.399 240.95 184.275 240.879 184.187 240.826ZM161.637 241.304L158.964 240.366C159.067 240.224 159.135 240.061 159.159 239.888C159.184 239.716 159.166 239.539 159.106 239.375C159.971 239.201 160.846 239.075 161.725 239.003C162.15 239.428 161.017 239.587 161.867 240.136C161.973 240.136 161.991 240.136 161.867 240.26C161.823 240.282 161.783 240.313 161.75 240.351C161.716 240.39 161.693 240.434 161.678 240.483C161.663 240.53 161.657 240.581 161.663 240.63C161.668 240.68 161.684 240.729 161.708 240.773C161.849 241.021 162.009 241.127 161.637 241.304ZM161.849 241.304C162.345 241.039 161.672 240.632 162.009 240.419C162.752 239.906 159.212 240.047 182.594 242.189C182.545 242.553 182.626 242.924 182.824 243.233L161.849 241.304ZM182.611 242.048C181.815 241.959 162.221 240.101 162.097 239.994C161.973 239.888 161.655 239.8 161.814 239.587C161.973 239.375 162.062 239.18 161.814 238.968C161.991 238.968 179.355 240.348 183.054 240.968C182.796 241.285 182.641 241.674 182.611 242.083V242.048ZM183.744 243.269C183.62 243.145 183.603 243.18 183.479 242.826C183.355 242.472 183.479 241.269 184.045 241.269C184.132 241.611 184.15 241.966 184.098 242.316C184.047 242.665 183.927 243.002 183.744 243.304V243.269ZM196.046 191.036C196.026 190.971 195.993 190.911 195.947 190.86C195.901 190.811 195.845 190.771 195.782 190.744C195.72 190.718 195.652 190.706 195.583 190.71C195.515 190.713 195.448 190.731 195.389 190.763C195.329 190.796 195.277 190.84 195.236 190.895C195.196 190.949 195.168 191.013 195.155 191.079C195.141 191.145 195.143 191.214 195.159 191.281C195.175 191.347 195.206 191.408 195.249 191.461C195.426 191.744 195.603 192.027 195.798 192.311C195.824 192.371 195.864 192.425 195.914 192.47C195.965 192.514 196.023 192.546 196.088 192.566C196.152 192.585 196.22 192.591 196.284 192.581C196.351 192.572 196.414 192.546 196.47 192.511C196.526 192.474 196.574 192.425 196.609 192.369C196.645 192.313 196.668 192.25 196.675 192.184C196.684 192.117 196.678 192.05 196.658 191.986C196.638 191.922 196.605 191.864 196.559 191.815C196.47 191.567 196.205 191.302 196.046 191.036ZM173.991 153.441C174.098 152.609 175.071 148.379 174.699 148.291C174.679 148.282 174.657 148.279 174.634 148.279C174.612 148.28 174.59 148.286 174.57 148.296C174.549 148.307 174.531 148.32 174.518 148.338C174.503 148.356 174.493 148.375 174.487 148.397C173.986 149.633 173.6 150.912 173.337 152.22C173.236 152.68 173.171 153.148 173.142 153.618C173.145 153.69 173.165 153.761 173.202 153.823C173.239 153.885 173.292 153.935 173.354 153.972C173.798 154.198 174.278 154.349 174.77 154.415C175.16 154.415 176.54 154.521 176.381 154.149C176.222 153.778 176.009 154.45 173.991 153.441ZM181.939 150.875V149.954C181.939 149.317 181.054 149.229 181.036 149.954V150.963C181.032 151.03 181.041 151.098 181.066 151.159C181.089 151.223 181.126 151.279 181.173 151.326C181.222 151.373 181.279 151.409 181.343 151.431C181.406 151.453 181.474 151.462 181.54 151.454C181.607 151.449 181.672 151.426 181.729 151.393C181.787 151.359 181.837 151.313 181.874 151.257C181.912 151.202 181.937 151.139 181.949 151.074C181.961 151.007 181.956 150.94 181.939 150.875ZM183.107 155.76C182.541 157.884 181.779 158.203 180.859 158.309C180.67 158.324 180.482 158.324 180.293 158.309C180.251 158.294 180.204 158.299 180.164 158.318C180.124 158.338 180.095 158.372 180.08 158.415C180.067 158.458 180.07 158.504 180.089 158.543C180.11 158.583 180.145 158.613 180.186 158.627C181.726 159.512 183.833 158.433 183.443 155.76C183.431 155.725 183.409 155.694 183.38 155.672C183.349 155.649 183.312 155.637 183.275 155.637C183.238 155.637 183.201 155.649 183.172 155.672C183.141 155.694 183.119 155.725 183.107 155.76ZM189.762 177.885C189.752 177.827 189.73 177.771 189.699 177.721C189.666 177.673 189.625 177.628 189.576 177.596C189.528 177.562 189.473 177.538 189.416 177.525C189.358 177.513 189.299 177.512 189.24 177.522C189.183 177.532 189.127 177.555 189.076 177.585C189.027 177.618 188.985 177.659 188.951 177.708C188.917 177.757 188.893 177.811 188.88 177.869C188.868 177.926 188.867 177.987 188.877 178.044C188.952 178.373 189.048 178.699 189.16 179.018C189.166 179.086 189.187 179.152 189.221 179.211C189.255 179.27 189.3 179.32 189.357 179.36C189.413 179.398 189.477 179.425 189.544 179.435C189.612 179.447 189.679 179.443 189.746 179.425C189.811 179.406 189.871 179.372 189.923 179.327C189.975 179.282 190.014 179.227 190.042 179.164C190.069 179.102 190.082 179.034 190.079 178.965C190.076 178.897 190.059 178.831 190.028 178.77C189.921 178.469 189.833 178.168 189.762 177.885ZM172.345 148.238C172.359 148.171 172.357 148.102 172.341 148.035C172.325 147.969 172.294 147.909 172.249 147.856C172.207 147.802 172.152 147.761 172.092 147.732C172.03 147.702 171.962 147.687 171.894 147.687C171.826 147.687 171.758 147.702 171.698 147.732C171.636 147.761 171.581 147.802 171.539 147.856C171.496 147.909 171.465 147.969 171.448 148.035C171.431 148.102 171.429 148.171 171.443 148.238V149.246C171.429 149.313 171.431 149.382 171.448 149.449C171.465 149.513 171.496 149.575 171.539 149.628C171.581 149.68 171.636 149.723 171.698 149.752C171.758 149.782 171.826 149.796 171.894 149.796C171.962 149.796 172.03 149.782 172.092 149.752C172.152 149.723 172.207 149.68 172.249 149.628C172.294 149.575 172.325 149.513 172.341 149.449C172.357 149.382 172.359 149.313 172.345 149.246C172.325 148.91 172.325 148.574 172.345 148.238Z" fill="black"/>
<path fill-rule="evenodd" clip-rule="evenodd" d="M321.096 221.25C319.131 220.294 314.458 221.091 312.246 221.551C311.433 220.643 310.408 219.951 309.262 219.538C308.116 219.123 306.884 219.001 305.679 219.179C303.697 219.675 303.219 222.117 303.307 224.171C302.033 223.941 300.652 223.781 299.378 223.657C299.484 223.268 299.82 222.719 299.714 222.33C299.656 222.191 299.57 222.066 299.46 221.964C299.35 221.861 299.218 221.784 299.075 221.737C298.932 221.69 298.782 221.673 298.631 221.691C298.482 221.707 298.338 221.756 298.21 221.834C297.857 222.116 297.531 222.43 297.236 222.772C297.236 222.153 297.749 221.162 297.13 221.002C296.51 220.843 294.581 222.578 294.032 223.197C289.967 222.75 285.867 222.75 281.802 223.197C276.48 223.579 271.465 225.83 267.642 229.551C289.165 204.771 298.617 187.744 298.369 166.522C298.121 145.299 272.899 135.175 262.526 134.91C252.455 134.662 242.065 140.22 241.534 140.22C232.436 141.99 208.577 139.352 203.568 141.441C203.629 139.198 203.227 136.967 202.386 134.886C201.545 132.806 200.284 130.922 198.682 129.352C195.815 126.219 191.231 125.051 186.576 125.245C179.938 125.546 173.354 128.325 170.062 134.095C168.97 135.964 168.329 138.06 168.185 140.22C168.185 140.768 167.053 149.795 169.955 156.627C170.61 158.358 171.657 159.912 173.015 161.167C174.373 162.424 176.003 163.348 177.779 163.867C174.917 167.66 172.293 171.627 169.92 175.743C169.371 176.894 169.778 177.513 170.575 177.513C171.371 177.513 172.433 177.301 173.177 177.336C172.009 180.54 169.035 188.895 168.309 192.204C164.67 194.654 161.393 197.604 158.574 200.966C153.264 207.055 150.786 213.657 144.768 217.179L142.998 218.17C145.405 210.86 149.954 196.346 148.308 196.329C146.662 196.311 142.662 210.276 140.113 219.746C137.388 221.25 136.007 222.206 135.051 225.18C134.739 225.932 134.579 226.737 134.579 227.551C134.579 228.366 134.739 229.171 135.051 229.923C135.165 230.164 135.338 230.373 135.555 230.528C135.772 230.683 136.025 230.779 136.29 230.808C136.503 230.808 136.503 230.613 135.919 231.906C135.64 231.985 135.377 232.111 135.139 232.277L126.626 227.091C126.431 227.091 128.874 226.755 77.0658 233.499C76.0923 232.773 75.0657 232.012 74.0037 231.18C48.5511 211.374 131.67 190.116 138.325 163.053C144.29 138.821 110.005 133.936 117.616 111.174C125.227 88.4116 175 94.7836 221.852 92.0578C268.704 89.332 287.342 42.0376 253.234 17.3992C219.126 -7.23934 184.08 27.7537 175.796 36.6922C167.513 45.6307 157.955 57.3304 131.122 56.1622C104.289 54.994 69.1716 59.5429 56.3036 98.4475C50.1087 117.068 55.6664 130.131 63.9323 140.485C66.7009 137.668 70.1251 135.582 73.8974 134.414C76.0922 133.883 78.2693 134.166 78.8888 136.343C80.057 140.343 75.2072 146.556 72.393 149.654C79.4729 156.486 86.2698 162.256 88.9425 168.221C93.4029 178.239 72.0212 185.655 62.9942 191.514C53.9672 197.373 40.1789 215.498 48.6395 233.091C49.2751 234.439 49.9844 235.751 50.7635 237.021C32.8157 239.34 32.1962 239.34 32.0194 239.446C31.8424 239.552 31.8955 239.871 32.0194 240.048H31.8955C33.4883 241.818 80.3756 308.83 109.156 342.884L109.669 342.991C115.9 339.998 228.967 285.112 222.949 281.731C222.949 281.731 140.29 235.587 138.325 234.419C138.633 233.891 138.899 233.34 139.122 232.773C139.22 232.765 139.312 232.724 139.384 232.656C139.454 232.588 139.5 232.498 139.512 232.401V231.445C140.609 231.817 142.326 230.755 143.211 229.959C144.981 228.33 147.636 223.799 149.6 223.197C153.518 222.221 157.383 221.039 161.176 219.657C176.947 213.745 183.496 207.126 190.363 196.435C191.499 194.765 192.465 192.986 193.249 191.125C197.256 195.452 202.128 198.891 207.55 201.214C193.249 217.728 195.496 228.206 200.665 233.923C205.391 239.145 213.055 237.304 214.312 236.915C214.312 244.773 216.967 262.226 217.852 263.978C218.312 264.987 216.772 265.748 216.453 267.748C216.287 268.764 216.418 269.807 216.832 270.75C217.247 271.694 217.927 272.495 218.79 273.058C220.754 274.297 224.1 274.368 222.79 272.403C222.353 271.841 221.86 271.326 221.321 270.863C221.834 271.022 222.4 271.235 223.091 271.483C229.551 274.014 230.401 275.164 231.587 274.828C231.746 274.791 231.895 274.719 232.023 274.618C232.152 274.518 232.256 274.39 232.33 274.244C232.472 274.341 232.633 274.409 232.801 274.44C232.97 274.471 233.143 274.467 233.311 274.427C233.478 274.387 233.634 274.312 233.77 274.207C233.907 274.102 234.019 273.969 234.1 273.819C234.161 273.704 234.193 273.577 234.193 273.447C234.193 273.317 234.161 273.191 234.1 273.076C234.324 272.698 234.401 272.25 234.313 271.819C234.313 270.226 228.224 265.022 226.985 263.996C227.162 262.226 228.1 258.296 230.436 247.853C242.508 261.465 283.094 242.543 285.306 241.587C285.678 241.977 300.67 235.587 302.404 234.667C302.227 234.667 321.414 225.994 322.14 222.808C322.14 222.064 321.662 221.586 321.096 221.25ZM252.632 60.9943C252.926 61.0033 253.203 61.1275 253.403 61.3393C253.606 61.5514 253.716 61.8343 253.712 62.1271C253.716 62.2726 253.692 62.4177 253.641 62.5538C253.588 62.6897 253.51 62.8142 253.409 62.9198C253.309 63.025 253.188 63.1096 253.055 63.1679C252.921 63.2261 252.778 63.2573 252.632 63.2599C252.486 63.2573 252.341 63.2264 252.207 63.1682C252.073 63.1099 251.95 63.026 251.849 62.9207C251.747 62.8155 251.668 62.6913 251.613 62.5551C251.56 62.419 251.533 62.2732 251.535 62.1271C251.533 61.9807 251.56 61.8349 251.613 61.6988C251.668 61.5626 251.747 61.4384 251.849 61.3332C251.95 61.228 252.073 61.144 252.207 61.0857C252.341 61.0275 252.486 60.9966 252.632 60.9943ZM242.632 30.0901C242.775 30.0899 242.916 30.1185 243.049 30.1739C243.182 30.2291 243.301 30.3103 243.402 30.4125C243.502 30.5146 243.582 30.6357 243.635 30.7687C243.688 30.9017 243.714 31.0441 243.711 31.1875C243.731 31.3395 243.719 31.4941 243.673 31.6409C243.629 31.7876 243.554 31.9232 243.452 32.0384C243.35 32.1536 243.226 32.246 243.086 32.3091C242.946 32.3725 242.794 32.405 242.64 32.405C242.487 32.405 242.335 32.3725 242.195 32.3091C242.056 32.246 241.931 32.1536 241.829 32.0384C241.729 31.9232 241.654 31.7876 241.608 31.6409C241.564 31.4941 241.55 31.3395 241.57 31.1875C241.568 31.0456 241.593 30.9047 241.645 30.7728C241.698 30.641 241.775 30.5206 241.873 30.4187C241.972 30.3168 242.09 30.2354 242.22 30.1788C242.35 30.1225 242.49 30.0923 242.632 30.0901ZM209.356 78.9244C209.229 78.9012 209.115 78.8346 209.032 78.7362C208.95 78.6374 208.906 78.5131 208.906 78.3844C208.906 78.256 208.95 78.1315 209.032 78.033C209.115 77.9342 209.229 77.8676 209.356 77.8447C209.503 77.8447 209.646 77.9033 209.749 78.0079C209.854 78.1125 209.913 78.2544 209.913 78.4021C209.913 78.5501 209.854 78.6921 209.749 78.7963C209.646 78.9009 209.503 78.9598 209.356 78.9598V78.9244ZM204.541 30.3025C204.541 29.5945 206.311 29.2405 207.09 29.1343C208.376 28.9642 209.68 28.9642 210.966 29.1343C211.764 27.6702 212.745 26.3139 213.887 25.0987C214.258 24.7978 214.595 24.6916 214.931 25.0987C215.732 26.7151 216.247 28.4575 216.453 30.2494C219.197 30.9574 223.02 32.2672 220.719 33.9133C220.011 34.4266 218.754 34.9576 217.391 35.6833C217.545 37.1115 217.592 38.5491 217.533 39.9844C217.533 40.6393 217.356 41.6305 216.701 41.7544C215.374 41.9845 214.347 40.1437 212.258 38.3383C210.258 39.3295 206.258 41.5243 206.17 39.418C206.386 37.6213 206.92 35.8774 207.745 34.2673C205.709 32.338 204.417 31.3999 204.541 30.3379V30.3025ZM202.771 62.8528C202.767 64.0883 202.445 65.3018 201.835 66.3761C201.225 67.4506 200.349 68.3498 199.29 68.987C198.231 69.6239 197.026 69.9769 195.792 70.0126C194.557 70.048 193.333 69.7645 192.24 69.1894L202.541 61.012C202.699 61.6251 202.783 62.2549 202.789 62.8882L202.771 62.8528ZM202.329 60.3571C199.497 62.5342 195.691 65.6671 191.886 68.977C191.6 68.8042 191.327 68.6089 191.071 68.3929C194.771 64.6582 198.399 60.4456 200.647 57.7729C201.388 58.5202 201.966 59.4119 202.346 60.3925L202.329 60.3571ZM200.258 57.4012C199.55 58.1623 193.39 65.1007 190.735 68.0212C189.98 67.3271 189.377 66.4832 188.965 65.5432C191.656 63.5962 195.319 60.8881 199.39 57.6844L200.028 57.1711L200.258 57.4012ZM195.603 55.6312C197.023 55.6296 198.411 56.0551 199.585 56.8525L197.089 58.6225C196.523 59.0473 192.222 62.428 188.824 65.083C188.464 64.0043 188.363 62.8554 188.532 61.7303C188.701 60.6056 189.133 59.5368 189.795 58.6113C190.456 57.6857 191.327 56.9301 192.337 56.4058C193.346 55.8819 194.465 55.6042 195.603 55.5958V55.6312ZM178.54 52.7284C178.755 52.7213 178.968 52.7786 179.149 52.8929C179.332 53.0071 179.475 53.1732 179.562 53.3698C179.649 53.5664 179.676 53.7843 179.639 53.9961C179.6 54.2078 179.501 54.4035 179.351 54.558C179.202 54.7127 179.01 54.819 178.8 54.8637C178.588 54.9084 178.37 54.8891 178.171 54.8083C177.972 54.7279 177.801 54.5898 177.68 54.4112C177.561 54.2332 177.496 54.0231 177.496 53.8081C177.513 53.5388 177.634 53.2864 177.83 53.1024C178.028 52.9183 178.288 52.8163 178.558 52.8169L178.54 52.7284ZM168.787 79.5262C169.2 79.5401 169.601 79.6752 169.938 79.915C170.274 80.1547 170.534 80.4884 170.683 80.8743C170.83 81.2602 170.863 81.6811 170.774 82.085C170.684 82.4889 170.479 82.8574 170.181 83.1451C169.885 83.4324 169.508 83.6262 169.103 83.7018C168.696 83.7774 168.275 83.7321 167.895 83.5705C167.514 83.4093 167.19 83.1396 166.961 82.7949C166.732 82.4503 166.61 82.0461 166.61 81.6325C166.625 81.0658 166.861 80.5274 167.268 80.1335C167.675 79.7396 168.221 79.5214 168.787 79.5262ZM141.246 74.5348C142.007 74.5348 142.007 75.8977 141.246 75.8977C140.485 75.8977 140.467 74.5348 141.246 74.5348ZM69.26 113.67C69.1764 113.684 69.0901 113.68 69.0077 113.658C68.9254 113.636 68.8488 113.596 68.7834 113.541C68.7181 113.487 68.6656 113.418 68.6296 113.341C68.5936 113.264 68.5749 113.179 68.5749 113.094C68.5749 113.009 68.5936 112.925 68.6296 112.847C68.6656 112.77 68.7181 112.701 68.7834 112.647C68.8488 112.592 68.9254 112.552 69.0077 112.53C69.0901 112.508 69.1764 112.504 69.26 112.519C69.3444 112.504 69.4303 112.508 69.513 112.53C69.5951 112.552 69.6717 112.592 69.737 112.647C69.8023 112.701 69.8548 112.77 69.8908 112.847C69.9272 112.925 69.9455 113.009 69.9455 113.094C69.9455 113.179 69.9272 113.264 69.8908 113.341C69.8548 113.418 69.8023 113.487 69.737 113.541C69.6717 113.596 69.5951 113.636 69.513 113.658C69.4303 113.68 69.3444 113.684 69.26 113.67ZM107.315 183.16C107.078 183.132 106.853 183.037 106.668 182.884C106.483 182.732 106.347 182.528 106.275 182.301C106.203 182.073 106.199 181.828 106.263 181.598C106.327 181.366 106.457 181.16 106.636 181C106.815 180.842 107.037 180.739 107.274 180.704C107.51 180.669 107.752 180.702 107.97 180.801C108.188 180.9 108.373 181.061 108.501 181.263C108.63 181.463 108.698 181.699 108.696 181.938C108.673 182.282 108.515 182.604 108.257 182.832C107.998 183.062 107.66 183.179 107.315 183.16ZM111.51 64.7821C111.753 64.7786 111.99 64.8471 112.193 64.9791C112.397 65.1113 112.556 65.3006 112.651 65.5236C112.746 65.7463 112.773 65.9925 112.728 66.2306C112.683 66.4684 112.568 66.6879 112.398 66.8604C112.228 67.0329 112.01 67.151 111.773 67.1996C111.535 67.2482 111.289 67.225 111.065 67.1333C110.841 67.0413 110.649 66.8849 110.514 66.6837C110.379 66.4823 110.307 66.2454 110.306 66.0034C110.306 65.6822 110.433 65.3743 110.658 65.1461C110.883 64.9173 111.189 64.7866 111.51 64.7821ZM112.537 128.343C112.535 128.516 112.484 128.684 112.389 128.829C112.294 128.974 112.16 129.088 112.002 129.158C111.844 129.229 111.67 129.253 111.499 129.227C111.328 129.2 111.168 129.126 111.038 129.012C110.908 128.898 110.814 128.749 110.766 128.583C110.719 128.417 110.72 128.24 110.769 128.074C110.819 127.909 110.916 127.761 111.047 127.649C111.178 127.536 111.339 127.464 111.51 127.44C111.634 127.43 111.759 127.446 111.877 127.487C111.995 127.528 112.103 127.593 112.195 127.678C112.286 127.763 112.359 127.866 112.409 127.98C112.459 128.094 112.484 128.218 112.483 128.343H112.537ZM112.944 154.486C114.006 153.654 117.139 151.07 118.077 151.884C119.015 152.698 118.201 154.415 118.077 156.858C120.041 157.796 124.112 159.583 122.519 160.716C120.96 161.479 119.285 161.98 117.563 162.203C117.262 164.769 117.28 166.079 116.413 166.522C115.811 166.805 114.484 165.725 113.988 165.265C113.036 164.452 112.202 163.511 111.51 162.468C109.893 162.663 108.259 162.663 106.642 162.468C106.218 162.362 105.899 162.168 105.988 161.743C106.182 160.769 108.377 158.698 109.103 158.008C108.643 156.999 107.563 154.468 107.935 153.459C108.466 152.061 110.749 153.601 112.891 154.486H112.944ZM107.191 97.4563C107.563 97.4563 107.758 97.7218 107.704 98.182C107.334 99.4954 106.774 100.748 106.041 101.899C106.8 102.694 107.449 103.587 107.97 104.554C109.74 107.97 107.28 107.103 103.633 106.324C102.774 107.602 101.681 108.707 100.412 109.581C98.766 110.395 98.3942 106.926 98.1111 104.961C95.6153 104.306 93.6329 104.395 93.1196 103.386C92.6063 102.377 96.4296 100.837 97.527 100.341C97.4031 98.5714 96.6419 96.1996 98.1641 96.2704C99.7069 96.7364 101.124 97.5474 102.306 98.6422C103.862 97.9909 105.511 97.5905 107.191 97.4563ZM84.6413 146.91C84.4441 146.942 84.2423 146.931 84.0498 146.877C83.8571 146.823 83.6785 146.728 83.5262 146.598C83.374 146.469 83.2517 146.308 83.1677 146.126C83.0841 145.945 83.0406 145.747 83.0406 145.547C83.0406 145.347 83.0841 145.15 83.1677 144.968C83.2517 144.787 83.374 144.626 83.5262 144.496C83.6785 144.366 83.8571 144.271 84.0498 144.217C84.2423 144.164 84.4441 144.152 84.6413 144.184C84.8389 144.152 85.041 144.164 85.2335 144.217C85.4259 144.271 85.6045 144.366 85.7568 144.496C85.909 144.626 86.0313 144.787 86.1153 144.968C86.1989 145.15 86.2424 145.347 86.2424 145.547C86.2424 145.747 86.1989 145.945 86.1153 146.126C86.0313 146.308 85.909 146.469 85.7568 146.598C85.6045 146.728 85.4259 146.823 85.2335 146.877C85.041 146.931 84.8389 146.942 84.6413 146.91ZM74.6585 93.4384C74.5935 93.422 74.5356 93.3847 74.4941 93.3316C74.4529 93.2788 74.4304 93.2135 74.4304 93.1462C74.4304 93.0789 74.4529 93.0136 74.4941 92.9608C74.5356 92.9081 74.5935 92.8704 74.6585 92.8543C78.5348 92.5888 82.9422 92.4649 86.8185 92.4649C83.588 90.199 80.1298 88.2768 76.4993 86.7301C76.4228 86.7063 76.3577 86.6545 76.3172 86.585C76.277 86.5151 76.2647 86.4328 76.2824 86.3546C76.3005 86.276 76.3474 86.2072 76.4141 86.1621C76.4804 86.1167 76.5615 86.0984 76.6409 86.1106C80.6646 86.1534 84.6224 87.1353 88.199 88.978C85.8466 86.6336 83.3583 84.4288 80.7473 82.3759C80.6917 82.3305 80.6537 82.2665 80.6408 82.1957C80.628 82.1249 80.6412 82.0518 80.6772 81.9897C80.7139 81.9276 80.7712 81.8806 80.8394 81.8575C80.9073 81.834 80.9816 81.8359 81.0482 81.8626C85.5103 83.3011 89.6984 85.4792 93.4383 88.3054C97.1305 91.0106 100.333 94.327 102.908 98.1112C102.908 98.2705 102.748 98.3944 102.642 98.2351C100.069 94.4753 96.8727 91.1831 93.1905 88.5001C89.9105 86.0942 86.2971 84.1804 82.4642 82.8184C83.7563 83.8627 88.9956 88.1284 89.6859 89.7037C89.8274 89.9869 89.4734 90.2524 89.1726 90.0754C87.2825 89.0224 85.2744 88.1966 83.1899 87.6151C81.5661 87.1292 79.891 86.8321 78.1985 86.7301C80.234 87.7036 86.5529 90.8011 87.845 92.6419C87.8785 92.6912 87.8969 92.7488 87.8991 92.808C87.9014 92.8672 87.8869 92.9261 87.8573 92.9776C87.828 93.0287 87.7849 93.0712 87.7324 93.0995C87.6803 93.1279 87.6214 93.1407 87.5619 93.1375C87.3671 93.1375 82.4819 93.1375 77.2958 93.3145C83.42 94.4827 91.4558 96.7306 96.5712 100.395C96.7127 100.501 96.5712 100.713 96.3941 100.607C90.8363 96.7306 81.2252 94.3234 74.6585 93.4384ZM174.876 129.989C180.912 125.44 192.877 124.236 198.116 129.989C199.659 131.493 200.871 133.303 201.677 135.302C202.481 137.301 202.86 139.446 202.789 141.6C202.376 145.503 200.699 149.165 198.01 152.025C197.691 152.344 197.691 152.025 197.797 151.866C198.103 151.428 198.303 150.928 198.387 150.402C198.472 149.875 198.436 149.336 198.283 148.826C198.129 148.316 197.864 147.847 197.504 147.454C197.144 147.06 196.7 146.754 196.204 146.556C192.859 145.034 191.85 150.645 189.408 151.335C187.284 151.955 188.08 146.999 188.239 143.689C188.462 142.233 188.127 140.748 187.301 139.529C185.831 137.952 184.014 136.739 181.991 135.989C178.447 134.562 174.599 134.056 170.805 134.52C171.841 132.749 173.225 131.207 174.876 129.989ZM170.681 156.38C167.761 149.477 169.035 140.308 169.035 140.308C169.178 138.446 169.715 136.636 170.61 134.998C174.435 134.609 178.295 135.219 181.814 136.768C183.729 137.485 185.455 138.629 186.859 140.113C188.629 142.45 186.859 146.91 187.425 150.397C187.638 151.76 188.275 152.627 189.602 152.167C192.346 151.388 193.266 146.184 195.904 147.388C198.541 148.592 198.063 152.043 194.948 153.353C193.744 153.866 193.85 155.017 194.771 155.123C195.249 155.123 196.187 154.857 197.62 153.707C199.721 151.655 201.371 149.191 202.47 146.468C204.932 146.987 207.313 147.832 209.55 148.981C212.701 150.415 216.418 152.415 219.356 154.132C214.878 155.2 210.797 157.518 207.587 160.819C204.377 164.119 202.174 168.264 201.231 172.77C200.559 172.77 200.612 171.814 200.152 171.46C199.691 171.106 199.408 171.46 198.859 171.637C198.871 171.2 198.774 170.77 198.576 170.38C198.576 169.354 196.895 169.956 195.921 170.274C195.933 169.835 195.867 169.398 195.727 168.982C196.134 167.672 193.762 168.327 192.434 168.699C192.535 168.196 192.535 167.68 192.434 167.177C192.558 166.15 190.31 166.805 189.372 167.177C189.453 166.585 189.417 165.983 189.266 165.407C188.77 164.716 186.151 166.168 186.045 165.513C186.054 165.028 186.149 164.548 186.328 164.097C186.629 163.017 185.16 163.69 184.735 163.619C184.719 163.628 184.701 163.634 184.682 163.634C184.662 163.634 184.645 163.628 184.629 163.619V163.407C186.11 163.001 187.531 162.406 188.859 161.637C189.534 162.631 190.546 163.347 191.709 163.654C192.765 163.968 193.889 163.971 194.946 163.663C196.004 163.353 196.949 162.744 197.669 161.911C198.389 161.078 198.852 160.052 199.004 158.962C199.156 157.871 198.989 156.759 198.523 155.76C198.523 155.565 198.134 155.76 198.222 155.884C198.452 156.562 198.541 157.279 198.486 157.993C198.432 158.707 198.233 159.402 197.902 160.038C197.57 160.672 197.115 161.234 196.561 161.688C196.008 162.142 195.37 162.48 194.682 162.681L190.399 160.044C190.24 159.937 190.257 160.044 189.319 160.645C188.731 159.483 188.573 158.151 188.874 156.883C189.176 155.616 189.916 154.498 190.965 153.725C192.203 152.896 193.673 152.486 195.16 152.556C195.196 152.545 195.226 152.522 195.249 152.491C195.271 152.462 195.282 152.425 195.282 152.388C195.282 152.351 195.271 152.314 195.249 152.285C195.226 152.254 195.196 152.232 195.16 152.22C193.567 152.027 191.954 152.369 190.576 153.194C189.325 154.024 188.427 155.291 188.058 156.747C187.688 158.201 187.872 159.743 188.576 161.07C185.438 162.855 181.839 163.663 178.239 163.389C176.513 162.904 174.927 162.016 173.613 160.797C172.299 159.577 171.295 158.064 170.681 156.38ZM198.24 172.097C198.705 171.997 199.157 171.844 199.585 171.637C200.364 171.354 200.152 172.911 201.143 172.929C200.966 173.761 200.86 174.416 200.806 174.823C199.975 174.522 199.196 174.186 198.417 173.867C198.451 173.271 198.392 172.674 198.24 172.097ZM198.24 171.708C198.24 171.708 198.24 171.619 198.417 171.018C198.461 171.24 198.551 171.451 198.682 171.637L198.24 171.69V171.708ZM198.063 172.044C197.973 172.631 197.973 173.227 198.063 173.814C196.824 173.301 195.673 172.77 194.523 172.239C194.523 171.904 194.457 171.574 194.328 171.265C195.142 171.265 197.868 169.956 197.992 170.345C198.116 170.734 197.479 171.69 198.063 172.044ZM194.151 171.141C194.148 171.417 194.19 171.693 194.275 171.956C193.815 171.743 191.921 170.787 191.443 170.54C191.434 170.162 191.375 169.786 191.266 169.425C192.327 169.278 193.375 169.047 194.399 168.734C194.523 168.734 195.319 168.628 195.249 168.734C195.178 169.248 193.372 170.734 194.151 171.141ZM191.054 170.327C190.151 169.849 189.284 169.389 188.611 168.964C188.623 168.588 188.556 168.215 188.416 167.867C188.703 167.916 188.995 167.865 189.248 167.725C190.063 167.355 190.94 167.144 191.833 167.106C191.458 167.538 191.138 168.013 190.877 168.522C190.808 169.129 190.868 169.744 191.054 170.327ZM188.204 168.734L186.239 167.548C186.279 167.023 186.226 166.497 186.08 165.991C186.646 166.115 188.116 165.531 188.788 165.584C188.468 166.017 188.179 166.473 187.921 166.947C187.921 167.554 188.017 168.158 188.204 168.734ZM188.965 166.168C188.921 166.52 188.921 166.877 188.965 167.23C188.841 167.23 188.434 167.424 188.399 167.23C188.363 167.035 188.753 166.38 188.965 166.168ZM192.08 167.69C192.07 168.037 192.111 168.383 192.204 168.717C191.933 168.817 191.645 168.871 191.355 168.876C191.355 168.876 191.284 168.628 192.08 167.69ZM195.479 169.46C195.502 169.751 195.567 170.037 195.673 170.31C195.321 170.444 194.961 170.556 194.594 170.646C194.806 170.327 195.089 169.92 195.479 169.442V169.46ZM185.726 165.778C185.717 166.309 185.784 166.84 185.921 167.354C185.62 167.169 185.323 166.975 185.036 166.77L184.629 163.796C185.071 163.796 185.992 163.53 185.992 163.796C185.992 164.061 185.248 165.23 185.726 165.761V165.778ZM189.514 160.999C189.762 160.84 190.027 160.645 190.275 160.451L194.169 162.84C193.305 163.014 192.409 162.941 191.586 162.626C190.763 162.314 190.045 161.774 189.514 161.07V160.999ZM170.557 176.717C170.132 176.593 172.575 172.805 172.858 172.363C173.725 170.964 177.92 164.486 178.274 163.955C179.738 164.041 181.205 163.952 182.646 163.69C182.929 174.168 184.823 178.522 187.124 182.611C185.938 182.239 184.735 182.788 183.691 182.416C182.221 181.921 182.275 179.797 180.151 179.673C178.763 179.837 177.428 180.301 176.239 181.036C175.761 181.23 175.655 181.036 175.531 180.823C175.355 179.626 175.096 178.443 174.752 177.283C173.938 175.885 171.389 177 170.557 176.717ZM126.431 227.551L134.785 232.596C134.299 233.056 133.772 233.471 133.21 233.835C131.847 234.561 130.431 234.012 130.414 235.092C122.785 238.012 111.298 251.482 125.617 263.783C143.919 279.483 164.752 285.749 145.37 300.723C140.06 304.883 134.591 304.263 128.272 300.174C121.333 295.626 121.404 275.589 114.749 263.217C103.687 242.632 99.1199 249.57 77.7383 234.1L126.431 227.551ZM151.016 301.891C150.993 301.891 150.971 301.887 150.948 301.878C150.928 301.869 150.907 301.856 150.891 301.84C150.875 301.823 150.862 301.803 150.853 301.782C150.844 301.76 150.839 301.738 150.839 301.714C150.839 301.691 150.844 301.669 150.853 301.646C150.862 301.624 150.875 301.605 150.891 301.589C150.907 301.573 150.928 301.56 150.948 301.551C150.971 301.542 150.993 301.537 151.016 301.537C151.052 301.549 151.083 301.571 151.105 301.602C151.127 301.632 151.139 301.669 151.139 301.705C151.139 301.742 151.127 301.779 151.105 301.809C151.083 301.84 151.052 301.862 151.016 301.874V301.891ZM141.954 307.201C141.88 307.215 141.804 307.213 141.731 307.194C141.658 307.175 141.59 307.139 141.531 307.092C141.473 307.043 141.427 306.983 141.395 306.915C141.363 306.847 141.346 306.772 141.346 306.697C141.346 306.622 141.363 306.546 141.395 306.479C141.427 306.411 141.473 306.35 141.531 306.302C141.59 306.253 141.658 306.219 141.731 306.2C141.804 306.18 141.88 306.179 141.954 306.192C142.097 306.192 142.235 306.25 142.336 306.35C142.437 306.452 142.494 306.589 142.494 306.732C142.494 306.875 142.437 307.012 142.336 307.114C142.235 307.215 142.097 307.272 141.954 307.272V307.201ZM119.156 305.962C119.338 305.437 119.607 304.946 119.953 304.511C119.156 303.414 118.679 302.865 120.059 302.936C120.464 302.965 120.863 303.049 121.245 303.183C122.661 301.626 122.909 301.732 122.856 303.856C123.21 304.033 124.042 304.458 124.201 304.812C124.36 305.166 123.457 305.378 122.82 305.573C122.82 305.998 122.661 307.343 122.254 307.343C121.847 307.343 121.617 306.688 121.086 306.015C120.36 306.21 119.068 306.67 119.156 306.033V305.962ZM118.926 283.413C118.852 283.426 118.776 283.424 118.703 283.405C118.63 283.386 118.562 283.35 118.504 283.303C118.446 283.254 118.399 283.194 118.367 283.126C118.335 283.059 118.318 282.983 118.318 282.908C118.318 282.833 118.335 282.758 118.367 282.69C118.399 282.622 118.446 282.561 118.504 282.513C118.562 282.464 118.63 282.43 118.703 282.411C118.776 282.392 118.852 282.39 118.926 282.404C119.07 282.404 119.207 282.461 119.308 282.561C119.41 282.663 119.466 282.8 119.466 282.943C119.466 283.086 119.41 283.224 119.308 283.325C119.207 283.426 119.07 283.483 118.926 283.483V283.413ZM97.5446 257.748C97.4706 257.761 97.3944 257.759 97.3213 257.74C97.2483 257.721 97.1804 257.685 97.1221 257.638C97.0642 257.589 97.0175 257.529 96.9853 257.461C96.9535 257.394 96.9367 257.318 96.9367 257.243C96.9367 257.168 96.9535 257.093 96.9853 257.025C97.0175 256.957 97.0642 256.896 97.1221 256.848C97.1804 256.799 97.2483 256.765 97.3213 256.746C97.3944 256.727 97.4706 256.725 97.5446 256.739C97.619 256.725 97.6953 256.727 97.7683 256.746C97.8414 256.765 97.9093 256.799 97.9675 256.848C98.0254 256.896 98.0721 256.957 98.1043 257.025C98.1365 257.093 98.1532 257.168 98.1532 257.243C98.1532 257.318 98.1365 257.394 98.1043 257.461C98.0721 257.529 98.0254 257.589 97.9675 257.638C97.9093 257.685 97.8414 257.721 97.7683 257.74C97.6953 257.759 97.619 257.761 97.5446 257.748ZM90.4647 246.703C90.3906 246.716 90.3144 246.714 90.2413 246.695C90.1683 246.676 90.1003 246.641 90.0421 246.594C89.9842 246.545 89.9375 246.484 89.9053 246.417C89.8735 246.349 89.8567 246.273 89.8567 246.198C89.8567 246.123 89.8735 246.048 89.9053 245.98C89.9375 245.912 89.9842 245.852 90.0421 245.803C90.1003 245.754 90.1683 245.72 90.2413 245.701C90.3144 245.682 90.3906 245.679 90.4647 245.694C90.538 245.676 90.614 245.676 90.6877 245.691C90.761 245.707 90.8302 245.738 90.8904 245.782C90.9506 245.828 90.9998 245.886 91.0352 245.952C91.0706 246.018 91.0912 246.092 91.0951 246.166C91.099 246.241 91.0864 246.316 91.0581 246.385C91.0301 246.456 90.9866 246.518 90.9319 246.57C90.8769 246.62 90.8112 246.658 90.7398 246.682C90.6684 246.706 90.5924 246.711 90.5177 246.703H90.4647ZM69.7025 243.163C69.7769 243.15 69.8532 243.151 69.9262 243.17C69.9993 243.189 70.0672 243.223 70.1254 243.272C70.1833 243.32 70.23 243.381 70.2622 243.449C70.2944 243.517 70.3111 243.592 70.3111 243.667C70.3111 243.742 70.2944 243.818 70.2622 243.886C70.23 243.953 70.1833 244.014 70.1254 244.063C70.0672 244.109 69.9993 244.145 69.9262 244.164C69.8532 244.183 69.7769 244.185 69.7025 244.172C69.6282 244.18 69.5526 244.174 69.4811 244.151C69.4094 244.127 69.344 244.089 69.289 244.039C69.234 243.987 69.1909 243.925 69.1625 243.854C69.1345 243.785 69.122 243.71 69.1255 243.634C69.1297 243.561 69.15 243.487 69.1854 243.421C69.2208 243.355 69.2703 243.297 69.3302 243.251C69.3904 243.207 69.4596 243.176 69.5333 243.16C69.6066 243.145 69.6829 243.145 69.7556 243.163H69.7025ZM58.0382 207.763C58.7704 207.173 59.6045 206.723 60.4985 206.435C60.4985 204.134 60.3215 202.895 62.1446 204.258C62.6773 204.692 63.1532 205.192 63.5606 205.745C64.3826 205.496 65.2338 205.36 66.0918 205.338C66.3396 205.338 66.4989 205.479 66.4812 205.727C66.179 206.64 65.7239 207.496 65.1359 208.258C65.6467 209.052 65.9621 209.956 66.0563 210.896C65.897 211.763 64.5341 211.002 63.4367 210.683C62.9588 211.25 61.4897 213.126 60.941 212.701C60.3923 212.276 60.6932 211.179 60.6224 209.692C59.5427 209.303 57.3479 208.595 58.0913 207.763H58.0382ZM51.5246 223.374C51.599 223.359 51.6753 223.362 51.7483 223.382C51.8214 223.4 51.8893 223.435 51.9475 223.483C52.0054 223.532 52.0521 223.592 52.0843 223.66C52.1165 223.728 52.1332 223.803 52.1332 223.878C52.1332 223.954 52.1165 224.029 52.0843 224.097C52.0521 224.165 52.0054 224.225 51.9475 224.274C51.8893 224.321 51.8214 224.356 51.7483 224.376C51.6753 224.395 51.599 224.396 51.5246 224.383C51.4503 224.392 51.3747 224.386 51.3032 224.362C51.2315 224.339 51.1661 224.3 51.1111 224.25C51.0561 224.199 51.013 224.137 50.9846 224.066C50.9566 223.997 50.9441 223.921 50.9476 223.846C50.9518 223.772 50.9721 223.698 51.0075 223.632C51.0429 223.566 51.0924 223.508 51.1523 223.463C51.2125 223.418 51.2817 223.387 51.3554 223.371C51.4287 223.356 51.505 223.356 51.5777 223.374H51.5246ZM222.241 282.156C215.763 290.599 119.032 337.539 109.616 342.086C87.5088 315.839 53.0999 267.978 32.9219 240.048L51.1529 237.658C62.5163 255.588 79.9332 251.429 89.2788 257.128C99.7925 263.553 105.209 268.403 108.395 280.864C112.731 297.803 107.262 305.113 119.935 310.511C132.078 315.662 156.185 313.591 165.955 296.829C175.726 280.067 156.592 272.739 139.405 264.969C122.218 257.199 125.245 246.437 127.582 243.393C129.366 241.077 131.435 238.994 133.741 237.198C134.614 237.201 135.471 236.975 136.229 236.543C136.987 236.112 137.618 235.49 138.06 234.738C140.131 235.853 218.683 280.12 222.294 282.156H222.241ZM156.751 303.024C156.775 303.024 156.797 303.029 156.819 303.037C156.841 303.046 156.86 303.06 156.877 303.076C156.893 303.092 156.906 303.111 156.915 303.133C156.924 303.155 156.928 303.178 156.928 303.201C156.928 303.225 156.924 303.247 156.915 303.269C156.906 303.29 156.893 303.31 156.877 303.326C156.86 303.343 156.841 303.356 156.819 303.365C156.797 303.374 156.775 303.378 156.751 303.378C156.728 303.376 156.705 303.371 156.685 303.362C156.663 303.351 156.645 303.337 156.629 303.32C156.612 303.303 156.601 303.282 156.593 303.26C156.586 303.238 156.582 303.216 156.583 303.192C156.584 303.169 156.59 303.146 156.601 303.125C156.61 303.104 156.624 303.085 156.642 303.07C156.658 303.054 156.679 303.042 156.701 303.034C156.723 303.027 156.745 303.023 156.769 303.024H156.751ZM161.282 285.094C161.07 285.236 160.751 285.094 160.256 284.846C159.477 285.714 159.105 285.961 159.194 284.492C158.433 284.244 158.008 284.121 158.716 283.713C158.928 283.598 159.154 283.508 159.388 283.448C159.583 282.227 159.742 282.209 160.415 283.236C160.741 283.156 161.08 283.156 161.406 283.236C161.654 283.377 161.247 283.713 160.964 284.05C161.07 284.298 161.495 284.97 161.3 285.094H161.282ZM135.157 236.136C134.475 236.361 133.742 236.389 133.044 236.217C132.346 236.044 131.71 235.68 131.21 235.162H131.369C134.715 234.649 134.219 233.268 135.954 232.419C136.113 232.596 135.954 232.543 138.768 232.755C138.057 234.314 136.76 235.53 135.157 236.136ZM139.246 229.056C138.99 229.532 138.891 230.078 138.963 230.613C138.963 230.737 138.839 231.304 138.768 231.835L136.856 231.675C136.856 231.587 138.113 228.596 138.202 228.312H139.405L139.246 229.056ZM138.892 224.082C137.671 226.365 137.122 230.613 136.042 229.87C135.665 229.479 135.45 228.962 135.441 228.419C135.384 227.398 135.528 226.376 135.865 225.41C136.154 224.396 136.662 223.458 137.353 222.663C138.045 221.868 138.902 221.234 139.866 220.808C138.928 224.418 139.193 223.604 138.892 224.153V224.082ZM140.166 226.755C140.449 225.923 140.839 224.702 141.388 223.109C141.618 222.985 141.671 223.109 141.972 223.852C142.45 225.091 139.653 228.242 139.653 228.242C139.83 227.728 140.025 227.233 140.166 226.826V226.755ZM190.151 196.081C183.903 205.479 179.266 209.692 171.973 213.781C164.865 217.563 157.306 220.429 149.476 222.312C146.326 223.286 143.689 230.277 140.237 230.596C139.848 230.596 139.582 230.596 139.901 229.711C140.697 227.498 143.582 225.657 142.75 223.551C142.645 223.234 142.503 222.932 142.326 222.648C142.182 222.417 141.964 222.241 141.706 222.153C141.812 221.799 142.166 220.772 142.644 219.321C143.051 219.038 143.335 218.949 145.193 217.852C151.423 214.17 153.866 207.568 159.105 201.391C161.872 198.006 165.103 195.026 168.699 192.541C168.964 192.381 168.522 192.647 170.575 186.169C171.761 182.434 173.141 178.487 173.548 177.319C173.625 177.329 173.699 177.357 173.762 177.4C173.827 177.443 173.882 177.5 173.92 177.567C174.38 178.434 174.292 180.098 174.681 181.107C175.602 183.337 177.885 180.345 179.991 180.399C181.761 180.399 181.761 182.434 183.531 182.947C184.859 183.337 186.186 182.523 187.425 183.107C189.049 185.866 190.959 188.448 193.125 190.806C192.321 192.685 191.324 194.477 190.151 196.152V196.081ZM201.019 196.647C195.662 192.817 191.183 187.887 187.885 182.186C185.708 178.398 183.691 174.168 183 163.548C183.418 163.476 183.832 163.38 184.239 163.265L184.611 166.805C186.561 168.281 188.62 169.606 190.771 170.77C190.771 170.77 189.266 179.283 196.081 190.24C199.355 195.621 201.019 196.718 201.019 196.718V196.647ZM233.923 219.48C234.242 223.339 230.737 244.402 230.259 247.269C230.231 247.279 230.206 247.295 230.184 247.318C230.163 247.338 230.146 247.365 230.135 247.393C230.365 246.526 226.383 259.925 226.082 264.12C226.082 264.456 226.082 264.297 229.109 266.916C230.135 267.819 233.658 270.81 233.835 271.854C233.916 272.126 233.916 272.415 233.835 272.686C232.254 271.011 230.367 269.654 228.277 268.686C228.24 268.663 228.194 268.655 228.151 268.665C228.107 268.674 228.07 268.701 228.047 268.739C228.023 268.776 228.016 268.822 228.026 268.864C228.036 268.909 228.063 268.946 228.1 268.969L229.534 270.138C230.967 271.111 232.286 272.245 233.463 273.518C233.286 273.961 232.897 273.996 232.436 273.872C232.436 272.952 228.401 270.722 227.126 269.961C226.932 269.854 226.755 270.138 226.949 270.244C228.727 271.27 230.383 272.493 231.888 273.89C231.321 275.164 229.604 273.341 223.356 270.775C222.231 270.269 221.039 269.922 219.816 269.748C219.734 269.742 219.651 269.763 219.582 269.809C219.511 269.853 219.456 269.918 219.427 269.996C219.268 270.456 219.763 270.438 221.356 272.049C221.695 272.346 221.988 272.692 222.223 273.076C221.163 273.201 220.092 272.95 219.197 272.368C218.487 271.893 217.928 271.228 217.583 270.447C217.238 269.667 217.123 268.804 217.25 267.96C217.551 266.19 219.303 265.288 218.577 263.712C217.852 262.137 216.365 251.907 216.152 250.437C214.188 237.145 214.931 236.862 214.559 236.755C214.559 218.312 215.143 218.241 215.002 217.285C215.002 217.091 211.037 189.868 211.002 189.656C212.17 189.656 213.002 190.948 213.657 192.01C214.612 193.532 215.427 194.523 217.338 193.939C219.25 193.355 220.878 191.744 222.648 191.107C224.418 190.47 225.356 191.107 227.286 191.727C228.029 192.082 228.868 192.182 229.675 192.013C230.481 191.843 231.209 191.412 231.746 190.788C234.826 188.222 233.374 187.585 239.676 190.063C238.454 194.824 235.711 208.276 235.658 208.488C234.54 212.046 233.956 215.75 233.923 219.48ZM210.789 188.788C209.401 189.29 208.047 189.88 206.736 190.558C206.435 190.558 206.311 190.558 206.223 190.204C205.674 187.673 212.117 157.707 228.171 156.574C235.498 156.079 240.561 169.23 242.773 176.239C244.229 180.693 245.359 185.25 246.154 189.868C246.472 193.072 237.127 187.071 234.436 187.691C233.374 187.939 232.897 188.841 231.374 190.116C229.852 191.39 229.073 191.39 227.728 190.912C226.14 190.042 224.277 189.813 222.524 190.275C220.648 190.948 219.091 192.523 217.214 193.107C215.621 193.62 215.126 192.523 214.223 191.107C213.32 189.691 212.4 188.487 210.789 188.718V188.788ZM237.162 205.497C237.906 202.559 239.215 196.47 240.189 190.098C241.817 190.735 245.375 192.293 246.561 191.16C246.738 190.971 246.865 190.741 246.933 190.492C247.001 190.241 247.006 189.979 246.95 189.726C246.309 185.99 245.422 182.301 244.295 178.682C241.924 170.805 236.383 155.672 228.135 156.185C211.391 157.353 204.86 187.567 205.426 190.293C205.442 190.468 205.499 190.637 205.591 190.787C205.683 190.937 205.808 191.064 205.957 191.159C206.106 191.252 206.274 191.31 206.45 191.33C206.624 191.349 206.801 191.327 206.966 191.266C207.975 191.019 209.409 189.921 210.718 189.62C210.913 192.842 211.285 197.125 212.064 202.665C209.078 201.491 206.195 200.069 203.444 198.417C197.89 193.023 193.976 186.17 192.151 178.646C191.529 176.184 191.173 173.662 191.089 171.124C194.303 172.919 197.64 174.485 201.072 175.814C201.13 175.836 201.19 175.845 201.252 175.839C201.312 175.833 201.371 175.814 201.423 175.78C201.475 175.748 201.517 175.704 201.55 175.65C201.581 175.599 201.598 175.538 201.603 175.478C202.25 170.478 204.37 165.783 207.692 161.991C211.077 158.239 215.574 155.672 220.524 154.663C220.604 154.65 220.678 154.611 220.735 154.555C220.793 154.498 220.831 154.424 220.844 154.344C220.859 154.264 220.847 154.182 220.812 154.11C220.777 154.036 220.719 153.975 220.648 153.937C217.142 151.913 213.525 150.087 209.816 148.468C207.518 147.4 205.108 146.592 202.63 146.061C203.109 144.74 203.431 143.368 203.585 141.972C207.125 140.467 224.985 142.68 237.021 141.423C238.844 141.31 240.652 141.02 242.419 140.556C253.269 140.255 269.606 153.601 272.615 159.619C275.624 165.637 275.146 173.159 268.474 182.523C262.19 191.284 239.605 204.063 237.18 205.426L237.162 205.497ZM285.324 241.233C287.784 233.481 283.89 226.224 282.492 223.976L294.209 223.657C295.718 224.55 296.869 225.939 297.466 227.587C298.426 230.054 298.937 232.674 298.971 235.322C295.466 236.897 288.97 239.871 285.324 241.163V241.233ZM299.732 234.844C299.634 232.251 299.034 229.702 297.962 227.339C297.252 225.672 296.006 224.289 294.422 223.41C295.128 222.651 295.984 222.048 296.935 221.64C296.935 222.206 296.245 223.41 297.077 223.533C297.909 223.657 297.997 222.843 298.51 222.578C298.723 222.471 299.148 222.454 298.971 222.914C298.794 223.374 298.404 224.064 298.811 224.684C299.111 225.036 299.524 225.274 299.98 225.357C300.086 225.357 299.378 225.852 299.183 226.419C299.137 226.553 299.145 226.699 299.204 226.827C299.263 226.957 299.37 227.057 299.502 227.109C300.103 227.339 301.148 226.737 301.803 227.392C302.068 227.675 301.927 227.941 301.59 228.135C300.776 228.649 300.67 229.251 301.431 229.905C301.813 230.171 302.154 230.494 302.44 230.861C301.884 230.857 301.342 231.038 300.9 231.375C300.816 231.44 300.748 231.522 300.701 231.617C300.653 231.712 300.629 231.817 300.629 231.923C300.629 232.029 300.653 232.134 300.701 232.229C300.748 232.325 300.816 232.407 300.9 232.472C301.289 232.808 302.245 233.162 302.458 233.463C301.615 234.025 300.698 234.466 299.732 234.773V234.844ZM321.202 222.595C320.476 225.551 304.546 232.684 303.413 233.215C303.219 232.525 302.104 232.189 301.643 231.852C302.139 231.587 303.13 231.693 303.325 231.074C303.52 230.454 302.139 229.428 301.82 229.02C302.121 228.737 303.201 228.224 302.723 227.25C302.506 226.885 302.179 226.597 301.787 226.427C301.396 226.259 300.962 226.219 300.546 226.312H300.28C300.67 225.817 301.307 225.18 300.723 224.755C300.139 224.33 299.749 224.755 299.449 224.171C301.13 224.383 302.511 224.613 303.573 224.843C303.608 224.848 303.645 224.846 303.679 224.836C303.713 224.826 303.745 224.808 303.772 224.784C303.798 224.76 303.82 224.731 303.834 224.699C303.848 224.666 303.856 224.631 303.856 224.595C303.856 225.303 303.36 220.507 305.874 219.94C306.996 219.822 308.13 219.982 309.176 220.403C310.223 220.827 311.15 221.501 311.874 222.365C311.915 222.417 311.971 222.457 312.033 222.477C312.097 222.499 312.163 222.504 312.228 222.489C312.883 222.365 318.317 221.25 320.494 222.047C320.742 222.029 321.255 222.277 321.202 222.525V222.595Z" fill="black"/>
</svg>
