<svg width="309" height="304" viewBox="0 0 309 304" fill="none" xmlns="http://www.w3.org/2000/svg">
<path d="M69.9773 37.9455C69.9309 38.72 69.6892 39.4702 69.2746 40.1261C68.8601 40.7821 68.2862 41.3223 67.6065 41.6966C68.1836 42.6746 68.4563 43.8025 68.3898 44.9362C68.3233 46.0699 67.9206 47.1581 67.233 48.062C66.5601 48.9436 65.662 49.6276 64.6333 50.0419C63.6046 50.4562 62.4832 50.5857 61.3871 50.4166C61.0948 51.2123 60.3966 52.5926 59.6009 52.8524C59.4781 52.9164 59.3416 52.9498 59.2031 52.9498C59.0645 52.9498 58.9281 52.9164 58.8052 52.8524C58.998 53.9922 59.5358 55.0454 60.3459 55.8701C61.156 56.6947 62.1995 57.2511 63.3357 57.4641C67.0544 58.1299 70.5294 56.912 70.5294 53.1284C71.4193 53.308 72.3376 53.2921 73.2208 53.0818C74.104 52.8715 74.931 52.4719 75.6445 51.9105C76.1527 51.4941 76.5735 50.9813 76.8829 50.4017C77.1922 49.822 77.3839 49.1869 77.4469 48.5329C77.6093 44.3434 74.7027 41.5667 72.9002 41.5667C74.2155 39.2446 73.3711 37.231 71.2763 35.7046C70.7424 35.3733 70.145 35.1576 69.5226 35.0713C69.8583 35.991 70.0127 36.967 69.9773 37.9455ZM37.5166 39.1471C37.5898 39.1471 37.6601 39.118 37.7118 39.0663C37.7636 39.0145 37.7927 38.9443 37.7927 38.8711C37.7927 38.7979 37.7636 38.7276 37.7118 38.6759C37.6601 38.6241 37.5898 38.595 37.5166 38.595L36.5261 38.4813C36.2176 38.4813 35.7142 38.4813 35.4219 38.3839C35.2329 36.0006 35.2329 33.6061 35.4219 31.2228C35.4186 31.1549 35.3918 31.0902 35.3461 31.04C35.3004 30.9897 35.2385 30.9569 35.1712 30.9473C35.104 30.9377 35.0354 30.9519 34.9774 30.9873C34.9195 31.0228 34.8756 31.0773 34.8535 31.1416C34.1474 32.9495 33.832 34.8865 33.9279 36.825C33.9025 37.4957 33.9625 38.1669 34.1066 38.8224C34.4963 39.8454 36.4611 39.3907 37.5166 39.1471ZM29.982 29.6801C29.2025 29.8912 28.1471 30.6544 28.5368 30.9467C29.1093 31.2095 29.7618 31.2386 30.3555 31.0279C30.9238 30.8818 31.8657 30.3134 31.8494 30.0211C31.8332 29.7288 30.7452 29.469 29.982 29.6801ZM40.5045 30.8168C46.2204 32.0022 43.5736 29.8263 40.7643 29.469C40.0336 29.3716 38.3286 29.469 38.361 29.875C38.3935 30.2809 40.0661 30.7194 40.5045 30.8168ZM41.7873 33.5449C41.7418 33.4645 41.6809 33.394 41.608 33.3374C41.535 33.2808 41.4516 33.2392 41.3625 33.2151C41.2734 33.1909 41.1804 33.1846 41.0889 33.1966C40.9974 33.2087 40.9091 33.2387 40.8293 33.285C40.4233 33.5124 40.4395 33.756 40.537 35.0713C40.5499 35.2565 40.6359 35.4289 40.7759 35.5507C40.916 35.6726 41.0988 35.7337 41.2839 35.7208C41.4691 35.7079 41.6416 35.6219 41.7634 35.4819C41.8852 35.3418 41.9464 35.159 41.9335 34.9738C41.9579 34.4929 41.9086 34.011 41.7873 33.5449ZM30.2905 34.438C30.3056 34.2528 30.2465 34.0692 30.1262 33.9276C30.0059 33.786 29.8343 33.698 29.6491 33.6829C29.4639 33.6678 29.2803 33.7269 29.1387 33.8472C28.9971 33.9675 28.9091 34.1391 28.894 34.3243C28.8632 34.7188 28.8632 35.1152 28.894 35.5097C28.9069 35.6949 28.9929 35.8674 29.133 35.9892C29.2731 36.111 29.4558 36.1722 29.641 36.1593C29.8262 36.1463 29.9986 36.0604 30.1205 35.9203C30.2423 35.7802 30.3034 35.5975 30.2905 35.4123C30.323 35.0713 30.2743 34.6328 30.2905 34.438ZM35.9253 45.0092C35.9253 45.5288 37.9875 45.6587 39.0593 44.587C39.855 43.7913 39.8062 42.5734 39.4815 42.4922C39.1567 42.411 39.3678 42.4922 38.1986 43.499C37.4679 44.1161 35.8928 44.6032 35.9253 45.0092Z" fill="black"/>
<path d="M307.849 31.5153C307.425 31.3781 306.975 31.3347 306.533 31.388C306.09 31.4412 305.663 31.5899 305.284 31.8238C305.594 31.0803 305.7 30.2675 305.592 29.4692C305.3 28.1539 303.384 27.5531 301.809 29.4692C301.711 28.43 301.24 27.7155 300.412 27.5693C298.35 27.1796 297.457 31.1093 297.002 33.1716C295.93 32.3759 294.176 31.0281 293.3 32.0836C293.052 32.3485 292.885 32.6789 292.818 33.0358C292.752 33.3926 292.79 33.7609 292.926 34.0972C293.558 35.2007 294.457 36.1276 295.54 36.7928C295.232 37.5072 293.917 39.3909 293.235 40.4951C292.683 40.3327 291.513 40.0242 291.27 40.4951C285.57 48.2571 270.16 66.2493 260.563 65.8758C245.737 65.3075 227.079 58.1301 225.212 58.3899L222.597 52.6577C225.473 50.6884 227.633 47.8395 228.752 44.5385C230.573 39.5001 231.4 34.1566 231.188 28.8034C231.2 27.0682 231.118 25.3336 230.944 23.6071C237.797 23.1525 242.311 15.082 236.968 8.40796C236.453 7.60776 235.782 6.91937 234.996 6.38375C234.209 5.84813 233.323 5.47623 232.389 5.29018C231.289 5.23287 230.187 5.38156 229.142 5.72862C222.646 7.35246 222.549 3.24414 218.099 2.13992C216.066 1.79919 213.978 2.01811 212.059 2.77322C205.563 5.0466 206.83 8.66778 203.826 11.6881C202.202 13.312 195.268 11.0224 192.459 15.6341C189.471 20.6842 189.747 31.3691 194.083 35.5586C195.046 36.4238 196.109 37.1706 197.249 37.7833C198.301 38.8588 199.532 39.7434 200.887 40.3977C202.153 42.9796 203.598 50.4006 204.134 53.2098L203.631 57.4318C200.168 57.9761 196.753 58.7905 193.417 59.8676C187.951 61.6368 182.649 63.8752 177.568 66.5578C168.312 71.4293 169.449 71.3319 169.124 70.8123C168.002 69.5907 166.809 68.4358 165.552 67.3535C156.686 59.8838 147.072 53.5183 135.722 51.6509L134.39 44.1001C137.963 41.1771 139.911 35.2826 139.976 31.1093C141.308 31.6614 142.363 30.6871 143.062 29.4855C143.256 29.1282 144.474 29.4855 145.416 27.3745C145.579 26.9344 145.579 26.4505 145.416 26.0104C145.742 25.8159 146.021 25.5524 146.234 25.2385C146.447 24.9245 146.589 24.5678 146.649 24.1932C146.709 23.8187 146.687 23.4355 146.583 23.0705C146.48 22.7056 146.298 22.3677 146.049 22.0807C146.55 21.7963 146.978 21.401 147.302 20.9253C147.625 20.4496 147.836 19.9061 147.917 19.3364C148.274 17.2092 147.787 15.2931 145.741 14.6273C145.741 14.1564 146.082 13.3769 146.082 13.2145C146.1 12.4584 145.965 11.7064 145.686 11.0033C145.407 10.3003 144.99 9.66064 144.458 9.12245C142.201 7.19008 141.486 7.35246 140.074 7.49861C140.074 6.5243 140.691 5.87476 139.668 4.54321C138.883 3.63794 137.839 2.99639 136.676 2.70583C135.514 2.41528 134.291 2.48984 133.172 2.91937L132.766 3.04928C132.513 2.41114 132.127 1.83386 131.634 1.35531C131.142 0.876761 130.554 0.507757 129.908 0.272504C127.879 -0.490703 126.482 0.499842 124.777 1.39296C122.228 -0.880425 117.356 0.337457 114.742 1.91259C113.556 2.62708 113.443 3.89368 112.972 4.47826C111.963 4.40471 110.958 4.66737 110.114 5.22523C109.367 5.69614 108.669 6.37816 108.068 6.84907C107.672 7.15624 107.345 7.5436 107.11 7.98576C106.607 8.81132 106.317 9.74864 106.265 10.7138C105.866 10.8094 105.487 10.9743 105.145 11.201C103.848 12.3624 102.936 13.892 102.53 15.5854C102.353 16.5223 102.443 17.4902 102.79 18.3784C102.79 18.4758 102.953 18.6707 103.001 18.7681C102.677 19.239 101.832 19.6125 101.67 20.8791C101.507 22.1457 101.556 24.6302 102.79 25.3771C103.31 25.6857 104.414 26.0104 104.804 26.254C104.742 26.9184 104.742 27.587 104.804 28.2513C105.226 30.9956 107.938 31.9862 110.731 31.5802L111.494 31.9699C111.791 34.8629 112.559 37.6878 113.767 40.3327C114.669 42.0799 116.027 43.5502 117.697 44.5872L116.918 51.5048C113.042 52.0711 109.234 53.0286 105.551 54.3627C94.395 58.4386 87.8834 63.7323 82.1187 72.9233C74.1781 66.3467 60.7327 56.49 50.3401 56.6686C50.4068 55.9665 50.4068 55.2597 50.3401 54.5576C50.3401 54.0867 50.0803 52.6415 49.6418 52.4304C49.6418 51.6347 49.5119 50.8065 49.447 50.0433C53.1169 55.467 60.6028 52.5928 59.7746 48.8904C60.7008 48.9517 61.628 48.7872 62.4766 48.411C63.3252 48.0348 64.0697 47.4582 64.6461 46.7307C65.2058 45.931 65.5059 44.9786 65.5059 44.0026C65.5059 43.0266 65.2058 42.0742 64.6461 41.2746C64.5117 41.058 64.3477 40.8613 64.159 40.69C66.6922 40.0404 67.5691 38.92 67.8938 37.3124C68.1552 36.0825 68.0594 34.8035 67.6178 33.6263C67.9068 33.4835 68.1791 33.3093 68.4297 33.1066C69.174 32.3954 69.679 31.4705 69.8749 30.4598C70.2627 26.941 69.4992 23.3914 67.699 20.3432C67.1156 19.3268 66.1611 18.576 65.0359 18.2485C64.8246 17.2817 64.6996 16.2981 64.6624 15.3093C64.3945 13.7739 63.7621 12.3252 62.8183 11.0847C61.8746 9.84432 60.6471 8.84841 59.2387 8.18062C57.8742 7.54085 56.3932 7.18718 54.8868 7.14136C54.2541 7.08888 53.6175 7.17192 53.0194 7.38494C51.9842 6.13271 50.6248 5.189 49.0897 4.65688C46.1106 4.10356 43.0317 4.60904 40.3859 6.08586C39.8501 6.44311 39.4279 7.14136 38.9569 7.48237C37.8008 6.9859 36.5474 6.75724 35.2905 6.81347C34.0335 6.86971 32.8055 7.2094 31.6984 7.80714C30.523 8.32214 29.464 9.06954 28.5849 10.0044C27.7059 10.9392 27.025 12.0422 26.5833 13.247C25.9012 14.8709 25.2842 17.534 26.3234 18.9305C26.3831 19.0078 26.4374 19.0892 26.4858 19.174C25.8688 20.262 24.456 20.7979 23.9851 23.8182C23.7933 25.3333 23.8536 26.8697 24.1637 28.365C24.2501 28.7333 24.4565 29.0625 24.7505 29.3006C25.0445 29.5387 25.4093 29.6723 25.7876 29.6803C25.2842 34.5519 25.3654 41.0472 28.0285 45.253C28.6915 46.2368 29.4651 47.1412 30.3343 47.9486C31.2423 48.8382 32.359 49.4858 33.582 49.8322V52.7227C32.7701 53.1773 33.3384 55.7593 32.9974 57.3181C26.4046 56.8635 17.1812 58.3899 12.0661 62.6119C4.1742 69.1722 0.958992 78.4281 0.114593 88.6583C-1.03834 102.77 6.60997 111.506 18.4803 113.016C19.226 115.486 20.1041 117.915 21.1109 120.291C16.0952 129.696 12.4273 139.759 10.2149 150.186C8.59106 159.02 7.82785 173.017 7.6817 186.446C7.6817 192.844 7.68171 216.845 9.82518 222.82C10.1662 223.762 11.6276 224.266 12.5857 224.542C15.25 225.239 17.9646 225.728 20.7049 226.003C21.3869 240.26 23.4168 294.546 23.4168 294.627C20.6266 296.12 18.0579 297.995 15.7847 300.197C15.4235 300.518 15.1526 300.929 14.9988 301.387C14.845 301.846 14.8136 302.336 14.9078 302.811C15.0751 303.233 15.3889 303.58 15.7917 303.789C16.1944 303.997 16.659 304.054 17.1 303.948C19.7956 303.704 27.0542 301.528 30.3343 300.927C30.4155 301.625 30.5292 302.307 31.2112 302.551C32.3804 302.957 34.6862 303.168 35.5306 302.113C36.375 301.057 35.8716 298.297 35.9853 297.111C36.0827 296.234 43.4875 245.148 46.0207 227.627H48.0505C51.1682 244.499 59.6934 292.743 59.7097 292.824C58.0216 294.107 56.4212 295.501 54.9193 296.998C53.669 298.264 51.5742 300.538 52.4024 302.096C53.2305 303.655 55.1791 302.86 56.8192 302.259C60.0669 301.122 64.9384 298.93 67.4229 298.118C67.6015 298.784 67.8126 299.45 68.5109 299.596C69.4798 299.742 70.4682 299.692 71.4176 299.45C72.7978 299.044 73.0414 298.183 73.0414 296.754C72.4406 289.56 72.4244 312.245 72.9115 227.302C74.7121 227.23 76.4962 226.929 78.2215 226.409C82.817 224.152 82.3948 158.208 76.419 137.455C76.0131 136.026 73.4474 128.572 71.6287 123.944C71.6857 123.787 71.6857 123.615 71.6287 123.457C71.0948 122.112 70.4932 120.795 69.8262 119.511C70.3134 113.536 70.833 102.006 71.3201 98.5151L75.3635 101.292C75.695 102.599 76.1631 103.867 76.76 105.075C77.4253 106.821 78.4936 108.384 79.8778 109.638C81.6269 111.25 83.7087 112.457 85.9759 113.176C88.2431 113.894 90.6405 114.106 92.9985 113.795H95.7265C98.8768 132.502 97.9674 130.537 98.4383 131.008C86.4706 172.254 82.6059 250.491 84.2297 290.145C84.2296 290.333 84.2925 290.516 84.4083 290.665C85.2365 291.72 90.4003 292.288 92.1054 292.581C88.9026 294.288 85.8546 296.272 82.9956 298.508C81.5504 299.92 83.4503 302.567 85.2203 303.022C86.1946 303.282 99.4451 301.398 100.452 301.252C100.582 301.869 100.874 302.47 101.491 302.584C103.228 302.883 104.991 303.008 106.752 302.957C107.467 302.957 108.376 302.795 108.539 302.113C109.081 299.41 109.396 296.667 109.48 293.912C110.633 293.912 111.786 293.912 112.16 293.587C115.408 290.34 129.908 207.702 131.094 201.028C131.497 198.789 131.601 196.507 131.402 194.241C129.048 166.392 129.925 177.856 129.551 167.122C129.567 167.059 129.603 167.002 129.654 166.961C129.706 166.921 129.77 166.899 129.835 166.899C129.901 166.899 129.965 166.921 130.016 166.961C130.068 167.002 130.104 167.059 130.12 167.122C131.208 179.886 131.857 180.324 132.734 197.147C132.734 198.3 145.968 288.846 148.355 291.217C149.627 291.743 150.991 292.008 152.366 291.996C152.211 295.492 152.489 298.994 153.194 302.421C153.239 302.55 153.31 302.668 153.402 302.768C153.494 302.869 153.606 302.95 153.73 303.006C154.916 303.59 159.349 303.006 160.226 302.892C160.504 302.787 160.749 302.607 160.932 302.372C161.115 302.137 161.23 301.856 161.265 301.561C162.645 301.755 175.538 303.574 176.48 303.331C178.25 302.876 180.166 300.229 178.705 298.8C175.323 296.214 171.727 293.922 167.955 291.947C169.904 291.801 173.996 291.444 175.685 290.453C178.234 288.943 175.798 175.664 155.338 129.206C155.711 128.605 157.14 111.928 157.205 111.181C162.338 111.007 167.311 109.355 171.528 106.423L178.023 104.085C174.068 119.156 171.101 134.469 169.141 149.926C168.767 152.979 166.883 168.146 168.913 170.419C169.123 170.655 169.412 170.805 169.725 170.841C170.651 170.922 174.353 171.247 178.299 171.491C178.299 218.079 182.878 243.086 190.267 292.142C190.29 292.294 190.366 292.433 190.482 292.534C190.598 292.636 190.746 292.692 190.9 292.694H191.322C191.628 294.956 192.123 297.189 192.8 299.368C193.823 301.431 209.688 301.382 211.929 300.667C212.32 300.467 212.63 300.138 212.807 299.736C212.985 299.334 213.019 298.883 212.903 298.459C212.254 295.569 206.408 294.935 203.647 292.857H204.605C204.755 292.861 204.901 292.812 205.02 292.721C205.138 292.629 205.221 292.499 205.255 292.353L217.677 230.176C217.823 231.086 226.56 293.506 226.56 293.506C226.587 293.67 226.673 293.817 226.802 293.922C226.93 294.027 227.092 294.081 227.258 294.075H228.541C228.769 296.363 229.138 298.635 229.645 300.879C229.67 300.981 229.718 301.077 229.786 301.159C229.853 301.24 229.938 301.306 230.035 301.349C231.658 302.113 245.932 302.973 248.287 301.69C248.714 301.459 249.04 301.075 249.199 300.615C249.358 300.155 249.34 299.653 249.147 299.206C248.74 298.075 248.012 297.088 247.053 296.364C245.088 295.276 241.661 295.033 239.826 294.075H240.736C240.891 294.065 241.039 294.007 241.159 293.908C241.279 293.808 241.364 293.673 241.402 293.522C241.402 293.522 246.127 276.164 248.904 236.233C250.528 212.947 250.982 189.142 250.804 166.116C252.882 166.278 256.422 166.44 258.176 166.359C258.663 166.359 259.134 166.359 259.345 165.888C261.229 162.137 259.8 124.854 258.744 115.452C258.647 114.542 256.325 99.0997 256.016 97.0861C261.424 96.875 269.234 95.7221 273.667 92.5556C296.401 76.3171 300.737 48.5819 302.588 44.8633C302.767 44.4735 302.328 44.2787 301.24 43.7428C301.865 41.8891 302.608 40.0775 303.465 38.3192C305.722 37.0688 308.336 35.6398 308.515 33.0579C308.601 32.7635 308.582 32.4481 308.461 32.1664C308.339 31.8847 308.123 31.6544 307.849 31.5153ZM145.903 14.9358C145.773 14.9358 145.741 14.8384 145.741 14.676C145.741 14.5136 146.049 14.9358 145.903 14.9358ZM205.677 76.6419C213.699 77.1453 218.473 77.2102 226.625 77.1615C227.144 80.3118 227.729 83.7543 228.362 87.408C223.994 87.408 209.184 87.5704 205.336 87.5054C205.515 83.9329 205.645 80.2793 205.677 76.6744V76.6419ZM203.55 110.629C213.001 111.181 220.016 111.327 232.568 111.067C233.412 115.695 234.289 120.372 235.069 124.48C227.469 124.708 209.931 125.016 202.04 124.789C202.348 122.207 202.981 115.939 203.55 110.661V110.629ZM201.358 130.018C213.731 130.732 223.637 130.765 236.221 130.391C236.839 133.509 237.439 136.529 238.024 139.371C223.669 139.923 209.623 139.956 199.636 139.761C200.297 136.546 200.87 133.298 201.358 130.018ZM231.512 105.222C226.641 105.319 208.779 105.514 204.037 105.449C204.459 100.805 204.784 96.5989 205.027 92.7829C212.822 93.2701 218.116 93.4487 229.385 93.3188C229.775 95.4622 231.204 103.435 231.512 105.222ZM224.53 61.8649C224.725 64.528 225.309 68.6526 225.715 71.2994C221.574 71.2994 208.908 71.4456 205.661 71.3969C205.628 68.0635 205.406 64.7346 204.995 61.4265C209.379 67.321 221.217 66.5091 224.53 61.8649ZM198.548 144.941C212.114 145.759 225.714 145.862 239.291 145.249C239.908 148.107 240.476 150.705 241.012 152.979C238.446 152.833 208.113 151.355 197.071 150.819C197.525 148.968 198.012 147.003 198.5 144.941H198.548ZM202.105 39.7969C201.536 38.6602 197.931 38.173 197.59 35.2988C197.201 31.9375 201.114 31.8238 202.462 33.334C202.575 33.4476 203.371 34.5194 203.469 34.6493C204.313 35.786 205.092 35.8184 205.352 34.1946C205.726 31.1743 204.8 25.1336 208.324 25.7669C210.842 26.5566 213.43 27.1004 216.053 27.3907C221.039 27.8454 225.001 27.3907 228.216 23.8182C228.573 23.737 229.759 23.6883 230.181 23.6559C230.329 25.3729 230.372 27.0974 230.311 28.8197C230.421 34.0323 229.517 39.2167 227.648 44.0838C225.066 50.2707 221.493 51.7646 221.493 51.7646C221.41 51.7962 221.335 51.8442 221.27 51.9055C221.206 51.9669 221.155 52.0404 221.12 52.1218C220.974 52.4953 220.925 52.1218 223.978 58.9582C224.627 64.8528 207.171 67.2561 204.914 58.0002L205.466 53.2748C205.531 52.9338 203.598 42.8335 202.056 39.7969H202.105ZM166.38 69.0261C171.515 74.124 175.053 80.6076 176.561 87.684C177.52 92.5556 177.114 96.6476 175.522 99.4569C174.48 101.261 173.178 102.903 171.657 104.328C170.064 105.957 168.12 107.201 165.974 107.966C161.466 109.619 156.629 110.176 151.863 109.59C145.524 108.789 139.266 107.447 133.156 105.579C133.156 105.092 133.059 104.572 133.01 103.955L138.612 101.909C139.685 101.61 140.724 101.202 141.714 100.691C142.282 100.399 142.331 99.5381 142.396 98.8074C142.672 96.1443 142.12 96.5015 142.932 95.852C144.75 94.423 149.752 93.0265 151.928 92.4094C152.658 92.2146 153.714 92.0522 153.389 91.3539C153.286 90.3565 152.878 89.4151 152.22 88.6583C148.794 74.1412 149.378 74.1899 148.826 74.2873C148.789 74.2908 148.752 74.3024 148.72 74.3214C148.687 74.3403 148.659 74.3661 148.637 74.397C148.616 74.4279 148.601 74.4632 148.594 74.5003C148.588 74.5375 148.589 74.5756 148.599 74.6121C149.33 78.9315 150.418 84.5175 151.197 88.2849L149.183 87.9926C148.842 87.9926 148.501 87.9926 148.42 87.8302C147.771 86.4824 148.047 84.891 146.488 84.1116C146.326 84.0023 146.142 83.9283 145.949 83.8944C145.757 83.8605 145.559 83.8676 145.369 83.915C145.179 83.9625 145.001 84.0493 144.847 84.1699C144.693 84.2905 144.566 84.4421 144.474 84.615C143.63 86.2388 144.653 89.8762 144.474 89.8275C143.61 90.1819 142.704 90.4274 141.779 90.5582C141.741 90.4095 141.675 90.2697 141.583 90.147C141.491 90.0243 141.375 89.9212 141.243 89.8437C137.948 88.2336 134.52 86.9133 130.996 85.8978C130.233 79.4998 129.226 71.4456 128.869 68.75C128.994 68.6921 129.109 68.6154 129.21 68.5227C129.783 67.3924 130.204 66.1911 130.461 64.9502C130.737 65.2587 130.964 65.551 131.467 65.3562C135.873 62.1546 140.036 58.6321 143.922 54.8174C152.16 58.2174 159.755 63.0009 166.38 68.9611V69.0261ZM145.822 85.4106C146.991 86.0764 146.358 88.0575 147.673 89.0481C148.991 89.4345 150.36 89.6206 151.733 89.6002C152.055 90.1357 152.26 90.7334 152.334 91.3539C151.067 91.7436 144.913 93.1077 142.347 94.8777C142.295 93.652 142.159 92.4313 141.941 91.224C143.273 91.1103 144.945 91.224 145.432 90.3634C145.92 89.5027 145.091 84.9722 145.822 85.4106ZM142.688 54.5576C139.781 57.0746 133.27 62.4657 131.321 63.8947C130.347 62.8067 127.797 59.7864 127.083 58.6822C128.707 57.2857 134.715 53.2261 135.592 52.7389C138.018 53.027 140.4 53.6049 142.688 54.4602V54.5576ZM117.113 52.6252L125.037 58.7309C123.835 60.0137 120.896 62.5632 119.581 63.8947C117.73 62.5632 112.679 57.2207 109.838 54.2653C112.224 53.5586 114.654 53.0107 117.113 52.6252ZM112.696 31.1255C112.468 30.8008 112.436 30.8982 110.78 30.0213C109.692 29.1282 108.376 28.3975 107.889 27.0659C107.889 25.9617 108.23 24.5977 109.383 24.6626C110.255 24.8635 111.064 25.2762 111.738 25.8643C112.475 26.106 113.267 26.1224 114.013 25.9112C114.76 25.7 115.426 25.2709 115.927 24.6789C116.49 23.6655 116.658 22.4797 116.398 21.35C117.466 21.2544 118.456 20.748 119.159 19.9373C119.505 19.2364 119.715 18.4758 119.776 17.6963C121.294 18.1279 122.917 18.0071 124.355 17.3553C125.338 16.9318 126.235 16.3319 127.002 15.5854C127.172 16.0126 127.395 16.4164 127.668 16.787C127.92 17.1731 128.272 17.484 128.686 17.6869C129.101 17.8898 129.562 17.9772 130.022 17.9399C130.595 17.849 131.146 17.6507 131.646 17.3553V18.0049C131.637 18.5029 131.738 18.9968 131.941 19.4518C132.144 19.9068 132.444 20.3118 132.82 20.6384C133.196 20.965 133.639 21.2052 134.118 21.3422C134.597 21.4792 135.1 21.5095 135.592 21.4312C135.582 21.5392 135.582 21.6479 135.592 21.756C135.754 22.6328 135.413 25.2797 136.631 25.5882C137.849 25.8968 137.183 22.8602 139.522 22.4867C139.942 22.3842 140.385 22.432 140.773 22.6218C141.162 22.8116 141.471 23.1315 141.649 23.5259C142.104 24.9874 141.649 25.6369 140.886 27.0822L140.382 27.6505C139.603 28.4949 138.758 29.388 138.758 30.1999C138.807 32.6838 138.337 35.1504 137.378 37.4423C136.553 39.7655 135.103 41.8162 133.189 43.3693C133.093 43.4426 133.019 43.5398 132.973 43.651C132.928 43.7622 132.912 43.8835 132.929 44.0026L134.26 51.8133L125.849 57.5292C124.371 56.3926 126.336 58.0814 118.249 51.8296L119.126 44.2787C119.141 44.1401 119.115 44.0002 119.052 43.8762C118.988 43.7521 118.89 43.6493 118.769 43.5804C112.939 40.3165 113.394 32.246 112.696 31.1255ZM93.8591 61.8162C98.3018 58.6346 103.24 56.2095 108.474 54.6388C111.446 58.0594 114.607 61.3121 117.941 64.3819C118.655 64.9989 119.565 65.7621 120.198 65.1126C120.425 64.8528 120.766 64.5118 121.156 64.122C121.561 65.5312 122.038 66.9187 122.585 68.2791C122.65 68.3994 122.737 68.5059 122.843 68.5922C122.949 68.6786 123.071 68.7433 123.202 68.7825C123.023 70.8772 122.585 76.9017 122.082 83.5757C116.93 82.4699 111.661 82.0009 106.395 82.1792C106.395 81.757 106.915 76.7556 106.931 76.5932C106.931 75.7163 106.931 74.5634 107.028 74.1087C107.048 74.0376 107.038 73.9618 107.002 73.8978C106.965 73.8339 106.905 73.7871 106.834 73.7677C106.763 73.7483 106.687 73.7579 106.623 73.7945C106.559 73.831 106.512 73.8915 106.493 73.9625C105.047 76.9017 105.307 78.9802 105.502 82.2279C101.87 82.4075 98.3097 83.3072 95.0283 84.8748C94.9615 84.9092 94.9112 84.9688 94.8883 85.0404C94.8655 85.1119 94.872 85.1896 94.9065 85.2564C94.9409 85.3231 95.0005 85.3735 95.0721 85.3963C95.1436 85.4191 95.2213 85.4126 95.2881 85.3782C106.655 79.8246 127.278 85.0859 138.239 89.8113C139.003 90.1246 139.747 90.4881 140.463 90.8992C140.964 93.4598 141.117 96.0761 140.918 98.6774C140.918 99.4082 140.918 99.5868 139.619 100.09C138.693 100.464 137.589 100.723 136.907 100.983C134.683 101.811 132.539 102.607 130.412 103.419C118.404 107.273 106.134 110.258 93.6967 112.35C89.6533 112.35 84.3271 111.603 81.3555 108.81C68.4947 96.7776 81.9401 70.0004 93.8591 61.8162ZM32.9974 48.0622C31.4882 47.1919 30.1993 45.9863 29.2301 44.5385C26.6969 40.6088 26.6644 34.1784 27.0866 29.5342C29.3553 28.8281 31.4176 27.5796 33.0949 25.8968C34.9103 24.0415 36.4967 21.9753 37.8202 19.7424L38.7296 17.9886C40.3758 22.1994 43.1932 25.8508 46.8488 28.5112C48.1198 29.093 49.4949 29.4133 50.8922 29.453C50.8603 30.7265 50.9968 31.9987 51.2982 33.2365C51.3306 33.3021 51.3761 33.3604 51.4319 33.4077C51.4876 33.455 51.5525 33.4904 51.6225 33.5117C51.6925 33.533 51.7661 33.5397 51.8387 33.5315C51.9114 33.5233 51.9817 33.5003 52.0451 33.4639C52.7596 33.0742 53.0357 30.9794 54.1399 29.5342C54.4322 29.1282 54.7732 28.8197 55.1954 28.9171C55.6407 28.9853 56.0635 29.1578 56.4295 29.4205C58.0533 30.6222 56.7543 35.4287 53.7177 36.9227C52.8083 37.3773 48.0667 42.8984 47.7582 44.6359C47.555 45.5903 47.6054 46.5813 47.9043 47.5101C48.0017 48.9229 48.1641 50.7578 48.2778 52.3817C45.2737 52.3817 37.9502 52.3817 34.946 52.5278C35.0922 48.5169 35.1734 48.9391 32.9974 48.0622ZM63.3308 226.344H51.0708C52.9382 203.221 55.2116 146.516 54.7245 126.429C56.8896 126.332 58.8382 126.202 60.5703 126.039C64.2727 145.184 66.3349 207.621 63.3308 226.344ZM22.7347 224.866C20.981 205.494 22.7347 142.619 27.3789 125.812C28.1909 125.926 34.0042 126.445 34.0042 126.445C31.536 146.289 29.0028 203.237 29.8797 225.5C27.249 225.305 24.8457 225.061 22.6373 224.866H22.7347ZM40.6945 125.26L34.5888 125.016C34.5746 123.266 34.6995 121.518 34.9623 119.787L37.1545 119.625L41.8961 119.511C41.6626 121.459 41.2605 123.382 40.6945 125.26ZM21.8903 119.917L33.647 119.69C33.3178 121.479 33.1655 123.295 33.1923 125.114C28.7807 125.078 24.3823 124.627 20.0554 123.766C21.257 121.135 21.7604 120.242 21.8903 119.917ZM35.1247 225.792C34.5888 205.526 37.8852 143.528 39.9962 126.526C42.2209 126.526 43.8772 126.64 48.4889 126.526C48.4889 134.223 46.183 216.65 45.6472 226.149C42.8704 226.149 35.8392 225.841 35.1247 225.792ZM41.9448 125.276C42.3433 123.381 42.5392 121.448 42.5294 119.511C53.1981 119.317 63.6394 119.057 68.3485 119.69C68.9901 120.821 69.5333 122.006 69.9724 123.23C60.7976 125.195 50.5025 125.276 41.9448 125.276ZM11.3678 222.625C8.55858 220.839 7.64923 170.435 11.0918 150.332C12.8427 141.334 15.7519 132.601 19.7469 124.35L21.4519 124.708C16.9051 141.125 15.0864 200.785 17.3436 224.103C15.293 223.889 13.282 223.391 11.3678 222.625ZM34.8648 295.698C30.3506 296.315 27.9148 296.673 26.1448 297.062C25.1292 297.158 24.1134 296.881 23.2868 296.283C24.6184 295.487 24.9107 295.601 24.9107 294.838C25.0568 291.688 21.8416 232.32 21.4519 226.036C28.8566 226.88 38.1125 227.335 45.5173 227.546C43.0003 243.037 36.0178 287.758 34.8161 295.747L34.8648 295.698ZM71.2065 292.353C67.0819 293.506 64.5 294.253 62.7625 294.903C61.7682 295.139 60.7219 295 59.8233 294.513C60.9925 293.587 61.2361 293.652 61.1711 292.889C60.8788 289.642 49.4307 230.907 48.7812 227.643C57.9722 227.838 66.6435 227.741 72.2782 227.351C71.9047 245.587 71.2552 284.916 71.1578 292.402L71.2065 292.353ZM75.331 137.747C80.7547 156.957 81.3068 215.692 77.6531 225.126C76.2891 225.808 70.1672 226.068 68.6733 226.133C71.921 205.916 70.2971 144.941 66.5785 125.244C68.1049 125 69.469 124.74 70.7356 124.464C72.538 129.384 74.9088 136.464 75.2823 137.796L75.331 137.747ZM63.8667 90.2822C63.1685 89.6489 62.4864 89.0805 61.9019 88.4635C61.8566 88.4053 61.7902 88.3675 61.7171 88.3584C61.644 88.3493 61.5703 88.3695 61.5121 88.4147C61.454 88.46 61.4162 88.5264 61.4071 88.5995C61.3979 88.6726 61.4182 88.7463 61.4634 88.8045C64.2402 93.3512 68.0887 95.5434 70.151 97.4109C69.6313 99.3919 69.0955 111.262 68.5271 118.293C64.2402 117.303 41.8474 118.472 34.329 118.472C34.1577 118.475 33.9942 118.545 33.8743 118.667C27.9635 118.943 23.3031 119.219 22.004 119.3C21.2246 117.482 20.2503 114.542 19.6494 112.675C22.2827 113.148 24.9811 113.126 27.6063 112.61C27.6514 113.597 27.8656 114.569 28.2396 115.484C29.0515 116.199 56.0723 114.266 56.9329 114.088C57.5175 113.958 57.5337 113.146 57.5824 112.464C57.7286 110.84 57.826 107.268 57.891 103.078C58.1423 102.978 58.3688 102.824 58.5549 102.628C58.741 102.431 58.8821 102.197 58.9686 101.94C59.0551 101.684 59.0848 101.412 59.0558 101.143C59.0267 100.874 58.9396 100.614 58.8003 100.382C58.9902 100.141 59.1288 99.8625 59.2074 99.5652C59.2859 99.2679 59.3029 98.9577 59.2573 98.6535C59.2117 98.3494 59.1044 98.0578 58.9421 97.7967C58.7797 97.5355 58.5657 97.3103 58.3132 97.1348C58.5231 96.9301 58.6828 96.6797 58.7798 96.403C58.8768 96.1263 58.9085 95.8309 58.8723 95.54C58.8361 95.2491 58.7331 94.9704 58.5713 94.7259C58.4095 94.4814 58.1933 94.2777 57.9397 94.1307C57.9397 88.2686 57.9397 82.5527 57.7286 79.3537C57.6311 76.7231 57.5499 76.4308 57.144 76.106C56.3483 75.6189 52.922 75.8137 51.3793 75.8787C51.4007 75.19 51.214 74.511 50.8435 73.9301C50.0965 73.1993 46.8001 73.9301 44.884 73.9301C44.4618 72.5823 44.2507 71.5755 42.7567 70.8772C42.0214 70.6175 41.2158 70.6397 40.4958 70.9397C39.7759 71.2397 39.1929 71.796 38.8595 72.5011C38.8595 72.6635 38.3886 73.995 38.2912 74.4335C36.5487 74.5653 34.8143 74.7875 33.0949 75.0992C32.4778 75.2941 32.4291 76.5932 32.4128 77.5025C26.226 78.1521 25.82 78.1521 25.7064 78.7854C25.5927 79.4187 26.0474 89.7463 26.0799 90.6069C24.5616 90.7997 23.0586 91.0981 21.5818 91.5001C21.8891 89.4833 22.0734 87.4498 22.1339 85.4106C22.1339 84.5175 22.2151 80.7015 21.6792 80.6853C21.1434 80.669 20.8186 84.4201 20.7699 85.1671C20.6725 86.3038 20.5263 90.542 20.6075 91.8086C19.9255 92.0197 19.2759 92.247 18.6102 92.5068C18.5413 92.5327 18.4854 92.5848 18.455 92.6518C18.4245 92.7188 18.422 92.7952 18.4478 92.8641C18.4736 92.933 18.5258 92.9888 18.5928 93.0193C18.6598 93.0497 18.7361 93.0523 18.805 93.0265C27.9798 89.86 40.4022 91.63 47.2061 95.04L47.5146 101.876C41.6363 105.985 32.2829 111.067 25.138 111.977C23.0309 112.22 20.9004 112.177 18.805 111.847C6.4963 110.255 0.147069 101.438 1.04018 88.772C1.73844 78.9153 4.87246 69.3833 12.4396 63.0666C17.3111 59.0232 26.6157 57.6429 32.9487 58.195C34.5726 58.3249 33.6957 54.8174 34.1179 53.5508C34.7349 53.4534 36.6998 53.4209 37.3656 53.4047C37.285 54.5237 37.285 55.647 37.3656 56.766C37.3656 57.2369 37.7066 59.0069 38.1288 58.877C38.551 58.7471 38.7134 57.3669 38.7296 56.9771C38.7458 56.5874 38.7296 56.5387 38.5835 53.4047H43.9909C43.9255 54.4863 43.9255 55.5708 43.9909 56.6524C43.9909 57.1233 44.3319 58.8933 44.7541 58.7634C45.1763 58.6335 45.3386 57.2532 45.3549 56.8635C45.3711 56.4737 45.3549 55.6618 45.2087 53.4372H49.1709C49.3334 53.9635 49.4209 54.5102 49.4307 55.061C49.4307 56.9447 49.106 57.2207 49.4307 57.5942C50.3076 58.5847 58.2644 54.655 81.5341 74.0275C77.1985 81.3348 73.7721 90.8992 75.0387 99.327C71.2552 96.7775 71.9859 97.5732 63.8667 90.2822ZM27.249 90.4283C27.0866 84.9884 26.9567 80.0195 26.9567 79.4187C28.2396 79.2238 31.1462 78.9315 32.4291 78.8016C32.4291 81.1887 32.5265 81.351 34.0529 81.5134C36.9596 81.8544 49.7717 81.5134 51.1195 80.3605C51.2418 80.2615 51.3368 80.1329 51.3956 79.987C51.4985 79.0923 51.5203 78.1901 51.4605 77.2914C53.0452 77.202 54.6337 77.202 56.2184 77.2914C56.5269 80.1819 56.5594 90.8505 56.5594 93.7572C55.9497 93.7626 55.3434 93.85 54.7569 94.017C54.9843 92.6855 55.3253 90.5258 53.9775 90.2335C53.6167 90.1303 53.2336 90.1353 52.8756 90.2479C52.5177 90.3604 52.2007 90.5756 51.9639 90.8668C51.2607 91.9514 50.847 93.198 50.7623 94.4879C50.0188 94.4904 49.2758 94.447 48.5376 94.358C48.5125 94.2702 48.4692 94.1886 48.4104 94.1187C48.3517 94.0487 48.2788 93.992 48.1966 93.9521C41.6567 90.9212 34.4173 89.7203 27.249 90.477V90.4283ZM57.7773 99.4082C57.144 99.7817 56.738 99.5218 55.6013 99.668C55.4248 99.668 55.2554 99.7381 55.1306 99.863C55.0057 99.9879 54.9356 100.157 54.9356 100.334C54.9356 100.51 55.0057 100.68 55.1306 100.805C55.2554 100.929 55.4248 101 55.6013 101C56.1412 101.055 56.6853 101.055 57.2252 101C57.3551 101 57.826 101.097 57.826 101.227C57.826 102.705 54.9193 102.136 53.6365 101.389C52.0473 101.292 50.4526 101.445 48.9111 101.844L48.5863 95.1537C49.4698 95.3903 50.3912 95.451 51.2982 95.3323C51.4238 95.2621 51.517 95.1456 51.558 95.0076C51.9314 93.6435 52.24 91.1266 53.669 91.4838C53.7529 92.5064 53.6483 93.5356 53.3604 94.5204C53.1981 95.5272 53.5878 95.7545 54.351 95.6896C55.033 95.3832 55.7645 95.2017 56.5107 95.1537C56.9329 95.1537 57.3551 95.1537 57.485 95.6409C57.6149 96.128 57.1927 96.3066 56.7867 96.4528C56.3808 96.5989 54.7894 96.8263 54.627 96.8587C54.4665 96.9093 54.3296 97.0162 54.2416 97.1596C54.1536 97.3031 54.1204 97.4735 54.1481 97.6395C54.1757 97.8056 54.2624 97.956 54.3922 98.0632C54.522 98.1703 54.6861 98.227 54.8544 98.2228C56.8192 98.0117 56.4782 97.9142 57.0628 98.0442C57.3174 98.1038 57.5437 98.2495 57.7034 98.4566C57.8631 98.6636 57.9466 98.9194 57.9397 99.1808C57.9424 99.2377 57.9285 99.2941 57.8997 99.3431C57.8708 99.3921 57.8283 99.4317 57.7773 99.4569V99.4082ZM48.8299 102.51C50.262 102.32 51.7048 102.223 53.1493 102.217C54.163 102.857 55.3288 103.216 56.5269 103.257C56.5269 106.163 56.5269 111.376 56.3321 112.902C52.7921 113.276 32.153 115.289 28.6131 114.965C28.4256 114.131 28.3008 113.284 28.2396 112.431C37.2032 110.58 48.3752 103.419 48.8299 102.558V102.51ZM107.288 301.447C105.437 301.567 103.579 301.469 101.751 301.155V300.343C101.732 300.148 101.639 299.967 101.491 299.839C101.053 299.498 101.394 299.742 90.0268 301.187L86.3082 301.609C85.951 301.609 85.545 301.788 85.545 301.609C84.6681 301.382 83.3853 299.839 83.9212 299.271C86.9557 296.836 90.1571 294.617 93.5019 292.629C98.552 293.23 104.593 293.652 108.328 293.766C108.162 296.363 107.82 298.945 107.305 301.496L107.288 301.447ZM162.158 292.094C163.668 292.094 165.178 292.012 166.624 291.931C168.816 293.279 176.058 297.744 177.844 299.579C178.137 299.888 177.844 300.489 177.585 300.83C176.545 302.259 175.75 301.902 175.457 301.869C172.697 301.642 163.554 300.359 160.843 299.969C160.748 299.956 160.652 299.961 160.56 299.986C160.468 300.011 160.383 300.055 160.308 300.114C160.233 300.173 160.172 300.247 160.127 300.331C160.082 300.415 160.055 300.508 160.047 300.602V301.414C158.226 301.744 156.372 301.848 154.526 301.723C153.869 298.56 153.532 295.34 153.519 292.11C153.487 291.639 153 292.305 162.174 292.142L162.158 292.094ZM154.266 128.28C145.936 128.28 106.314 129.271 99.5588 130.034C99.3964 127.273 97.5127 115.923 97.0581 113.195C104.895 111.846 112.657 110.09 120.312 107.933C120.121 109.038 120.072 110.162 120.165 111.278C122.123 113.642 124.297 115.817 126.661 117.774C126.783 117.87 126.929 117.932 127.083 117.952C127.238 117.972 127.395 117.95 127.538 117.888C129.86 115.949 131.851 113.646 133.432 111.067C133.5 109.724 133.407 108.378 133.156 107.056C137.67 108.68 149.914 111.246 156.052 111.149C155.76 114.51 154.526 126.559 154.266 128.28ZM171.479 143.268C175.636 114.64 179.517 105.157 179.598 103.046C182.171 101.927 184.567 100.439 186.711 98.6287C187.553 97.881 188.345 97.0781 189.081 96.2254C189.357 95.9656 188.984 95.5597 188.724 95.8032C188.464 96.0468 187.831 96.3878 187.376 96.6801C181.855 100.382 180.589 101.73 174.109 104.036C175.525 102.638 176.597 100.932 177.243 99.0509C180.085 89.454 176.172 79.5648 169.952 71.7866C177.369 67.2055 185.257 63.438 193.482 60.5496C196.726 59.4623 200.048 58.6263 203.42 58.0489C203.542 58.7595 203.766 59.4487 204.086 60.0949C206.684 76.0573 201.552 122.515 198.5 137.942C196.73 146.906 193.352 159.978 189.471 168.34C189.212 168.96 188.903 169.558 188.545 170.127C186.499 170.809 172.145 169.607 169.92 169.396C168.264 166.392 171.008 146.743 171.511 143.268H171.479ZM240.167 292.662H227.842C227.842 292.175 218.684 227.4 218.424 226.506C219.463 219.832 226.543 184.027 226.3 175.079C226.3 175.006 226.271 174.936 226.219 174.884C226.167 174.832 226.097 174.803 226.024 174.803C225.951 174.803 225.88 174.832 225.829 174.884C225.777 174.936 225.748 175.006 225.748 175.079C225.748 176.021 225.455 177.84 225.066 180.259C219.041 217.868 214.413 239.53 204.053 291.558L191.517 291.428C183.3 239.465 179.273 214.263 179.062 171.556C180.783 171.653 187.928 172.108 189.309 171.409C189.796 171.166 190.299 170.078 190.608 169.445C193.046 163.879 195.054 158.136 196.616 152.264C207.739 152.881 236.319 154.213 241.239 154.473C243.334 164.346 243.48 164.914 244.065 165.125C245.922 165.599 247.819 165.898 249.732 166.018C249.862 198.934 248.141 260.623 240.2 292.581L240.167 292.662ZM301.874 44.7983C299.633 50.0433 294.858 76.2846 273.002 91.6137C268.731 94.6016 260.953 95.6733 255.756 95.8195C255.521 93.2655 255.032 90.7414 254.295 88.2849C253.97 87.2781 253.483 86.0927 253.191 85.3782C253.16 85.3188 253.11 85.2717 253.05 85.2445C252.989 85.2174 252.92 85.2119 252.856 85.229C252.791 85.246 252.735 85.2846 252.695 85.3383C252.656 85.3921 252.636 85.4577 252.639 85.5243C253.532 92.6367 253.678 90.1198 254.652 96.5502C254.652 96.5502 257.331 114.689 257.429 115.582C258.679 126.949 259.475 160.302 258.208 164.93C253.725 165.035 249.242 164.687 244.828 163.891C243.09 158.094 226.089 73.8813 225.715 59.6565C230.018 60.4359 246.614 66.4117 260.514 66.8501C272.92 67.2236 291.578 40.8686 291.741 40.8686C293.024 40.6413 300.104 43.6454 301.89 44.7171L301.874 44.7983ZM307.313 32.9605C307.183 35.0552 304.748 36.468 302.945 37.5722C302.312 37.9782 300.883 42.801 300.704 43.483C298.459 42.4345 296.155 41.5182 293.803 40.7387C295.427 38.2705 296.84 36.9714 296.223 36.3868C295.102 35.3638 292.975 33.9835 294.079 32.8306C294.215 32.8602 294.347 32.9095 294.469 32.9767C296.011 33.7075 297.246 35.6885 297.911 34.4707C298.209 33.0396 298.616 31.6335 299.129 30.2649C299.99 28.2676 300.526 28.6411 300.315 30.5897C300.13 31.9215 299.798 33.2287 299.324 34.4869C299.268 34.6635 299.285 34.8551 299.37 35.0195C299.455 35.1839 299.602 35.3078 299.779 35.3638C299.955 35.4198 300.147 35.4033 300.311 35.318C300.476 35.2328 300.6 35.0857 300.656 34.9091C301.061 33.4722 301.668 32.1 302.458 30.8332C303.254 29.6641 304.212 29.3718 304.179 30.1675C303.927 31.5939 303.373 32.9501 302.556 34.1459C302.346 34.4376 302.217 34.7792 302.182 35.1364C302.156 35.2881 302.183 35.4442 302.259 35.5782C302.334 35.7122 302.454 35.8157 302.598 35.8712C302.741 35.9267 302.9 35.9308 303.046 35.8827C303.192 35.8346 303.317 35.7373 303.4 35.6073C303.888 34.9255 304.431 34.2847 305.024 33.6912C305.982 32.7494 307.378 32.0998 307.33 32.8793L307.313 32.9605Z" fill="black"/>
<path d="M124.432 34.227C125.098 35.7372 128.735 34.7953 128.021 34.0321C127.969 33.9806 127.899 33.9516 127.826 33.9516C127.753 33.9516 127.683 33.9806 127.631 34.0321C127.414 34.1017 127.182 34.1017 126.965 34.0321C126.522 33.9686 126.09 33.8428 125.682 33.6586V27.553C125.667 27.4892 125.63 27.4324 125.579 27.3918C125.527 27.3512 125.464 27.3291 125.398 27.3291C125.332 27.3291 125.269 27.3512 125.217 27.3918C125.166 27.4324 125.129 27.4892 125.114 27.553C124.531 29.3267 124.283 31.1934 124.383 33.0578C124.342 33.4478 124.359 33.8417 124.432 34.227ZM119.723 30.1998C119.723 29.7614 119.723 29.2905 119.625 28.8845C119.593 28.7034 119.493 28.5416 119.345 28.4327C119.196 28.3238 119.012 28.2763 118.83 28.2999C118.737 28.3137 118.649 28.3458 118.569 28.3943C118.49 28.4429 118.42 28.5069 118.366 28.5826C118.311 28.6582 118.273 28.7441 118.252 28.835C118.231 28.9259 118.229 29.02 118.245 29.1119C118.245 29.4042 118.245 29.7452 118.326 30.2973C118.333 30.389 118.357 30.4785 118.398 30.5608C118.439 30.643 118.496 30.7164 118.565 30.7767C118.635 30.8371 118.715 30.8831 118.802 30.9123C118.889 30.9415 118.981 30.9532 119.073 30.9468C119.165 30.9404 119.254 30.916 119.337 30.875C119.419 30.834 119.492 30.7772 119.553 30.7079C119.613 30.6385 119.659 30.5579 119.688 30.4708C119.717 30.3836 119.729 30.2915 119.723 30.1998ZM130.684 30.0862C130.684 30.2714 130.757 30.449 130.888 30.5799C131.019 30.7109 131.197 30.7844 131.382 30.7844C131.567 30.7844 131.745 30.7109 131.876 30.5799C132.007 30.449 132.08 30.2714 132.08 30.0862V29.3554C132.173 29.2236 132.219 29.0642 132.21 28.9032C132.2 28.7421 132.137 28.5889 132.03 28.4685C131.923 28.348 131.778 28.2674 131.619 28.2398C131.46 28.2121 131.296 28.2391 131.155 28.3162C130.521 28.7221 130.684 29.5341 130.684 30.0862ZM127.403 40.1215C126.82 40.4466 126.205 40.7132 125.569 40.9172C125.211 40.9172 125.13 41.4206 125.569 41.4693C125.981 41.6765 126.439 41.777 126.9 41.7616C127.371 41.7059 127.824 41.5439 128.223 41.288C128.622 41.032 128.958 40.6887 129.206 40.2839C129.407 39.8531 129.491 39.3771 129.45 38.9037C129.465 38.8304 129.45 38.7542 129.409 38.6918C129.368 38.6294 129.304 38.5858 129.23 38.5708C129.157 38.5557 129.081 38.5703 129.018 38.6114C128.956 38.6525 128.912 38.7168 128.897 38.79C128.454 39.2916 127.953 39.7386 127.403 40.1215ZM218.046 41.2257C219.281 41.6155 221.294 41.8753 222.155 40.901C223.015 39.9267 222.545 37.3935 222.447 36.3217C222.244 34.2172 221.786 32.1451 221.083 30.1511C221.068 30.0779 221.024 30.0137 220.962 29.9726C220.9 29.9315 220.823 29.9168 220.75 29.9319C220.677 29.947 220.613 29.9905 220.572 30.053C220.53 30.1154 220.516 30.1916 220.531 30.2648C220.531 30.7682 220.758 33.2527 220.807 33.886C221.118 35.9544 221.226 38.0482 221.132 40.1378C220.768 40.3841 220.35 40.54 219.914 40.5924C218.29 40.8685 217.917 40.4788 217.835 40.901C217.826 40.9363 217.824 40.9732 217.829 41.0093C217.835 41.0454 217.848 41.0799 217.868 41.1106C217.888 41.1412 217.914 41.1673 217.945 41.1872C217.976 41.207 218.01 41.2202 218.046 41.2257ZM215.302 30.5246C215.302 30.005 213.808 29.7452 212.834 29.9563C211.86 30.1674 210.528 31.1904 210.902 31.5801C211.275 31.9698 215.237 30.9955 215.302 30.5246ZM214.23 34.4056V35.8021C214.23 35.9873 214.304 36.1649 214.435 36.2958C214.566 36.4268 214.743 36.5004 214.929 36.5004C215.114 36.5004 215.291 36.4268 215.422 36.2958C215.553 36.1649 215.627 35.9873 215.627 35.8021V34.4543C215.631 34.2675 215.562 34.0864 215.435 33.9498C215.307 33.8132 215.132 33.732 214.945 33.7236C214.761 33.7234 214.584 33.7942 214.451 33.9212C214.318 34.0483 214.239 34.2218 214.23 34.4056ZM228.082 31.1904C228.212 30.9955 227.692 29.9563 226.458 29.5665C225.224 29.1768 224.282 29.7939 224.282 30.0862C224.282 30.3785 227.838 31.5476 228.082 31.1904ZM213.532 44.7008C213.159 44.8144 213.159 47.1528 215.383 47.8186C216.52 48.1433 218.063 47.9647 218.095 47.5587C218.128 47.1528 215.887 46.6656 215.156 46.1622C214.425 45.6588 213.841 44.6033 213.532 44.7008ZM225.857 33.4475C225.765 33.4454 225.674 33.4613 225.589 33.4944C225.503 33.5275 225.425 33.5772 225.359 33.6405C225.292 33.7038 225.239 33.7796 225.202 33.8635C225.165 33.9475 225.145 34.0378 225.143 34.1295V35.5098C225.168 35.6788 225.254 35.8329 225.383 35.9443C225.513 36.0557 225.678 36.1169 225.849 36.1169C226.02 36.1169 226.185 36.0557 226.315 35.9443C226.444 35.8329 226.53 35.6788 226.555 35.5098V34.162C226.558 34.069 226.541 33.9764 226.507 33.8898C226.473 33.8032 226.422 33.7243 226.357 33.6578C226.292 33.5912 226.214 33.5383 226.128 33.5022C226.042 33.4661 225.95 33.4475 225.857 33.4475Z" fill="black"/>
</svg>
