<svg width="330" height="330" viewBox="0 0 330 330" fill="none" xmlns="http://www.w3.org/2000/svg">
<path d="M116.771 247.665C119.521 246.691 122.339 245.919 125.202 245.355L125.549 246.625C125.587 246.775 125.679 246.906 125.806 246.994C125.933 247.082 126.088 247.12 126.242 247.104L137.577 245.784C140.695 238.672 146.421 227.898 146.503 227.733C146.421 225.043 146.503 222.783 146.503 220.209C140.019 222.618 128.024 227.188 121.754 230.109C121.612 230.2 121.502 230.335 121.44 230.491C121.378 230.648 121.366 230.82 121.407 230.983C121.407 230.983 121.523 231.396 121.671 231.99C118.602 231.99 109.412 231.544 107.201 233.64C106.857 234.118 106.688 234.701 106.722 235.29C106.59 237.567 107.729 255.255 109.544 260.452C110.484 263.175 112.464 262.878 113.817 260.271C115.383 256.345 116.389 252.218 116.804 248.011C116.804 247.797 116.754 247.813 116.771 247.665ZM114.873 232.897C116.886 232.732 117.513 232.765 121.836 232.633C122.612 235.57 124.212 241.609 125.037 244.695C122.126 245.146 119.253 245.813 116.441 246.691C115.564 242.14 115.04 237.529 114.873 232.897Z" fill="black"/>
<path d="M268.637 88.4896C269.049 87.9121 268.521 87.1696 268.076 86.5921C269.338 85.2943 270.738 84.1378 272.25 83.1436C274.803 81.8713 277.137 80.2006 279.164 78.1936C280.005 77.3191 281.589 75.5206 280.995 74.4646C280.401 73.4086 279.345 73.3426 277.91 73.9531C278.531 73.3003 279.04 72.547 279.411 71.7256C279.873 70.4386 278.784 69.3991 276.425 70.3561C277.283 68.9866 277.481 67.5511 276.029 66.8581C274.857 66.2971 273.141 67.6336 272.151 68.5081C270.207 70.2067 268.382 72.037 266.69 73.9861C265.65 71.8081 264 69.3001 261.938 70.0921C259.875 70.8841 261.476 74.4316 262.532 76.3621L258.786 78.9526C258.22 78.6469 257.58 78.5044 256.938 78.5401C252.681 79.2661 233.129 94.1491 231.149 94.1491C229.631 94.1491 207.95 83.7541 189.206 80.7511C189.17 80.6386 189.102 80.539 189.012 80.4631C188.921 80.3872 188.811 80.3383 188.694 80.3221C185.424 79.7641 182.111 79.5157 178.794 79.5796C178.694 79.5865 178.596 79.615 178.508 79.6633C178.419 79.7119 178.343 79.7791 178.283 79.8601H176.897C176.567 78.5236 175.346 75.4381 174.917 74.2501C176.039 73.2766 177.59 72.7816 178.398 71.2141C179.883 68.3101 179.817 63.2611 179.405 60.0271C181.269 58.6081 181.319 56.3311 180.89 54.0046C180.725 53.0641 180.213 50.9356 179.421 50.4076C178.976 50.1106 178.035 50.4076 177.227 50.7046C176.418 48.8236 176.418 49.6816 176.748 48.9226C176.902 48.5728 176.991 48.1984 177.012 47.8171C177.887 48.0811 179.702 46.3321 179.075 44.0221C178.746 43.1953 178.343 42.4 177.87 41.6461C178.101 41.0851 178.596 40.4086 177.045 38.3461C176.377 37.6255 175.509 37.12 174.554 36.8941H173.795C173.247 36.0994 172.443 35.5168 171.518 35.2441C170.121 34.8877 168.638 35.0953 167.393 35.8216C167.063 36.0691 166.799 36.3991 166.469 36.6301C165.722 36.1771 164.867 35.9377 163.994 35.9377C163.121 35.9377 162.265 36.1771 161.519 36.6301C161.081 36.8014 160.684 37.0594 160.35 37.3882C160.016 37.7173 159.75 38.1103 159.572 38.5441C158.763 38.2651 157.905 38.1577 157.053 38.2288C156.201 38.2999 155.372 38.5477 154.622 38.9566C151.771 40.5022 149.639 43.1023 148.682 46.2001C148.655 46.6672 148.655 47.1355 148.682 47.6026H148.5C146.025 47.2396 142.874 53.1136 145.398 57.6841C145.695 58.2286 146.075 58.7401 146.438 59.3341C147.494 60.9841 147.081 61.4791 149.441 63.4921C150.134 64.0861 150.249 64.0366 150.678 64.3996C151.107 64.7626 150.942 64.5811 151.19 65.5051C151.324 66.0493 151.566 66.5617 151.901 67.012C152.235 67.4623 152.655 67.8418 153.137 68.1286C153.313 69.7426 154 71.2576 155.1 72.4516C155.448 72.8416 155.855 73.1752 156.305 73.4416C156.426 73.51 156.562 73.5496 156.701 73.5571C157.196 76.6261 157.806 80.6191 158.07 82.3186L156.602 83.1106C154.681 83.8837 152.812 84.7822 151.008 85.8001C150.866 85.8982 150.766 86.0449 150.728 86.2126C148.979 87.1366 147.329 88.0111 146.388 88.5721C133.287 96.3436 96.0795 147.576 95.7 149.919C95.6583 150.054 95.6583 150.197 95.7 150.332C96.2334 151.183 96.8832 151.954 97.6305 152.625C97.4004 153.046 97.1235 153.438 96.8055 153.797C93.5055 155.958 88.5558 159.176 85.8993 162.047C85.7127 162.213 85.5729 162.425 85.4937 162.661C85.4142 162.898 85.3977 163.151 85.446 163.395C85.4943 163.64 85.6056 163.868 85.7691 164.058C85.9326 164.247 86.1423 164.39 86.3775 164.472C86.8725 164.637 86.9553 164.588 90.1728 162.822C89.2884 163.598 88.5651 164.54 88.0443 165.594C87.8298 166.502 88.6548 167.03 89.6943 166.865C90.279 166.711 90.8358 166.466 91.3443 166.139C91.0464 166.598 90.8883 167.134 90.8883 167.681C90.8883 168.229 91.0464 168.765 91.3443 169.224C92.9943 171.303 97.3173 164.753 99.5943 163.136C100.518 164.307 101.772 167.046 103.769 166.32C105.501 165.677 103.604 161.865 103.769 160.76C104.44 160.115 105.157 159.519 105.914 158.978C107.186 159.921 108.642 160.59 110.187 160.941C112.91 160.941 141.323 132.264 143.484 129.971C142.709 137.264 138.798 168.564 139.623 174.653C140.003 177.408 146.619 177.804 149.408 177.953C148.566 197.753 148.005 227.75 147.857 228.063C143.484 237.485 142.296 240.059 140.828 242.913C138.155 248.028 126.902 266.904 125.631 271.194C125.45 271.871 125.433 272.135 126.143 273.389C124.016 275.625 122.043 278.001 120.236 280.5C119.328 282.15 123.222 297.528 125.978 302.973C126.605 304.194 127.628 306.075 128.997 306.027C133.122 305.877 133.106 291.06 132.99 286.919C132.989 286.791 132.943 286.668 132.858 286.572C133.606 285.456 134.421 284.387 135.3 283.371C135.825 283.733 136.376 284.052 136.95 284.328C137.511 284.576 138.138 284.147 138.6 283.767C144.095 279.444 173.729 242.517 180.081 225.093C182.969 217.14 186.813 206.151 187.902 198.363C188.568 193.439 188.63 188.452 188.084 183.513C188.084 183.443 188.111 183.376 188.161 183.326C188.21 183.277 188.277 183.249 188.348 183.249C188.418 183.249 188.485 183.277 188.535 183.326C188.584 183.376 188.612 183.443 188.612 183.513C189.438 188.48 189.599 193.536 189.09 198.545C187.869 209.352 179.339 231.875 174.785 240.158C178.712 239.432 186.698 237.848 190.559 236.693C203.429 232.782 215.309 221.117 216.348 208.016C216.685 201.843 216.685 195.659 216.348 189.486C216.237 180.965 215.13 172.487 213.048 164.225C216.546 162.327 219.747 160.1 220.787 158.054C223.014 153.681 217.124 128.519 215.837 121.457C222.882 122.232 234.878 123.635 240.471 119.262C246.873 114.114 260.7 99.6271 268.637 88.4896ZM132.099 286.011C129.129 284.213 124.971 279.939 124.344 276.59C125.021 275.732 125.73 274.94 126.39 274.049C128.626 277.461 131.414 280.478 134.64 282.975C133.734 283.936 132.885 284.95 132.099 286.011ZM263.274 76.8241C263.359 76.7698 263.421 76.6846 263.445 76.5865C263.469 76.4881 263.456 76.3843 263.406 76.2961C262.829 75.2236 261.096 71.4451 262.301 71.0161C262.994 70.7521 263.604 71.1811 264.116 71.7586C264.897 72.7495 265.504 73.8652 265.914 75.0586C265.944 75.1555 266.001 75.2425 266.078 75.31C266.153 75.3775 266.247 75.4228 266.346 75.4417C266.446 75.4603 266.549 75.4513 266.646 75.4159C266.741 75.3805 266.824 75.3196 266.888 75.2401C268.538 73.4086 272.399 69.2341 274.577 68.1121C276.227 67.2541 276.623 68.8381 272.58 72.5341C271.652 73.2421 270.76 73.9966 269.907 74.7946C269.86 74.8594 269.834 74.9374 269.834 75.0175C269.834 75.0973 269.86 75.1753 269.907 75.2401C269.907 75.6691 270.254 76.1476 270.848 75.7021C272.282 74.443 273.798 73.2802 275.385 72.2206C276.195 71.6452 277.137 71.2819 278.124 71.1646C277.629 72.6826 273.026 76.8076 272.63 77.2696C272.504 77.3824 272.427 77.5396 272.417 77.7079C272.407 77.8762 272.462 78.0421 272.572 78.1696C272.683 78.2971 272.839 78.3763 273.006 78.3901C273.176 78.4039 273.342 78.3511 273.471 78.2431C275.303 77.0551 278.504 74.2831 279.609 74.6956C280.715 75.1081 277.431 78.1771 276.606 78.9031C271.871 83.0116 273.092 80.3716 267.614 85.9486C265.229 83.3365 262.492 81.0706 259.479 79.2166L263.274 76.8241ZM191.582 155.744C191.301 153.467 190.955 151.008 190.526 148.451L191.235 147.51C194.535 143.27 195.525 136.521 195.212 131.225C196.977 138.963 198.38 146.57 199.452 154.127L191.582 155.744ZM167.046 99.2476C162.707 95.9476 155.727 90.2551 151.668 86.3611L158.268 83.0611C164.329 88.7221 169.517 95.2501 173.663 102.432C180.003 114.078 184.705 126.543 187.638 139.475L164.109 106.194L167.178 99.8251C167.219 99.727 167.228 99.6187 167.204 99.5155C167.181 99.4117 167.126 99.3184 167.046 99.2476ZM178.2 80.5366C178.299 80.7181 179.438 83.1436 181.17 87.3841C181.17 87.5656 180.857 91.6906 180.708 93.1426C178.602 92.308 176.616 91.1983 174.801 89.8426C175.164 88.4071 176.798 81.8896 176.913 80.4211L178.2 80.5366ZM172.343 98.2576C172.458 97.9606 172.574 97.5646 172.706 97.1026L173.811 97.6801C174.438 98.0926 174.191 96.8386 174.752 100.469C174.752 101.079 174.917 101.756 174.95 102.498C174.191 101.129 173.25 99.6601 172.359 98.2576H172.343ZM171.419 96.8716C168.302 92.4502 164.753 88.3492 160.826 84.6286L173.25 90.0241C172.772 91.1626 172.079 94.6441 171.435 96.8716H171.419ZM184.107 106.541C182.457 102.036 181.187 97.0036 180.56 95.6836C180.597 95.272 180.597 94.8577 180.56 94.4461C180.799 94.5349 181.048 94.5904 181.302 94.6111C181.462 94.6129 181.616 94.5571 181.737 94.4539C181.859 94.351 181.939 94.2076 181.962 94.0501C182.094 93.5056 182.309 90.7501 182.342 90.1396C187.142 102.258 191.148 114.676 194.337 127.314C185.015 107.481 186.45 113.223 184.124 106.541H184.107ZM197.753 138.039C193.991 120.005 187.374 97.5151 179.85 80.8501C182.614 80.8516 185.372 81.0724 188.1 81.5101C189.503 94.0501 188.331 93.6211 189.272 94.1161C190.212 94.6111 195.872 96.8881 196.713 97.2346C196.631 98.5051 197.819 134.838 197.769 138.039H197.753ZM178.761 51.4636C179.622 53.3407 179.924 55.4251 179.636 57.4696C179.501 57.9901 179.226 58.4629 178.838 58.8355C178.45 59.2084 177.968 59.4664 177.443 59.581C176.919 59.6956 176.371 59.6623 175.864 59.4847C175.357 59.3071 174.91 58.9921 174.57 58.5751C173.782 56.9167 173.191 55.1725 172.805 53.3776C173.25 52.8001 178.002 51.6451 178.761 51.4636ZM156.057 67.9636C155.455 67.6891 154.838 67.447 154.209 67.2376C153.787 67.0642 153.412 66.7966 153.109 66.4552C152.807 66.1138 152.587 65.7079 152.466 65.2681C152.345 64.8286 152.325 64.3672 152.411 63.919C152.496 63.4711 152.681 63.0484 152.955 62.6836C153.995 61.8091 154.935 61.8586 155.793 63.1621C156.338 64.1686 156.321 64.2511 156.569 64.3501C156.64 64.3813 156.717 64.3972 156.794 64.3963C156.871 64.3954 156.948 64.378 157.018 64.3453C157.088 64.3126 157.152 64.2649 157.201 64.2061C157.252 64.1473 157.289 64.0783 157.311 64.0036C157.556 62.971 157.594 61.9 157.427 60.8521C157.229 59.7136 157.196 54.6646 157.229 54.4996C157.711 54.7537 158.252 54.8734 158.796 54.8461C161.783 54.7306 162.377 53.1961 163.565 51.9421C164.934 52.0741 165.215 52.7341 166.766 51.9421C167.492 51.529 168.158 51.0184 168.746 50.4241C169.22 50.6182 169.678 50.8501 170.115 51.1171C171.104 51.5926 172.219 51.7387 173.297 51.5338C174.375 51.3289 175.359 50.7838 176.105 49.9786C176.286 50.3251 176.451 50.6716 176.6 51.0346C175.083 51.5053 173.656 52.2244 172.376 53.1631C172.095 53.5096 172.508 55.3906 172.607 55.8361C171.225 56.0101 169.887 56.4409 168.663 57.1066C168.416 56.2486 167.871 54.6481 167.013 54.2026C166.755 54.1237 166.48 54.1237 166.221 54.2026C164.736 54.4336 159.407 56.0341 158.763 56.9086C158.202 57.5191 159.803 62.2381 160.298 63.0136C162.195 65.9506 167.756 65.0926 168.795 61.6606C169.052 60.5089 169.052 59.3143 168.795 58.1626C169.274 58.1626 170.709 57.6511 170.874 57.6016C172.013 60.1591 172.343 60.3076 173.663 63.0631C173.481 63.2116 173.184 63.4591 172.937 63.6241C171.765 64.3996 171.518 64.2676 171.584 64.5976C171.603 64.663 171.645 64.7194 171.703 64.7557C171.761 64.7923 171.83 64.8064 171.897 64.7956C172.59 64.6966 173.267 64.5082 173.91 64.2346C174.295 64.0909 174.613 63.8083 174.801 63.4426C175.263 62.4031 172.706 58.4926 171.699 57.3211C171.897 57.3211 172.359 56.9911 172.706 56.8096C173.168 58.6576 173.481 60.1096 175.263 60.8356C175.779 61.03 176.327 61.1185 176.877 61.096C177.427 61.0732 177.966 60.9397 178.464 60.7036C178.728 63.6076 178.679 68.3266 177.293 70.9006C176.583 72.2371 174.834 72.7486 173.712 73.8541C173.382 74.1676 173.597 74.6131 173.712 75.0916C175.544 80.1901 175.577 80.1736 175.478 80.8336C174.992 83.5729 174.314 86.2747 173.448 88.9186C173.036 88.7371 168.399 86.2786 159.324 82.7476C159.044 80.8831 157.542 70.9336 157.064 69.1021C157.097 68.4586 157.014 68.3101 156.057 67.8811V67.9636ZM167.607 61.2316C167.079 63.0301 164.588 63.8056 162.806 63.3106C161.024 62.8156 160.908 61.9081 160.067 59.7631C159.672 58.9438 159.4 58.0708 159.258 57.1726C159.803 56.5786 165.759 55.3576 166.502 55.2421C167.543 57.0238 167.934 59.1115 167.607 61.1491V61.2316ZM103.043 160.298C102.416 160.908 103.257 162.905 103.389 164.637C103.389 164.786 103.389 165.429 103.29 165.479C102.383 165.776 101.541 164.406 101.03 163.581C100.518 162.756 100.007 161.634 99.198 161.931C97.548 162.707 93.72 167.789 92.2185 168.317C91.4595 166.865 95.7993 162.723 95.9478 162.492C96.0114 162.386 96.0447 162.264 96.0441 162.141C96.0435 162.018 96.009 161.895 95.9445 161.791C95.8797 161.685 95.7873 161.6 95.6775 161.542C95.5674 161.486 95.4441 161.461 95.3208 161.469C95.0238 161.469 94.8255 161.733 94.3635 162.146C92.9583 163.517 91.35 164.663 89.595 165.545C91.1862 163.719 92.889 161.994 94.6935 160.38C94.7829 160.288 94.8456 160.174 94.8753 160.05C94.8753 160.05 94.5288 159.176 93.8523 159.522C92.8953 160.05 88.242 162.74 86.7738 163.433C86.5758 163.301 86.6913 163.103 86.7738 162.905C89.1 160.05 94.2153 156.585 97.35 154.391C97.7181 154.011 98.0244 153.578 98.2575 153.104C100.429 155.123 102.745 156.983 105.188 158.664C104.435 159.158 103.718 159.704 103.043 160.298ZM141.438 175.296C141.075 175.065 140.811 174.851 140.762 174.554C139.854 167.822 144.903 129.674 144.821 128.172C144.821 128.084 144.803 127.997 144.768 127.916C144.735 127.835 144.684 127.761 144.621 127.7C144.558 127.638 144.484 127.59 144.401 127.557C144.32 127.525 144.232 127.51 144.144 127.512C143.303 127.512 144.788 127.512 123.767 147.642C122.381 148.946 111.788 159.077 110.022 159.753C107.597 159.572 98.472 152.295 96.987 150.002C99.858 144.194 134.673 96.4096 146.718 89.1001C147.642 88.5391 149.226 87.6646 150.959 86.7406C151.558 87.3058 152.203 87.8188 152.889 88.2751C156.717 91.9051 162.047 96.4261 166.089 99.8251L162.938 106.079C162.89 106.161 162.865 106.255 162.865 106.351C162.865 106.446 162.89 106.54 162.938 106.623C188.529 143.336 188.15 142.923 188.315 142.923C189.955 151.407 190.975 159.998 191.367 168.63C191.367 170.957 191.367 170.759 191.466 170.594C191.565 170.429 191.466 170.709 191.466 170.709C187.473 175.065 147.956 179.124 141.438 175.296ZM232.65 120.632C225.176 121.671 216.728 120.12 215.094 120.054C214.187 115.656 212.377 111.493 209.781 107.828C209.741 107.774 209.684 107.738 209.618 107.726C209.553 107.713 209.486 107.726 209.429 107.762C209.373 107.797 209.331 107.852 209.314 107.917C209.297 107.981 209.304 108.049 209.336 108.108C210.293 110.055 213.494 118.454 214.286 120.5C214.038 121.292 221.744 153.153 219.566 157.443C217.619 161.321 206.283 166.205 202.191 167.607C201.383 158.421 200.06 149.288 198.231 140.25C198.792 135.498 198.066 107.25 197.852 96.8056C197.845 96.6844 197.805 96.5671 197.735 96.4681C197.665 96.3685 197.568 96.2914 197.456 96.2446L190.047 93.1261C190.014 89.2051 189.765 85.2886 189.305 81.3946C207.801 84.5956 229.35 95.1721 231.149 95.1886C233.756 95.1886 253.127 80.3386 257.136 79.7446C258.918 79.4641 266.574 86.1466 267.465 87.9946C259.644 98.9176 245.9 113.273 239.531 118.239C237.479 119.611 235.11 120.434 232.65 120.632Z" fill="black"/>
<path d="M165.907 57.9316C165.887 57.8233 165.846 57.7201 165.785 57.628C165.724 57.5356 165.646 57.4561 165.556 57.394C165.463 57.3322 165.361 57.2887 165.253 57.2662C165.146 57.2437 165.034 57.2428 164.926 57.2635C164.817 57.2839 164.714 57.3256 164.622 57.3862C164.53 57.4468 164.45 57.5245 164.388 57.6157C164.326 57.7069 164.282 57.8095 164.26 57.9175C164.238 58.0255 164.237 58.1368 164.257 58.2451C164.587 59.8951 164.653 60.2746 165.379 60.2746C165.517 60.2749 165.652 60.2413 165.773 60.1765C165.894 60.1114 165.997 60.0175 166.071 59.9026C166.147 59.788 166.192 59.6563 166.204 59.5195C166.216 59.3827 166.193 59.2453 166.138 59.1196C166.089 58.8556 165.94 58.0801 165.907 57.9316ZM170.956 68.8546C172.029 69.1681 173.052 68.6566 173.019 68.3926C172.986 68.1286 173.019 68.2606 171.567 67.7161C170.593 67.3531 169.521 66.0661 169.141 66.2641C168.762 66.4621 169.339 67.5181 169.471 67.7161C169.825 68.2516 170.347 68.6527 170.956 68.8546ZM201.135 53.1796C198.973 62.2381 197.389 69.9271 197.125 71.4616C196.949 72.1291 196.916 72.8263 197.026 73.5076C197.901 75.3721 209.203 79.0516 210.639 78.3256C212.074 77.5996 215.803 69.2011 220.143 60.5386C222.801 60.6235 225.461 60.43 228.079 59.9611C230.836 59.4553 233.519 58.6072 236.065 57.4366C241.642 54.8626 247.747 43.8406 248.572 38.2966C249.191 32.2774 247.917 26.2153 244.926 20.9551C231.082 -3.05243 190.476 9.86707 193.776 36.5311C194.718 42.6322 197.257 48.376 201.135 53.1796ZM211.2 72.8311C211.2 73.0951 210.903 73.0621 209.55 72.8311C206.782 72.4834 204.102 71.6275 201.646 70.3066C200.491 69.6796 200.178 69.5476 200.293 69.2671C200.409 68.9866 200.656 69.0856 202.438 69.5806C202.603 69.5806 207.718 71.2306 209.187 71.7421C211.084 72.6001 211.2 72.6001 211.2 72.8311ZM210.903 45.9856C212.664 46.0768 214.42 45.7135 216.001 44.9296C217.47 45.6412 219.059 46.0723 220.687 46.2001C217.915 51.3646 212.289 61.8916 210.474 67.5016L203.478 65.5711C205.128 61.5121 208.774 52.0081 210.87 45.9856H210.903ZM210.325 44.6161C209.093 44.4301 207.956 43.8451 207.09 42.9511C206.222 42.0568 205.672 40.903 205.524 39.6661C205.062 36.3661 207.174 32.6701 210.358 33.5446C212.355 34.0891 212.602 35.6731 212.256 37.6696C211.959 39.1216 210.886 42.7681 210.292 44.5501L210.325 44.6161ZM214.813 40.6561C214.99 39.5764 215.395 38.5468 216.001 37.6366C216.29 37.1404 216.712 36.7351 217.22 36.4669C217.727 36.1984 218.299 36.0778 218.872 36.1186C220.093 36.4816 220.621 38.7916 219.615 40.2436C218.647 41.5273 217.444 42.6139 216.067 43.4446C215.593 43.1668 215.216 42.7507 214.987 42.2521C214.757 41.7538 214.684 41.1967 214.78 40.6561H214.813ZM199.65 19.6846C207.042 10.7911 220.951 7.26007 231 10.9231C236.459 12.7969 241.05 16.591 243.919 21.5986C246.764 26.604 247.981 32.3704 247.401 38.0986C246.642 43.2301 240.801 53.8891 235.669 56.2486C230.978 58.3888 225.859 59.4271 220.704 59.2846C220.143 59.2846 219.549 59.2846 219.334 59.6806C218.361 61.6606 216.579 65.4886 214.83 69.0856C213.621 68.5024 212.37 68.0167 211.084 67.6336C212.998 62.1556 219.037 51.3976 221.908 46.1836C224.396 46.3966 226.897 45.9649 229.168 44.9296C229.782 44.6065 230.29 44.1151 230.635 43.5127C230.979 42.9106 231.146 42.2227 231.113 41.5297C231.08 40.837 230.849 40.168 230.45 39.601C230.05 39.0343 229.497 38.593 228.855 38.3296C226.297 37.0756 224.004 40.0786 222.667 42.6031C222.304 43.2631 221.892 44.0386 221.43 44.9131C220.095 44.8255 218.779 44.5534 217.519 44.1046C218.773 43.2226 219.887 42.1546 220.819 40.9366C221.342 40.1476 221.606 39.2161 221.577 38.2705C221.547 37.3246 221.225 36.4114 220.654 35.6566C220.206 35.1361 219.583 34.7968 218.903 34.7026C218.222 34.6084 217.531 34.7659 216.958 35.1451C215.802 35.8552 214.877 36.8836 214.291 38.107C213.706 39.3304 213.487 40.6969 213.658 42.0421C213.837 42.8014 214.247 43.4872 214.83 44.0056C213.748 44.4538 212.586 44.6785 211.414 44.6656C212.074 42.7186 213.147 39.2041 213.427 37.7686C213.604 36.9502 213.642 36.1084 213.543 35.2771C213.415 34.5637 213.084 33.9022 212.589 33.3724C212.095 32.8423 211.457 32.467 210.754 32.2906C206.745 31.1521 203.791 35.5906 204.369 39.7321C204.531 41.2162 205.169 42.6082 206.185 43.702C207.202 44.7958 208.543 45.5329 210.012 45.8041C207.9 51.7441 204.6 61.3306 202.95 65.4226L199.32 64.4821C201.646 52.8001 201.927 53.0806 201.597 52.9321C197.847 48.1522 195.449 42.4543 194.65 36.4321C194.261 33.4459 194.506 30.4114 195.367 27.5261C196.228 24.6405 197.688 21.9687 199.65 19.6846ZM222.552 45.0121C223.707 42.9166 226.017 38.3296 228.261 39.4516C228.709 39.6325 229.101 39.9325 229.391 40.3192C229.683 40.7059 229.861 41.1646 229.911 41.6461C229.878 44.5501 225.357 45.0616 222.486 45.0121H222.552ZM285.714 52.2886C287.702 51.1192 290.051 50.7199 292.314 51.1666C294.8 51.211 297.175 52.2049 298.951 53.9446C300.729 55.6843 301.77 58.0375 301.866 60.5221C300.372 59.6548 298.624 59.3284 296.917 59.5981C292.776 59.9611 287.364 62.2051 288.09 66.1981C288.684 69.4981 293.04 69.0526 296.34 68.1616C299.64 67.2706 302.262 65.6536 302.94 62.4691C306.948 65.3896 307.89 70.5046 308.055 75.5041C308.055 75.574 308.082 75.6412 308.133 75.6907C308.181 75.7402 308.25 75.7681 308.319 75.7681C308.388 75.7681 308.457 75.7402 308.505 75.6907C308.556 75.6412 308.583 75.574 308.583 75.5041C308.697 69.9106 307.692 64.4326 303.12 61.2481C303.168 59.8156 302.922 58.3885 302.403 57.0529C301.884 55.7176 301.095 54.5017 300.093 53.4787C299.089 52.456 297.887 51.6478 296.561 51.1027C295.236 50.5579 293.813 50.2876 292.38 50.3086C290.089 49.9741 287.755 50.4529 285.78 51.6616C285.169 51.9586 285.45 52.4041 285.714 52.2886ZM300.762 64.1191C298.897 66.5611 293.617 67.8316 291.175 67.4191C290.268 67.2706 289.525 66.8911 289.327 65.9506C288.733 62.6506 294.426 60.8521 297.825 60.7366C299.208 60.6304 300.588 60.9844 301.752 61.7431C301.626 62.6059 301.287 63.4231 300.762 64.1191ZM278.157 33.0001C279.922 30.8221 278.734 27.0271 273.801 27.0106C271.887 27.0106 270.963 28.9576 271.095 30.8221C271.392 35.2606 276.391 35.1286 278.157 33.0001ZM272.25 30.7396C272.25 29.6506 272.761 28.2316 273.9 28.2481C276.556 28.2481 277.777 29.4856 277.777 30.8551C277.711 33.9736 272.035 35.5906 272.25 30.7396ZM271.573 217.8C257.07 212.009 250.338 240.042 238.491 264.132C238.415 265.144 238.45 266.163 238.59 267.168C238.59 269.693 238.87 286.407 240.339 288.305C240.735 289.064 242.401 288.305 243.177 287.826C249.763 283.749 255.97 279.088 261.723 273.9C261.772 273.844 261.808 273.779 261.832 273.707C261.853 273.636 261.862 273.562 261.855 273.488C264.924 269.115 276.424 246.345 279.213 234.927C281.16 226.842 279.229 220.82 271.573 217.8ZM276.754 238.755C268.99 237.76 261.482 235.308 254.628 231.528C258.489 224.219 263.257 215.886 271.128 219.021C279.889 222.503 279.708 229.713 276.754 238.706V238.755ZM249.298 281.655C248.791 281.23 248.238 280.865 247.648 280.566C245.418 279.433 242.843 279.184 240.438 279.873C240.273 277.91 239.332 265.139 239.332 265.023C251.691 269.544 247.879 267.581 260.122 273.669C258.835 274.89 254.001 278.273 249.298 281.622V281.655ZM257.812 233.904C259.421 234.783 261.074 235.582 262.762 236.297C258.98 242.237 255.639 248.447 252.763 254.876C249.991 260.667 250.09 260.634 247.269 266.954C245.619 266.426 243.969 265.931 242.319 265.436C244.101 261.888 256.773 235.95 257.812 233.871V233.904ZM247.912 267.119C253.275 257.499 258.736 245.537 263.422 236.511C265.072 237.204 266.722 237.765 268.372 238.26C267.498 239.91 264.94 244.299 264.264 245.57C263.587 246.84 256.806 260.205 256.327 261.228C255.568 262.878 253.489 267.482 252.846 268.95C251.163 268.208 249.546 267.647 247.846 267.086L247.912 267.119ZM253.44 269.165C254.446 267.333 258.588 259.644 259.099 258.654C259.875 257.12 268.521 239.448 268.999 238.425C270.517 238.854 272.118 239.217 273.141 239.415C270.121 247.665 261.426 263.555 258.291 271.392C255.436 270.056 254.793 269.726 253.374 269.132L253.44 269.165ZM254.446 232.007L257.4 233.657C251.448 243.793 246.264 254.36 241.89 265.271L239.415 264.512C249.001 244.085 249.447 241.412 254.38 231.974L254.446 232.007ZM261.244 272.828L258.753 271.64C261.442 266.36 269.857 252.813 273.702 239.531C274.626 239.696 275.533 239.844 276.408 239.96C272.167 251.273 267.077 262.25 261.178 272.795L261.244 272.828ZM209.55 283.536C210.207 282.992 210.677 282.254 210.893 281.428C211.109 280.602 211.061 279.729 210.754 278.933C210.614 277.783 210.088 276.715 209.26 275.905C208.432 275.095 207.353 274.59 206.2 274.476C205.048 274.361 203.89 274.641 202.92 275.271C201.948 275.901 201.219 276.844 200.854 277.943C198.742 276.573 196.449 275.121 194.254 273.735C195.904 271.541 200.755 272.514 201.25 274.313C201.262 274.383 201.3 274.446 201.356 274.487C201.414 274.529 201.486 274.546 201.556 274.535C201.626 274.524 201.688 274.486 201.73 274.43C201.772 274.372 201.79 274.3 201.778 274.23C201.531 271.359 195.558 269.676 193.149 273.059C191.02 271.755 188.38 270.171 186.169 268.967C188.067 267.317 192.307 268.241 192.769 269.957C192.791 270.016 192.833 270.064 192.888 270.095C192.941 270.126 193.006 270.137 193.066 270.124C193.128 270.112 193.183 270.079 193.223 270.029C193.262 269.982 193.282 269.919 193.281 269.858C193.066 267.185 187.539 265.386 185.031 268.323C183.98 267.734 182.875 267.248 181.731 266.871C181.522 266.784 181.292 266.76 181.069 266.801C180.847 266.842 180.64 266.947 180.477 267.102C176.302 272.3 162.228 285.797 155.727 287.364C155.563 287.389 155.409 287.456 155.28 287.559C155.151 287.663 155.052 287.797 154.991 287.951C154.931 288.105 154.912 288.273 154.936 288.435C154.963 288.599 155.03 288.753 155.133 288.882C156.56 290.331 158.195 291.56 159.984 292.529C158.334 294.179 157.047 295.664 156.09 296.736C155.595 297.264 155.331 307.362 155.76 309.591C155.823 309.807 155.965 309.996 156.156 310.119C158.235 311.538 185.014 323.121 187.753 321.57C189.585 320.529 211.447 297.776 211.794 297.083C212.322 295.994 212.14 288.734 212.107 285.83C211.975 284.955 210.342 284.015 209.55 283.536ZM156.75 305.334V301.653C163.597 304.953 179.272 311.685 185.212 313.566C186.73 314.061 186.862 313.995 187.654 313.566C192.192 310.662 208.213 292.611 211.15 289.856V293.337C202.24 302.265 187.11 317.907 186.829 317.016C185.196 316.917 158.169 305.994 156.75 305.334ZM209.137 277.976C209.73 278.975 210.049 280.114 210.061 281.276C210.056 281.645 209.965 282.008 209.796 282.338C209.627 282.667 209.385 282.953 209.088 283.173C207.702 282.249 205.078 280.533 201.976 278.52C203.676 275.171 207.454 275.121 209.071 277.976H209.137ZM156.337 288.536C163.366 286.457 176.715 273.587 181.203 268.01C182.282 268.311 183.325 268.737 184.305 269.28C182.655 272.349 184.42 275.715 185.047 275.237C185.394 274.973 184.767 274.874 184.668 273.257C184.625 272.076 184.894 270.904 185.443 269.858C187.72 271.046 190.393 272.597 192.654 273.9C191.268 276.986 192.934 280.038 193.512 279.593C194.089 279.147 193.248 279.246 193.149 277.629C193.109 276.569 193.311 275.513 193.743 274.544C196.069 275.913 198.445 277.332 200.623 278.669C200.288 279.491 200.155 280.382 200.234 281.266C200.315 282.15 200.607 283.003 201.085 283.751C201.107 283.778 201.133 283.803 201.165 283.821C201.196 283.837 201.23 283.85 201.264 283.854C201.3 283.858 201.336 283.856 201.37 283.847C201.404 283.837 201.436 283.822 201.465 283.8C201.493 283.778 201.517 283.752 201.534 283.72C201.552 283.69 201.564 283.656 201.568 283.62C201.572 283.586 201.571 283.55 201.561 283.515C201.552 283.481 201.536 283.448 201.514 283.421C201.217 282.765 201.072 282.051 201.085 281.332C201.099 280.613 201.274 279.906 201.597 279.263C205.441 281.606 208.543 283.569 209.5 284.213C209.319 284.378 192.109 299.69 186.252 304.245C182.407 303.237 162.228 293.222 156.337 288.536ZM156.964 297.726C164.439 301.026 181.417 308.682 185.328 309.426C186.004 309.558 186.268 309.606 187.555 308.583C193.05 304.179 210.919 285.483 211.084 285.681C211.093 285.731 211.093 285.78 211.084 285.83V289.13C207.405 292.083 186.945 313.566 186.615 312.543C184.965 312.543 158.152 301.605 156.783 300.993C156.75 300.3 156.898 298.452 156.964 297.726ZM187.011 320.463C185.361 321.405 160.231 311.19 156.865 309.111C156.739 308.058 156.679 307.002 156.684 305.943C163.911 309.507 184.932 318.384 186.862 318.303C189.684 318.153 209.632 295.697 211.051 294.129C211.068 294.972 210.984 295.814 210.804 296.637C210.523 297.182 188.1 319.854 187.011 320.463ZM50.3079 227.453C50.4234 229.218 50.5059 230.753 50.5059 232.188C50.5059 232.407 50.5929 232.617 50.7474 232.771C50.9022 232.926 51.1119 233.013 51.3309 233.013C51.5496 233.013 51.7596 232.926 51.9141 232.771C52.0689 232.617 52.1559 232.407 52.1559 232.188C52.1559 230.654 52.0734 229.136 51.9579 227.337C51.9426 227.118 51.8409 226.915 51.6753 226.771C51.5097 226.626 51.294 226.555 51.075 226.57C50.8563 226.585 50.6526 226.687 50.5086 226.852C50.3646 227.018 50.2926 227.234 50.3079 227.453ZM301.719 194.37C301.611 194.377 301.506 194.405 301.407 194.451C301.311 194.499 301.224 194.565 301.155 194.648C301.083 194.729 301.029 194.824 300.996 194.926C300.963 195.029 300.951 195.137 300.96 195.245C301.059 196.763 301.158 198.396 301.158 199.98C301.158 200.199 301.245 200.409 301.401 200.563C301.554 200.718 301.764 200.805 301.983 200.805C302.202 200.805 302.412 200.718 302.565 200.563C302.721 200.409 302.808 200.199 302.808 199.98C302.808 198.33 302.709 196.68 302.592 195.129C302.586 195.022 302.559 194.916 302.511 194.82C302.463 194.722 302.397 194.636 302.316 194.565C302.235 194.494 302.139 194.44 302.037 194.407C301.935 194.374 301.827 194.36 301.719 194.37ZM46.0344 223.344C46.2531 223.344 46.4631 223.257 46.6176 223.102C46.7724 222.948 46.8594 222.738 46.8594 222.519C46.8594 222.3 46.7724 222.09 46.6176 221.936C46.4631 221.781 46.2531 221.694 46.0344 221.694C44.0379 221.694 42.3714 221.843 40.7214 221.81C40.5009 221.81 40.2894 221.896 40.1322 222.05C39.9747 222.204 39.8841 222.415 39.8799 222.635C39.8799 222.853 39.9669 223.064 40.1214 223.217C40.2762 223.373 40.4859 223.46 40.7049 223.46C42.4044 223.493 44.2689 223.427 46.0344 223.344ZM296.604 189.486C294.624 189.486 292.957 189.602 291.291 189.618C291.072 189.618 290.862 189.705 290.708 189.86C290.553 190.014 290.466 190.224 290.466 190.443C290.466 190.662 290.553 190.872 290.708 191.026C290.862 191.181 291.072 191.268 291.291 191.268C293.073 191.268 294.921 191.268 296.703 191.136C296.922 191.122 297.127 191.023 297.272 190.86C297.417 190.696 297.491 190.48 297.478 190.262C297.465 190.043 297.366 189.838 297.202 189.692C297.037 189.547 296.823 189.472 296.604 189.486ZM49.8624 213.147C49.9614 214.665 50.0604 216.299 50.0604 217.883C50.0646 218.1 50.1528 218.307 50.3067 218.462C50.4603 218.615 50.6679 218.703 50.8854 218.708C51.1041 218.708 51.3141 218.621 51.4686 218.465C51.6234 218.312 51.7104 218.101 51.7104 217.883C51.7104 216.233 51.6114 214.583 51.5124 213.032C51.4971 212.813 51.3954 212.609 51.2298 212.465C51.0642 212.321 50.8484 212.249 50.6295 212.264C50.4108 212.279 50.2071 212.381 50.0631 212.546C49.9191 212.713 49.8471 212.928 49.8624 213.147ZM302.361 185.675C302.361 184.025 302.262 182.375 302.148 180.824C302.133 180.605 302.031 180.401 301.866 180.257C301.701 180.113 301.485 180.041 301.266 180.056C301.047 180.071 300.843 180.173 300.699 180.338C300.555 180.505 300.483 180.72 300.498 180.939C300.597 182.457 300.696 184.091 300.696 185.675C300.696 185.893 300.783 186.104 300.939 186.257C301.092 186.413 301.302 186.5 301.521 186.5C301.74 186.5 301.953 186.413 302.109 186.259C302.268 186.105 302.358 185.894 302.361 185.675ZM62.0394 223.13C62.1477 223.125 62.2542 223.099 62.3526 223.054C62.451 223.009 62.5398 222.944 62.6133 222.864C62.6868 222.785 62.744 222.692 62.7812 222.589C62.8188 222.488 62.8359 222.38 62.8314 222.272C62.8146 222.056 62.7171 221.854 62.5578 221.706C62.3988 221.561 62.19 221.48 61.9734 221.48C59.9769 221.562 58.3104 221.628 56.6439 221.595C56.4249 221.595 56.2152 221.682 56.0604 221.837C55.9059 221.991 55.8189 222.201 55.8189 222.42C55.8189 222.639 55.9059 222.849 56.0604 223.003C56.2152 223.158 56.4249 223.245 56.6439 223.245C58.4094 223.278 60.2574 223.212 62.0394 223.13ZM312.609 189.272C310.959 189.354 309.126 189.404 307.296 189.404C307.188 189.399 307.08 189.417 306.975 189.456C306.873 189.494 306.783 189.554 306.702 189.628C306.624 189.703 306.561 189.794 306.519 189.894C306.477 189.995 306.453 190.103 306.453 190.212C306.453 190.432 306.54 190.644 306.696 190.802C306.849 190.959 307.059 191.049 307.278 191.054C309.159 191.054 310.677 191.054 312.675 190.922C312.783 190.917 312.888 190.891 312.987 190.846C313.086 190.801 313.176 190.736 313.248 190.656C313.323 190.577 313.38 190.484 313.416 190.381C313.455 190.28 313.47 190.172 313.467 190.064C313.446 189.849 313.347 189.65 313.188 189.504C313.032 189.357 312.825 189.274 312.609 189.272ZM24.1222 174.24C24.3367 174.405 70.8669 167.508 72.8633 166.287C72.974 166.206 73.0623 166.099 73.1199 165.975C73.1775 165.851 73.203 165.714 73.1934 165.578C73.1934 163.449 70.4049 143.468 69.0684 138.485C68.9034 137.874 68.7384 137.264 68.3589 137.049C65.8344 135.531 21.3503 143.913 18.6938 145.629C18.6218 145.672 18.5595 145.73 18.5113 145.797C18.4629 145.865 18.4296 145.943 18.4132 146.025C17.8522 148.022 22.6867 173.25 24.1222 174.24ZM19.4198 146.421C22.5878 144.986 62.9633 137.594 67.5834 138.171C68.7053 141.059 71.7083 162.212 71.9063 165.314C69.6129 165.99 24.7493 173.696 24.5843 173.729C24.4193 173.762 24.4028 173.96 24.0563 172.92C22.6043 168.564 19.3373 150.15 19.4198 146.421Z" fill="black"/>
<path d="M76.4936 167.755C76.5833 167.589 76.6235 167.399 76.6091 167.211C76.6091 164.587 72.8471 135.465 71.5106 133.138C71.4059 132.967 71.2577 132.826 71.0807 132.73C70.904 132.635 70.7051 132.588 70.5041 132.594C64.9766 131.917 18.3476 141.025 15.2786 143.154C14.8496 143.451 14.9156 144.193 14.9651 144.985C15.2291 149.325 19.9151 177.87 21.5651 177.705C21.7466 177.705 21.6806 177.573 21.2516 178.447C18.6776 183.744 13.7936 200.706 13.8926 204.121C13.8926 205.557 14.2226 207.421 15.6416 207.322C25.8221 206.068 75.7346 198.148 90.0896 195.195C90.6506 195.079 91.0136 194.568 90.9971 193.726C90.8276 192.324 90.4028 190.965 89.7431 189.717C87.7301 185.938 79.3811 170.973 76.4936 167.755ZM21.6641 177.193C20.3771 175.543 15.6416 147.114 16.0046 143.962C19.6346 142.081 65.6366 133.188 70.4546 133.914C71.7746 137.544 75.1901 163.762 75.4046 166.914C69.5636 168.927 29.1221 175.461 21.6641 177.193ZM22.3901 177.688C23.7761 177.342 70.9826 169.438 75.3056 168.3C77.6651 170.494 88.3241 189.453 89.0171 191.07C79.5461 192.72 23.3636 202.108 15.0971 203.362C15.2126 198.363 20.3441 180.889 22.3901 177.688Z" fill="black"/>
<path d="M28.595 194.799C30.0305 194.584 60.4895 190.921 71.495 187.935C71.5628 187.917 71.621 187.873 71.6567 187.814C71.6921 187.753 71.7023 187.68 71.6849 187.613C71.6672 187.546 71.6237 187.487 71.5631 187.452C71.5028 187.416 71.4308 187.406 71.363 187.423C69.2015 187.869 42.8345 191.383 28.562 194.287C28.5225 194.28 28.482 194.282 28.4435 194.293C28.405 194.304 28.3694 194.323 28.3395 194.351C28.3095 194.377 28.2862 194.41 28.2709 194.447C28.2558 194.484 28.2492 194.524 28.2518 194.564C28.2544 194.604 28.266 194.643 28.2859 194.678C28.3057 194.712 28.3332 194.742 28.3662 194.764C28.3993 194.788 28.4372 194.803 28.4768 194.808C28.5164 194.814 28.5568 194.811 28.595 194.799ZM50.8535 79.9919C50.237 81.3839 49.7189 82.8176 49.3025 84.2819C49.2779 84.5168 49.3427 84.7526 49.484 84.9419C51.1505 87.4499 68.228 106.705 72.683 109.411C73.2935 109.791 74.0195 110.055 74.465 109.51C77.7011 105.483 81.9248 102.363 86.7245 100.452C90.6311 99.0698 94.727 98.2961 98.8685 98.1584C102.168 97.8614 102.746 97.5314 104.016 95.3699C105.515 92.5253 107.504 89.9672 109.89 87.8129C112.934 85.1519 116.312 82.8998 119.939 81.1139C120.102 81.0215 120.23 80.8769 120.302 80.7035C120.373 80.5301 120.385 80.3378 120.335 80.1569C119.777 78.7376 119.04 77.3957 118.14 76.1639C118.734 75.9659 119.394 75.7844 119.394 75.1904C119.394 73.5404 105.006 52.7174 101.013 48.7904C100.601 48.3779 100.007 47.8334 99.4625 47.8664C91.2125 48.3284 83.177 56.1164 78.524 62.9144C73.1945 62.7164 69.746 62.2379 63.674 64.7954C59.3873 66.6149 55.5227 69.3002 52.322 72.6824C51.827 73.1939 48.461 76.7579 48.4115 77.0384C48.362 77.3189 48.461 77.3189 50.8535 79.9919ZM116.853 79.5299C109.973 80.7014 105.584 86.4269 102.35 92.6474C100.914 95.4194 101.047 95.5514 99.5285 95.5184C96.8741 95.3681 94.2113 95.4677 91.5755 95.8154C89.642 96.1043 87.7412 96.5798 85.8995 97.2344C81.7085 98.7194 76.907 103.471 74.3495 107.002C74.2952 107.075 74.2259 107.135 74.1467 107.179C74.0675 107.223 73.9799 107.25 73.8893 107.258C73.799 107.266 73.7081 107.254 73.6223 107.225C73.5368 107.195 73.4585 107.147 73.3925 107.085C68.03 101.557 58.5425 91.8554 53.774 86.2784C53.543 86.0309 53.939 85.6679 54.17 85.9319C57.2555 89.2319 65.225 97.1354 73.772 105.732C76.6595 102.052 81.1145 97.5974 85.52 96.0464C87.9224 95.1896 90.4223 94.6352 92.9615 94.3964C95.3396 94.2158 97.7279 94.2158 100.106 94.3964C101.079 93.2744 105.897 80.5364 116.82 79.1174C116.852 79.1408 116.879 79.1711 116.897 79.2062C116.916 79.2413 116.926 79.28 116.928 79.3196C116.93 79.3592 116.922 79.3988 116.907 79.4351C116.891 79.4717 116.867 79.5038 116.837 79.5299H116.853ZM99.446 49.2029C102.746 51.5129 116.177 71.3954 117.926 74.8769C114.891 75.8384 111.961 77.1044 109.181 78.6554C106.548 79.9754 104.243 81.8657 102.433 84.1892C100.623 86.5127 99.3551 89.2106 98.72 92.0864C92.7965 82.4504 84.53 71.8409 79.0355 64.0364C79.3655 63.8219 88.6385 49.8464 99.446 49.2029ZM64.037 65.7029C70.0595 63.2774 73.3925 63.8384 78.3755 64.0529C83.3255 72.5009 92.219 84.4139 98.0765 92.2184C92.6702 90.9392 86.9813 91.7216 82.121 94.4129C79.2005 96.0629 75.6365 100.023 73.442 102.481C70.274 99.9404 51.992 80.4704 49.055 77.1704C53.576 72.0554 57.7505 68.2109 64.037 65.6369V65.7029ZM33.842 107.662C33.4343 107.376 32.9522 107.214 32.4542 107.197C31.9562 107.179 31.4639 107.307 31.037 107.563C30.7262 107.702 30.4454 107.901 30.2114 108.148C29.977 108.395 29.7939 108.686 29.6721 109.004C29.5502 109.321 29.4922 109.66 29.5014 110.001C29.5105 110.341 29.5865 110.676 29.7252 110.987C29.8638 111.298 30.0626 111.579 30.3095 111.813C30.5567 112.047 30.8474 112.23 31.1654 112.352C31.4834 112.474 31.8221 112.532 32.1626 112.523C32.5028 112.514 32.8382 112.437 33.149 112.299C33.6458 112.19 34.0979 111.933 34.445 111.562C34.7924 111.19 35.0186 110.722 35.0936 110.22C35.1689 109.717 35.0894 109.203 34.8659 108.746C34.6424 108.289 34.2854 107.912 33.842 107.662ZM32.753 110.962C31.598 111.325 30.905 110.962 30.6245 110.401C30.0965 109.23 30.7565 107.431 32.4725 107.959C33.677 108.405 34.6505 110.434 32.753 111.045V110.962ZM117.744 32.1584C118.223 33.1319 120.451 32.7689 121.424 32.4554C121.936 32.2904 122.265 32.1089 122.315 31.6139C122.463 30.3764 122.628 19.6514 122.067 18.6119C122.01 18.5029 121.921 18.4135 121.812 18.3548C121.703 18.2961 121.58 18.2706 121.457 18.2819C119.697 18.277 117.945 18.5329 116.259 19.0409C115.583 19.4534 117.15 31.0694 117.744 32.1584ZM116.606 19.4369C118.13 19.2188 119.672 19.147 121.209 19.2224C121.308 20.4434 121.045 31.0199 121.028 31.1849C120.331 31.4348 119.586 31.5251 118.85 31.4489C118.734 31.0694 118.536 30.0464 118.289 28.7594C117.562 25.6842 117 22.5722 116.606 19.4369ZM32.2415 93.7364C32.3999 93.8177 32.5751 93.8597 32.753 93.8597C32.9309 93.8597 33.1061 93.8177 33.2645 93.7364C33.902 93.3431 34.4075 92.7686 34.7165 92.0864C34.7585 91.9772 34.7714 91.859 34.754 91.7435C34.7366 91.6277 34.6898 91.5185 34.6175 91.4264C33.8255 90.4859 25.1795 80.4704 24.1235 81.0974C22.8269 81.9368 21.5968 82.8746 20.444 83.9024C20.3975 83.9441 20.3603 83.9948 20.3347 84.0515C20.3091 84.1085 20.2958 84.17 20.2955 84.2324C20.2625 85.0904 29.8655 92.7794 32.2415 93.7364ZM24.3215 81.5264C25.526 82.4009 29.585 87.4169 33.347 91.8554C33.1853 92.1101 32.9849 92.3384 32.753 92.5319C28.7977 90.0005 25.0212 87.1997 21.4505 84.1499C22.3456 83.21 23.305 82.3334 24.3215 81.5264ZM50.243 45.1274C50.606 38.7254 54.335 35.7554 58.229 34.9964C57.1235 39.0554 57.305 44.3354 61.3145 45.0119C63.2285 45.3254 64.169 44.3354 65.555 43.1804C71.4785 38.2304 66.6935 33.2804 60.011 33.6269C62.5025 26.7959 68.261 21.2354 75.9005 21.0539C75.9704 21.0539 76.0376 21.0261 76.0871 20.9766C76.1366 20.927 76.1645 20.8599 76.1645 20.7899C76.1645 20.7199 76.1366 20.6527 76.0871 20.6032C76.0376 20.5537 75.9704 20.5259 75.9005 20.5259C67.6505 20.3609 61.166 26.3009 58.6085 33.7259C54.203 34.4849 49.8305 37.7849 49.715 45.0284C49.7084 45.0632 49.7087 45.0986 49.7162 45.1331C49.7234 45.1676 49.7375 45.2003 49.7573 45.2297C49.7774 45.2588 49.8026 45.2837 49.8323 45.3029C49.8617 45.3221 49.895 45.3356 49.9295 45.3419C49.9643 45.3485 49.9997 45.3479 50.0342 45.3407C50.0687 45.3335 50.1014 45.3194 50.1308 45.2996C50.1599 45.2795 50.1848 45.2543 50.204 45.2246C50.2232 45.1952 50.2364 45.1622 50.243 45.1274ZM59.6315 34.7984C62.09 34.6334 65.753 35.3924 66.7595 37.6199C67.337 38.8904 66.7595 40.4579 64.7135 42.1739C64.1579 42.7304 63.5243 43.2029 62.8325 43.5764C60.3575 44.6324 57.6185 41.5799 59.6315 34.7984ZM64.3505 268.158C62.7563 267.73 61.0931 267.627 59.4581 267.853C57.8231 268.078 56.2499 268.628 54.8309 269.471C53.4119 270.312 52.1756 271.43 51.1952 272.759C50.2145 274.086 49.5092 275.595 49.121 277.2C48.3881 280.533 49.0088 284.02 50.8469 286.894C52.685 289.769 55.5896 291.795 58.922 292.528C62.2544 293.261 65.7416 292.641 68.6159 290.803C71.4908 288.964 73.5176 286.06 74.2505 282.727C74.5637 281.12 74.5556 279.467 74.2265 277.863C73.8977 276.258 73.2545 274.736 72.3344 273.381C71.414 272.027 70.2347 270.868 68.8646 269.972C67.4942 269.075 65.96 268.459 64.3505 268.158ZM69.449 281.605C68.7869 284.245 67.202 286.562 64.9808 288.135C62.7596 289.71 60.0485 290.437 57.338 290.185C54.8498 289.213 52.784 287.394 51.5045 285.05C50.225 282.704 49.8131 279.983 50.342 277.365C50.9594 274.66 52.5296 272.268 54.7655 270.626C57.0014 268.984 59.7536 268.202 62.519 268.422C65.0318 269.46 67.0979 271.351 68.3534 273.762C69.6089 276.174 69.9737 278.952 69.383 281.605H69.449Z" fill="black"/>
<path d="M86.3281 272.86C84.8917 272.365 83.3521 272.246 81.8566 272.514C81.2365 271.092 80.4739 269.738 79.5796 268.471C80.6521 267.498 83.5891 264.792 82.8796 263.521C80.3545 260.5 77.3566 257.91 74.0023 255.849C72.6019 255.064 71.0599 254.565 69.4651 254.38C68.4091 254.529 65.9008 258.637 65.3398 259.561C64.9768 259.561 63.6901 259.149 63.5911 259.099C63.5911 257.911 63.2446 253.621 62.1721 253.126C60.9727 252.685 59.7274 252.38 58.4596 252.219C57.2881 252.037 46.7446 253.968 45.9691 255.387C45.4576 256.344 46.6456 259.957 46.9921 260.964C46.1023 261.454 45.2476 262.005 44.4346 262.614C42.7846 263.785 43.2301 263.736 42.9331 263.604C42.574 263.432 42.1894 263.321 41.7946 263.274C40.4764 262.501 38.9311 262.21 37.4221 262.449C35.9041 262.944 32.3236 271.095 31.7461 273.19C31.5571 273.718 31.5061 274.286 31.5976 274.84C31.9936 275.929 34.6336 276.804 35.7391 277.15C35.4337 279.274 35.4337 281.429 35.7391 283.552C34.2871 283.948 31.2673 284.839 31.4323 286.324C31.5973 287.809 35.4583 297.61 37.0588 298.386C37.9357 298.877 38.9053 299.178 39.9055 299.272C40.9057 299.365 41.9143 299.249 42.8671 298.93C43.4035 298.662 43.9219 298.36 44.4181 298.023C45.0781 298.518 45.7711 298.963 46.4806 299.392C45.9691 300.663 44.8306 303.501 45.1936 304.788C45.3751 305.466 45.9196 305.679 46.6786 305.961C48.7741 306.72 60.0601 309.426 61.7761 309.129C62.4196 309.03 62.7661 308.352 62.9641 307.71C63.3307 306.243 63.5464 304.746 63.6073 303.237C64.4548 303.153 65.2975 303.027 66.1321 302.859C66.6418 303.753 67.2937 304.563 68.0626 305.25C68.9041 305.844 69.6136 305.547 70.5706 304.938C71.0326 305.532 71.7256 306.357 72.4681 306.438C74.3326 306.654 82.0381 299.392 82.8301 297.907C83.4901 296.67 81.0811 294.459 80.0086 293.485C81.1687 291.739 82.0795 289.84 82.7146 287.842C83.9047 288.021 85.1092 288.089 86.3116 288.04C86.8561 288.04 87.4831 287.842 87.7141 287.331C88.7206 285.037 88.4236 276.342 87.7141 274.131C87.6151 273.487 86.8726 273.058 86.3281 272.86ZM86.7241 274.378C87.2851 276.523 87.4663 284.625 86.6413 286.72C85.2148 286.861 83.7754 286.795 82.3678 286.522C82.2178 286.496 82.0633 286.528 81.9352 286.61C81.8068 286.693 81.7141 286.821 81.6751 286.968C81.0181 289.198 79.9978 291.306 78.6553 293.205C78.5599 293.332 78.5167 293.488 78.5353 293.646C78.5536 293.803 78.6325 293.946 78.7546 294.046C79.9123 294.964 80.8957 296.081 81.6586 297.346C80.8336 298.699 74.3821 304.608 72.6001 305.103C72.3361 305.103 71.6101 304.113 71.4286 303.849C70.819 302.931 70.2682 301.98 69.7786 300.993C69.7072 300.849 69.5845 300.738 69.4351 300.681C69.2854 300.621 69.1195 300.621 68.9698 300.681C64.1848 302.478 62.3701 301.422 62.3701 302.61C62.3722 304.389 62.0824 306.156 61.5118 307.842C57.6343 307.419 53.8162 306.567 50.1271 305.301C50.3053 303.537 50.7967 301.821 51.5791 300.234C52.0741 299.128 50.0941 299.442 46.3981 295.68C46.279 295.57 46.123 295.508 45.961 295.508C45.7987 295.508 45.6427 295.57 45.5236 295.68C43.8736 297.033 41.7286 298.353 41.2996 298.138C40.4581 297.726 36.5806 288.931 36.3496 287.149C37.5232 286.331 38.8555 285.769 40.2601 285.499C40.4098 285.457 40.5391 285.362 40.6243 285.231C40.7089 285.101 40.744 284.944 40.7221 284.79C40.3177 282.454 40.3177 280.064 40.7221 277.728C40.7473 277.584 40.717 277.436 40.6375 277.314C40.5577 277.192 40.4347 277.104 40.2931 277.068C39.049 276.742 37.8517 276.259 36.7291 275.632C36.3661 275.368 36.3991 275.385 36.4321 275.104C37.5001 271.253 39.2128 267.609 41.4976 264.33C42.3886 264.082 44.7976 265.848 45.6226 266.475C45.7087 266.559 45.8242 266.605 45.9442 266.605C46.0645 266.605 46.18 266.559 46.2661 266.475C47.0242 265.688 47.8405 264.961 48.7081 264.297C51.2161 262.399 51.8926 262.647 51.6781 261.987C50.9194 260.332 50.4934 258.543 50.4241 256.723C50.6797 256.51 50.9701 256.344 51.2821 256.228C52.8226 255.619 54.4051 255.123 56.0176 254.743C57.9721 254.199 59.9809 253.872 62.0071 253.77C62.3536 253.918 62.6671 255.42 62.7496 255.882C63.3601 259.182 62.9476 259.858 63.4261 259.908C68.1286 260.37 69.0856 261.673 69.4156 261.096C70.3306 259.495 71.3971 257.987 72.6001 256.591C72.9466 256.245 72.9301 256.08 73.9696 256.674C77.0752 258.703 79.8565 261.19 82.2196 264.049C82.4671 264.478 80.3221 266.755 78.7546 268.092C78.2101 268.57 78.9856 268.785 80.4046 271.491C81.8236 274.197 81.4933 274.956 82.2523 274.791C83.7157 274.44 85.2214 274.301 86.7241 274.378ZM315.726 136.504C312.267 135.092 308.643 134.132 304.938 133.65C302.232 133.221 299.046 132.792 296.357 132.445C298.947 128.782 306.618 119.509 307.905 117.249C308.268 116.638 307.578 115.78 307.065 115.269C304.194 112.2 298.65 111.045 294.393 110.385C291.951 109.989 281.754 108.735 280.022 109.56C277.943 110.55 262.565 133.65 262.103 137.164C262.103 137.758 262.301 137.989 262.878 138.204C265.304 139.095 276.243 140.481 278.685 141.058C275.385 146.833 260.717 166.353 259.281 169.108C258.935 169.801 259.149 170.214 259.562 170.346C261.047 170.936 262.574 171.41 264.132 171.765C264.726 171.946 266.03 171.138 267.927 169.983C276.441 164.868 312.972 140.745 315.777 137.626C315.855 137.554 315.915 137.464 315.957 137.365C315.996 137.267 316.014 137.161 316.008 137.054C316.005 136.948 315.975 136.843 315.927 136.749C315.879 136.654 315.81 136.571 315.726 136.504ZM280.269 156.304C266.244 165.561 261.509 168.267 261.344 168.382C263.604 164.934 277.646 145.695 280.055 141.091C280.096 141.002 280.118 140.906 280.118 140.807C280.118 140.709 280.094 140.612 280.052 140.524C280.009 140.434 279.947 140.357 279.87 140.295C279.795 140.233 279.705 140.189 279.609 140.167C277.959 139.573 265.947 138.286 263.109 137.28C263.472 134.211 278.454 111.012 280.269 110.088C282.084 109.164 299.69 111.259 302.991 113.619C301.257 117.001 291.687 128.848 290.136 131.604C289.823 132.165 289.724 132.709 290.334 132.858C290.945 133.006 306.453 134.821 309.837 135.927C305.712 139.375 284.889 153.202 280.269 156.238V156.304ZM174.422 55.4235C174.422 55.572 174.521 55.7535 174.768 56.7105C174.833 56.9181 174.976 57.0924 175.167 57.1971C175.357 57.3015 175.581 57.3282 175.791 57.2715C176.001 57.2103 176.179 57.0681 176.283 56.8761C176.389 56.6844 176.414 56.4585 176.352 56.2485C176.187 55.605 176.039 55.0605 175.94 54.7965C175.843 54.6153 175.684 54.4764 175.49 54.4071C175.298 54.3375 175.086 54.3423 174.896 54.4206C174.706 54.4989 174.552 54.645 174.466 54.8304C174.377 55.0158 174.361 55.2273 174.422 55.4235Z" fill="black"/>
</svg>
