<svg width="16" height="16" viewBox="0 0 16 16" fill="none" xmlns="http://www.w3.org/2000/svg">
<path id="Star" d="M7.2107 0.993284C7.46289 0.217111 8.56097 0.217111 8.81316 0.993284L10.0925 4.93077C10.2053 5.27788 10.5288 5.5129 10.8938 5.5129H15.0339C15.85 5.5129 16.1893 6.55723 15.5291 7.03693L12.1796 9.47043C11.8844 9.68496 11.7608 10.0652 11.8736 10.4123L13.153 14.3498C13.4052 15.126 12.5168 15.7714 11.8565 15.2917L8.50712 12.8582C8.21185 12.6437 7.81202 12.6437 7.51674 12.8582L4.16732 15.2917C3.50707 15.7714 2.6187 15.126 2.8709 14.3498L4.15026 10.4123C4.26305 10.0652 4.13949 9.68496 3.84422 9.47043L0.494796 7.03693C-0.165456 6.55723 0.173869 5.5129 0.989985 5.5129H5.1301C5.49508 5.5129 5.81855 5.27788 5.93133 4.93077L7.2107 0.993284Z" fill="black"/>
</svg>
