<svg width="26" height="26" viewBox="0 0 26 26" fill="none" xmlns="http://www.w3.org/2000/svg">
<g clip-path="url(#clip0_1337_166)">
<path fill-rule="evenodd" clip-rule="evenodd" d="M11.9108 0.874524C11.9108 0.392349 12.3032 0 12.7854 0C13.2675 0 13.6599 0.392349 13.6599 0.874524C13.6599 1.3567 13.2675 1.74905 12.7854 1.74905C12.3032 1.74905 11.9108 1.3567 11.9108 0.874524ZM18.2532 1.42302L18.2472 1.42325C18.0136 1.42701 17.7957 1.52148 17.6331 1.68955C17.4709 1.85732 17.3837 2.07842 17.3871 2.31197C17.3912 2.54553 17.4859 2.76343 17.6537 2.926C17.8215 3.08856 18.0426 3.1752 18.2762 3.17172C18.5097 3.16795 18.7279 3.07319 18.8902 2.90542C19.0527 2.73765 19.14 2.51655 19.1362 2.28299C19.1284 1.80574 18.7375 1.42296 18.262 1.42296L18.2532 1.42302ZM7.3081 1.42633C6.82589 1.42633 6.43356 1.81868 6.43356 2.30086C6.43356 2.78303 6.82589 3.17539 7.3081 3.17539C7.79026 3.17539 8.18259 2.78303 8.18259 2.30086C8.18259 1.81868 7.79026 1.42633 7.3081 1.42633ZM15.6456 6.26041C15.1634 6.26041 14.771 6.65274 14.771 7.13495C14.771 7.61712 15.1634 8.00944 15.6456 8.00944C16.1277 8.00944 16.5201 7.61712 16.5201 7.13495C16.5201 6.65274 16.1277 6.26041 15.6456 6.26041ZM9.23896 7.13468C9.23896 6.65252 9.63128 6.26014 10.1134 6.26014C10.5957 6.26014 10.988 6.65252 10.988 7.13468C10.988 7.61684 10.5957 8.00922 10.1134 8.00922C9.63128 8.00922 9.23896 7.61684 9.23896 7.13468ZM12.7854 11.4321C12.3032 11.4321 11.9108 11.8245 11.9108 12.3066C11.9108 12.7888 12.3032 13.1812 12.7854 13.1812C13.2675 13.1812 13.6599 12.7888 13.6599 12.3066C13.6599 11.8245 13.2675 11.4321 12.7854 11.4321ZM0 12.58C0 12.0975 0.392349 11.7055 0.874524 11.7055C1.3567 11.7055 1.74905 12.0975 1.74905 12.58C1.74905 13.0619 1.3567 13.4546 0.874524 13.4546C0.392349 13.4546 0 13.0619 0 12.58ZM18.8418 21.9082C18.3597 21.9082 17.9673 22.3005 17.9673 22.7827C17.9673 23.2649 18.3597 23.6572 18.8418 23.6572C19.324 23.6572 19.7164 23.2649 19.7164 22.7827C19.7164 22.3005 19.324 21.9082 18.8418 21.9082ZM21.9276 18.2617C21.9276 17.7795 22.3199 17.3872 22.8021 17.3872C23.2843 17.3872 23.6766 17.7795 23.6766 18.2617C23.6766 18.7439 23.2843 19.1362 22.8021 19.1362C22.3199 19.1362 21.9276 18.7439 21.9276 18.2617ZM24.696 11.7055C24.2138 11.7055 23.8215 12.0975 23.8215 12.58C23.8215 13.0619 24.2138 13.4546 24.696 13.4546C25.1782 13.4546 25.5705 13.0619 25.5705 12.58C25.5705 12.0975 25.1782 11.7055 24.696 11.7055ZM5.8547 22.7827C5.8547 22.3005 6.24703 21.9082 6.72924 21.9082C7.2114 21.9082 7.60373 22.3005 7.60373 22.7827C7.60373 23.2649 7.2114 23.6572 6.72924 23.6572C6.24703 23.6572 5.8547 23.2649 5.8547 22.7827ZM2.76727 17.3872C2.2851 17.3872 1.89275 17.7795 1.89275 18.2617C1.89275 18.7439 2.2851 19.1362 2.76727 19.1362C3.24945 19.1362 3.6418 18.7439 3.6418 18.2617C3.6418 17.7795 3.24945 17.3872 2.76727 17.3872ZM4.75378 12.4436C4.75378 11.4815 5.53617 10.6994 6.49762 10.6994C7.45907 10.6994 8.24145 11.4815 8.24145 12.4436C8.24145 13.405 7.45907 14.1874 6.49762 14.1874C5.53617 14.1874 4.75378 13.405 4.75378 12.4436ZM15.9972 16.3895C15.0357 16.3895 14.253 17.1718 14.253 18.1336C14.253 19.095 15.0357 19.8774 15.9972 19.8774C16.9586 19.8774 17.741 19.095 17.741 18.1336C17.741 17.1718 16.9586 16.3895 15.9972 16.3895ZM1.67922 6.69395C1.67922 5.73223 2.4616 4.94982 3.42306 4.94982C4.38452 4.94982 5.16719 5.73223 5.16719 6.69395C5.16719 7.6554 4.38452 8.43778 3.42306 8.43778C2.4616 8.43778 1.67922 7.6554 1.67922 6.69395ZM12.7845 22.1314C11.8231 22.1314 11.0404 22.9138 11.0404 23.8756C11.0404 24.837 11.8231 25.6194 12.7845 25.6194C13.746 25.6194 14.5284 24.837 14.5284 23.8756C14.5284 22.9138 13.746 22.1314 12.7845 22.1314ZM7.82921 18.1257C7.82921 17.1639 8.61192 16.3816 9.57337 16.3816C10.5348 16.3816 11.3172 17.1639 11.3172 18.1257C11.3172 19.0872 10.5348 19.8695 9.57337 19.8695C8.61192 19.8695 7.82921 19.0872 7.82921 18.1257ZM19.0726 10.6994C18.1112 10.6994 17.3285 11.4815 17.3285 12.4436C17.3285 13.405 18.1112 14.1874 19.0726 14.1874C20.0341 14.1874 20.8164 13.405 20.8164 12.4436C20.8164 11.4815 20.0341 10.6994 19.0726 10.6994ZM20.472 6.69395C20.472 5.73223 21.2543 4.94982 22.2158 4.94982C23.1775 4.94982 23.9596 5.73223 23.9596 6.69395C23.9596 7.6554 23.1775 8.43778 22.2158 8.43778C21.2543 8.43778 20.472 7.6554 20.472 6.69395Z" fill="#161514"/>
</g>
<defs>
<clipPath id="clip0_1337_166">
<rect width="26" height="26" fill="white"/>
</clipPath>
</defs>
</svg>
