<svg width="18" height="18" viewBox="0 0 18 18" fill="none" xmlns="http://www.w3.org/2000/svg">
<g clip-path="url(#clip0_1337_664)">
<path d="M9.00225 0H8.99775C4.03538 0 0 4.0365 0 9C0 10.9688 0.6345 12.7935 1.71337 14.2751L0.59175 17.6186L4.05113 16.5128C5.47425 17.4555 7.17188 18 9.00225 18C13.9646 18 18 13.9624 18 9C18 4.03763 13.9646 0 9.00225 0Z" fill="#4CAF50"/>
<path d="M14.2396 12.709C14.0225 13.3221 13.1607 13.8306 12.4734 13.9791C12.0031 14.0792 11.3889 14.1591 9.32111 13.3018C6.67623 12.2061 4.97298 9.51846 4.84023 9.34409C4.71311 9.16971 3.77148 7.92096 3.77148 6.62946C3.77148 5.33796 4.42736 4.70909 4.69173 4.43909C4.90886 4.21746 5.26773 4.11621 5.61198 4.11621C5.72336 4.11621 5.82348 4.12184 5.91348 4.12634C6.17786 4.13759 6.31061 4.15334 6.48498 4.57071C6.70211 5.09384 7.23086 6.38534 7.29386 6.51809C7.35798 6.65084 7.42211 6.83084 7.33211 7.00521C7.24773 7.18521 7.17348 7.26509 7.04073 7.41809C6.90798 7.57109 6.78198 7.68809 6.64923 7.85234C6.52773 7.99521 6.39048 8.14821 6.54348 8.41259C6.69648 8.67134 7.22523 9.53421 8.00373 10.2272C9.00836 11.1216 9.82286 11.4073 10.1142 11.5288C10.3314 11.6188 10.5901 11.5975 10.7487 11.4287C10.9501 11.2116 11.1987 10.8516 11.4519 10.4972C11.6319 10.243 11.8591 10.2115 12.0976 10.3015C12.3406 10.3858 13.6265 11.0215 13.8909 11.1531C14.1552 11.2858 14.3296 11.3488 14.3937 11.4602C14.4567 11.5716 14.4567 12.0947 14.2396 12.709Z" fill="#FAFAFA"/>
</g>
<defs>
<clipPath id="clip0_1337_664">
<rect width="18" height="18" fill="white"/>
</clipPath>
</defs>
</svg>
